<?xml version="1.0" encoding="UTF-8"?>
<svg width="359px" height="510px" viewBox="0 0 359 510" version="1.1" xmlns="http://www.w3.org/2000/svg" xmlns:xlink="http://www.w3.org/1999/xlink">
    <title>Group 13 Copy 4</title>
    <defs>
        <ellipse id="path-1" cx="80.4526192" cy="33.0931275" rx="80.3900664" ry="32.4638359"></ellipse>
        <path d="M47.688655,0.10454444 C39.2973329,13.3996994 35.1016718,26.6948544 35.1016718,39.9900093 C35.1016718,51.6399422 38.3231889,63.2898751 44.766223,74.939808 C49.996608,77.53246 53.2735228,81.2495452 53.2735228,85.3786429 C53.2735228,93.213693 41.4747082,99.565256 26.9201327,99.565256 C12.3655572,99.565256 0.56674259,93.213693 0.56674259,85.3786429 C0.56674259,81.249809 3.84323875,77.532935 9.07288923,74.9404052 C15.5168921,63.290542 18.7385936,51.6402757 18.7385936,39.9900093 C18.7385936,26.6948544 14.5429326,13.3996994 6.15161042,0.10454444 C15.4353096,1.70192672 22.3847728,2.50061785 27,2.50061785 C31.6152272,2.50061785 38.5114455,1.70192672 47.688655,0.10454444 Z" id="path-3"></path>
        <path d="M82.7382316,0.618495832 C120.26844,0.618495832 150.692686,12.7261324 150.692686,27.6616591 C150.692686,30.585287 147.942641,54.8173775 150.692686,80.9028868 C152.047206,93.7511623 155.817345,116.06412 162.003102,147.841761 C163.146434,151.665825 163.932367,155.614979 164.330277,159.66059 C164.428983,160.166977 164.530254,160.676078 164.632061,161.187278 L164.632061,161.187278 L164.461569,161.186612 C164.57465,162.719937 164.632061,164.266453 164.632061,165.824643 C164.632061,205.202267 127.966945,237.124138 82.7382316,237.124138 C37.5095185,237.124138 0.844402062,205.202267 0.844402062,165.824643 C0.844402062,164.266453 0.901813044,162.719937 1.01489383,161.186612 L0.844402062,161.187278 C0.928688726,160.862512 1.01268087,160.538619 1.09637849,160.215598 C1.7005444,153.430838 3.3977504,146.912669 6.03319509,140.793778 C13.2103854,111.969412 17.3922618,92.0054972 18.5811403,80.9028868 C22.2156923,46.9608042 14.7837773,31.144375 14.7837773,27.6616591 C14.7837773,12.7261324 45.2080228,0.618495832 82.7382316,0.618495832 Z" id="path-5"></path>
    </defs>
    <g id="Page-1" stroke="none" stroke-width="1" fill="none" fill-rule="evenodd">
        <g id="original" transform="translate(-764.000000, -214.000000)">
            <g id="hero-area" transform="translate(-132.000000, 0.000000)">
                <g id="pina-colada" transform="translate(871.000000, 214.000000)">
                    <g id="Group-15">
                        <g id="pina-colada" transform="translate(0.500000, 0.000000)">
                            <g id="Group-13-Copy-4" transform="translate(203.901220, 254.574754) scale(-1, 1) translate(-203.901220, -254.574754) translate(25.401220, 0.073775)">
                                <g id="general/pina-colada" transform="translate(0.668068, 21.795344)">
                                    <g id="Group-3" transform="translate(60.847856, 111.659565)">
                                        <g id="Group-2" transform="translate(3.180118, 308.986040)">
                                            <mask id="mask-2" fill="white">
                                                <use xlink:href="#path-1"></use>
                                            </mask>
                                            <use id="Oval-Copy" fill="#C3D5E3" xlink:href="#path-1"></use>
                                            <ellipse id="Oval-Copy" fill="#B6C2CB" mask="url(#mask-2)" cx="80.4526192" cy="31.4699357" rx="77.4099467" ry="30.8406441"></ellipse>
                                            <ellipse id="Oval-Copy-4" stroke-opacity="0.546601836" stroke="#99B0C1" stroke-width="1.09824" fill="#E8F3FC" stroke-linecap="square" mask="url(#mask-2)" cx="80.4526192" cy="28.2235521" rx="77.2726236" ry="30.8406441"></ellipse>
                                        </g>
                                        <g id="Group-16" transform="translate(56.712605, 233.682872)">
                                            <mask id="mask-4" fill="white">
                                                <use xlink:href="#path-3"></use>
                                            </mask>
                                            <use id="Combined-Shape" fill="#FFFFFF" xlink:href="#path-3"></use>
                                        </g>
                                        <g id="Group" transform="translate(0.894506, 0.000000)">
                                            <mask id="mask-6" fill="white">
                                                <use xlink:href="#path-5"></use>
                                            </mask>
                                            <use id="Combined-Shape" fill="#FFCE6D" xlink:href="#path-5"></use>
                                            <path d="M82.7382316,-10.9784736 C121.686476,-10.9784736 153.571915,1.40318095 156.197357,17.0777699 C160.443608,29.8535261 156.372083,49.8005908 156.372083,56.8582226 C156.372083,73.5094105 123.405085,87.0078654 82.7382316,87.0078654 C42.0713782,87.0078654 9.10437985,73.5094105 9.10437985,56.8582226 C9.10437985,51.3883107 6.64613436,32.1829329 9.10741821,18.9670413 C9.14444105,16.5874383 9.85650484,14.2726644 11.1680611,12.0537413 C12.2446311,9.71889575 13.658903,7.90804834 15.5019907,6.86268603 C26.9994552,-3.65273985 52.7794529,-10.9784736 82.7382316,-10.9784736 Z" id="Combined-Shape" fill="#FFFFFF" mask="url(#mask-6)"></path>
                                        </g>
                                    </g>
                                </g>
                                <g id="umbrella" transform="translate(44.143387, 0.917865)">
                                    <g id="Group-7" transform="translate(155.843330, 161.089453) scale(-1, 1) rotate(-236.000000) translate(-155.843330, -161.089453) translate(32.843330, 56.294933)">
                                        <polygon id="Star" fill="#2AC1BB" points="122.683241 203.834816 111.949848 208.592277 102.351288 202.3226 90.8091914 205.423292 82.6371101 197.831899 70.6370113 199.181609 64.1397141 190.499162 52.0462297 190.056879 47.4211336 180.547189 35.6017179 178.326353 32.9893541 168.278367 21.8031341 164.346455 21.282878 154.065477 11.0697413 148.54196 12.6574006 138.340371 3.7276682 131.393077 7.3750027 121.580848 -4.56045933e-11 113.420868 5.59618726 104.296138 118.648184 156.428204 174.729471 199.181609 162.729372 197.831899 154.557291 205.423292 143.015195 202.3226 133.416634 208.592277"></polygon>
                                        <polygon id="Star" fill="#FD996C" points="122.683241 4.75746089 133.416634 -2.6263619e-11 143.015195 6.26967707 154.557291 3.16898539 162.729372 10.7603777 174.729471 9.41066815 181.226768 18.093115 193.320252 18.5353979 197.945348 28.0450876 209.764764 30.2659244 212.377128 40.3139098 223.563348 44.2458214 224.083604 54.5267997 234.296741 60.050317 232.709081 70.2519057 241.638814 77.1991995 237.991479 87.0114285 245.366482 95.1714087 239.770295 104.296138 245.366482 113.420868 237.991479 121.580848 241.638814 131.393077 232.709081 138.340371 234.296741 148.54196 224.083604 154.065477 223.563348 164.346455 212.377128 168.278367 209.764764 178.326353 197.945348 180.547189 193.320252 190.056879 181.226768 190.499162 174.729471 199.181609 118.648184 156.428204"></polygon>
                                        <polygon id="Star" fill="#9BCBEB" points="5.59618726 104.296138 1.33243295e-11 95.1714087 7.3750027 87.0114285 3.7276682 77.1991995 12.6574006 70.2519057 11.0697413 60.050317 21.282878 54.5267997 21.8031341 44.2458214 32.9893541 40.3139098 35.6017179 30.2659244 47.4211336 28.0450876 52.0462297 18.5353979 64.1397141 18.093115 70.6370113 9.41066815 82.6371101 10.7603777 90.8091914 3.16898539 102.351288 6.26967707 111.949848 -2.35609303e-11 118.648184 156.428204"></polygon>
                                        <polygon id="Star" fill="#994048" points="47.4211336 28.0450876 52.0462297 18.5353979 64.1397141 18.093115 70.6370113 9.41066815 82.6371101 10.7603777 90.8091914 3.16898539 102.351288 6.26967707 111.949848 -1.12983948e-11 122.683241 4.75746089 118.648184 156.428204"></polygon>
                                        <polygon id="Star" fill="#2AC1BB" opacity="0.100000001" style="mix-blend-mode: screen;" points="122.683241 203.834816 111.949848 208.592277 118.648184 156.428204 102.351288 202.3226 90.8091914 205.423292 118.648184 156.428204 82.6371101 197.831899 70.6370113 199.181609 118.648184 156.428204 64.1397141 190.499162 52.0462297 190.056879 118.648184 156.428204 47.4211336 180.547189 35.6017179 178.326353 118.648184 156.428204 32.9893541 168.278367 21.8031341 164.346455 118.648184 156.428204 21.282878 154.065477 11.0697413 148.54196 118.648184 156.428204 12.6574006 138.340371 3.7276682 131.393077 118.648184 156.428204 7.3750027 121.580848 4.5464094e-13 113.420868 118.648184 156.428204 5.59618726 104.296138 4.5464094e-13 95.1714087 118.648184 156.428204 7.3750027 87.0114285 3.7276682 77.1991995 118.648184 156.428204 12.6574006 70.2519057 11.0697413 60.050317 118.648184 156.428204 21.282878 54.5267997 21.8031341 44.2458214 118.648184 156.428204 32.9893541 40.3139098 35.6017179 30.2659244 118.648184 156.428204 47.4211336 28.0450876 52.0462297 18.5353979 118.648184 156.428204 64.1397141 18.093115 70.6370113 9.41066815 118.648184 156.428204 82.6371101 10.7603777 90.8091914 3.16898539 118.648184 156.428204 102.351288 6.26967707 111.949848 1.36415159e-12 118.648184 156.428204 122.683241 4.75746089 133.416634 1.36415159e-12 118.648184 156.428204 143.015195 6.26967707 154.557291 3.16898539 118.648184 156.428204 162.729372 10.7603777 174.729471 9.41066815 118.648184 156.428204 181.226768 18.093115 193.320252 18.5353979 118.648184 156.428204 197.945348 28.0450876 209.764764 30.2659244 118.648184 156.428204 212.377128 40.3139098 223.563348 44.2458214 118.648184 156.428204 224.083604 54.5267997 234.296741 60.050317 118.648184 156.428204 232.709081 70.2519057 241.638814 77.1991995 118.648184 156.428204 237.991479 87.0114285 245.366482 95.1714087 118.648184 156.428204 239.770295 104.296138 245.366482 113.420868 118.648184 156.428204 237.991479 121.580848 241.638814 131.393077 118.648184 156.428204 232.709081 138.340371 234.296741 148.54196 118.648184 156.428204 224.083604 154.065477 223.563348 164.346455 118.648184 156.428204 212.377128 168.278367 209.764764 178.326353 118.648184 156.428204 197.945348 180.547189 193.320252 190.056879 118.648184 156.428204 181.226768 190.499162 174.729471 199.181609 118.648184 156.428204 162.729372 197.831899 154.557291 205.423292 118.648184 156.428204 143.015195 202.3226 133.416634 208.592277 118.648184 156.428204"></polygon>
                                    </g>
                                    <g id="Group-8" transform="translate(187.789862, 110.490313)">
                                        <path d="M5.52706262,14.5479694 C7.08419916,12.284208 11.0191115,10.1113299 17.3317995,8.02933518 C21.2350544,9.8960533 23.3950274,11.5253007 23.8117184,12.9170772 C24.2284094,14.3088538 23.1688932,16.3552075 20.6331697,19.0561384 L8.06247719,20.8916523 C4.81506427,18.9262918 3.96992608,16.8117309 5.52706262,14.5479694 Z" id="Rectangle" fill-opacity="0.239565122" fill="#111111" transform="translate(14.335001, 14.460494) rotate(7.000000) translate(-14.335001, -14.460494) "></path>
                                        <path d="M3.09189732,11.685981 C4.9721276,9.42320319 9.72740439,7.25424163 17.3577277,5.1790963 C22.0791694,7.05132165 24.6925641,8.68385704 25.1979116,10.0767025 C25.7032591,11.469548 24.4244579,13.5154365 21.3615079,16.2143681 L6.16441854,18.0353106 C2.23584078,16.065202 1.21166704,13.9487588 3.09189732,11.685981 Z" id="Rectangle" fill="#FFE1B8" transform="translate(13.742127, 11.607203) rotate(-28.000000) translate(-13.742127, -11.607203) "></path>
                                        <path d="M26.3515963,9.80758512 C26.8569438,11.2004306 25.5781426,13.2463191 22.5151927,15.9452507 C14.7719048,17.0530954 9.7062083,17.6600762 7.31810326,17.7661933 C4.04527601,17.9116235 2.19791679,14.4304316 3.9086274,13.9120651 C7.51040124,12.820683 15.3905641,10.0339913 18.6036166,10.2599465 C21.4174802,10.457829 19.649467,13.6336708 21.6720979,13.3750051 C24.3690135,13.030108 26.2922273,9.64395146 26.3515963,9.80758512 Z" id="Rectangle" fill="#DF9631" transform="translate(14.858655, 13.786233) rotate(-28.000000) translate(-14.858655, -13.786233) "></path>
                                    </g>
                                </g>
                            </g>
                        </g>
                    </g>
                </g>
            </g>
        </g>
    </g>
</svg>