<svg id="Layer_1" data-name="Layer 1" xmlns="http://www.w3.org/2000/svg" viewBox="154 154 760 760"><defs><style>.cls-1{fill:#f15a29;}.cls-2{fill:#fbb040;}.cls-3{fill:#fff;}.cls-4{fill:#558959;}.cls-5{fill:#b2d6f1;}</style></defs><title>masshike_logo_final</title><path class="cls-1" d="M630.87,837.33v45.94a359.21,359.21,0,0,0,155.87-87.82L719.21,664.94Z"/><path class="cls-1" d="M340.59,835.91a357.85,357.85,0,0,0,90.23,43l1.76.55V602.23h-92Z"/><path class="cls-1" d="M578.22,893.15q17.85-2,35.15-5.68V653.81l-35.15-15.08Z"/><path class="cls-2" d="M450.09,884.4a358.76,358.76,0,0,0,88.25,11c7.52,0,15-.26,22.38-.72V634.2H450.09Z"/><polygon class="cls-2" points="328.71 584.73 331.83 584.73 340.59 584.73 432.58 584.73 441.34 584.73 444.46 584.73 444.46 568.27 328.71 568.27 328.71 584.73"/><polygon class="cls-3" points="394.38 401.66 365.26 366.55 334.05 406.15 364.46 441.35 394.38 401.66"/><path class="cls-2" d="M727.65,620.31l113.49,109Q848.43,718,854.85,706L727.65,599.86Z"/><path class="cls-3" d="M394,314.4a10.83,10.83,0,0,0,10.81,10.82H508.4a18.55,18.55,0,0,0,0-37.09H484.12l-1-4.14-.62-2.49a30,30,0,0,0-58.12-.76,29.83,29.83,0,0,0-.71,12.71l1.61,10.13H404.85A10.83,10.83,0,0,0,394,314.4Z"/><path class="cls-4" d="M700.93,522.54a28.33,28.33,0,0,1,0-56.65h1a47.79,47.79,0,0,1,1.66-10A48.62,48.62,0,0,1,705.6,450l-36.54-44.28-44.38,49.43c-.09.1-.21.17-.3.27a8.18,8.18,0,0,1-.64.68,8.73,8.73,0,0,1-12.35-.72L557.9,395.2l-76.82,94.55h0l0,0a8.06,8.06,0,0,1-1.12,1.14s-.05.06-.08.08l-.07.05a9.31,9.31,0,0,1-1.14.79l-.23.12a8.41,8.41,0,0,1-1.1.5l-.18.07a8.08,8.08,0,0,1-1.24.32l-.33.06a9.21,9.21,0,0,1-1.28.11h0a8.92,8.92,0,0,1-1.25-.11l-.33-.05a10.38,10.38,0,0,1-1.22-.31l-.18-.08a8,8,0,0,1-1.09-.48l-.23-.12a9.2,9.2,0,0,1-1.12-.76l-.07-.05a.94.94,0,0,1-.1-.1,8.39,8.39,0,0,1-1.12-1.11l0,0,0,0-61.6-74.29-33.95,45,0,0a7.21,7.21,0,0,1-.59.64c-.21.22-.4.46-.64.67l0,0a8.43,8.43,0,0,1-1.31.93c-.1.06-.21.09-.31.15a10.45,10.45,0,0,1-1.18.54l-.48.13a10.16,10.16,0,0,1-1.09.26c-.2,0-.39,0-.59.05s-.5.06-.76.06l-.21,0a9.28,9.28,0,0,1-1.06-.11c-.23,0-.46,0-.69-.1a9.56,9.56,0,0,1-1.07-.35c-.21-.08-.43-.13-.63-.23a9,9,0,0,1-1-.6c-.18-.12-.36-.2-.54-.33l0,0a7.91,7.91,0,0,1-1.33-1.25l0,0L323,420.16,184.1,596.4c15.71,92.49,66.87,173.07,139,227.19V602.23H320a8.75,8.75,0,0,1-8.75-8.75v-34a8.75,8.75,0,0,1,8.75-8.75h56.79V515.22a8.76,8.76,0,0,1,17.51,0v35.54h58.95a8.75,8.75,0,0,1,8.75,8.75v34a8.75,8.75,0,0,1-8.75,8.75h-3.12V616.7H569.57a8.51,8.51,0,0,1,1.52.15l.35.08a8.27,8.27,0,0,1,1.31.4,1,1,0,0,0,.16.06h0L625.57,640a8.81,8.81,0,0,1,4.61,4.67l80-68.14v-6.36a8.76,8.76,0,0,1,17.51,0v6.9L863,690q7.6-16,13.66-32.8L765.48,522.54Z"/><path class="cls-3" d="M474.18,470.48l76.63-94.31a6.38,6.38,0,0,1,.51-.53c.16-.16.29-.34.47-.5l.13-.09a7.38,7.38,0,0,1,.8-.58,6.51,6.51,0,0,1,.64-.43c.25-.14.52-.24.79-.36a7.68,7.68,0,0,1,.79-.32c.24-.08.5-.12.75-.18s.59-.14.89-.18.51,0,.77,0,.6,0,.9,0,.53.08.79.12.58.09.86.16.5.18.76.27.57.21.84.34.45.27.67.41a6.84,6.84,0,0,1,.8.52l.15.1c.19.16.34.35.52.52s.35.29.5.46L618,436.42l39.83-44.35L535.35,243.74,514.64,271.2a36,36,0,0,1-6.24,71.53H460.73l-44,58.42Z"/><path class="cls-3" d="M690.11,494.21A10.83,10.83,0,0,0,700.93,505H804.48a18.55,18.55,0,0,0,0-37.09H780.19l-1.65-6.63a30.16,30.16,0,0,0-21.15-21.71,30.1,30.1,0,0,0-37,20.95,30.27,30.27,0,0,0-1,6.16,30.74,30.74,0,0,0,.31,6.56l1.62,10.13H700.93A10.83,10.83,0,0,0,690.11,494.21Z"/><path class="cls-5" d="M538.34,176.7C340.2,176.7,179,337.9,179,536a361.72,361.72,0,0,0,1.82,36.24L358.66,346.65l.1.08a8.3,8.3,0,0,1,.78-.79,8.76,8.76,0,0,1,12.33,1.15l33.34,40.21,33.59-44.57H404.85a28.33,28.33,0,0,1,0-56.65h1a47,47,0,0,1,1.65-10,47.53,47.53,0,0,1,88.22-8.81l32.36-42.92a8.73,8.73,0,0,1,6.79-3.48,8.64,8.64,0,0,1,6.95,3.18l174,210.83a48,48,0,0,1,10.13-7.68,47.52,47.52,0,0,1,67.39,23.25h11.15a36,36,0,0,1,0,72.1h-16.3l94.89,115A358.28,358.28,0,0,0,897.68,536C897.68,337.9,736.48,176.7,538.34,176.7Z"/><polygon class="cls-2" points="630.88 798.94 655.21 751.45 630.88 776 630.88 798.94"/><polygon class="cls-2" points="710.14 599.52 630.88 667.06 630.88 696.87 710.14 620.87 710.14 599.52"/><polygon class="cls-2" points="630.88 751.13 681.59 699.97 709.27 645.96 630.88 721.12 630.88 751.13"/><path class="cls-2" d="M799.69,782.39q3.57-3.79,7-7.7l-23.05-23.25Z"/><path class="cls-2" d="M756.8,699.48s.1.08.14.13l61.15,61.68q6.79-8.41,13.1-17.23L729.12,646Z"/><path d="M538.34,159.2A376.85,376.85,0,0,0,271.87,802.51a382.22,382.22,0,0,0,51.21,42.94q4.34,3,8.75,5.93t8.76,5.58a371.93,371.93,0,0,0,90.23,40.42l1.76.51q4.37,1.27,8.76,2.43,3.48.93,7,1.79l1.77.41a379.26,379.26,0,0,0,88.25,10.36c7.5,0,14.95-.24,22.38-.67q4.38-.26,8.75-.61t8.75-.81q17.78-1.86,35.15-5.34c2.93-.59,5.84-1.21,8.75-1.87s5.85-1.35,8.75-2.08a373.88,373.88,0,0,0,164.31-89.73c3.25-3,6.47-6.1,9.63-9.26,1.17-1.17,2.31-2.36,3.46-3.54q6.88-7.07,13.35-14.42c2.51-2.85,5-5.73,7.4-8.65q8-9.63,15.24-19.71,5.13-7.08,9.89-14.36,8-12.18,14.94-24.89,4.14-7.53,7.91-15.23,7-14.26,12.76-29.05,3.63-9.35,6.75-18.88A377,377,0,0,0,538.34,159.2Zm-105.76,461V879.49l-1.76-.55a357.85,357.85,0,0,1-90.23-43V602.23h92Zm11.88-35.49H328.71V568.27H444.46ZM560.72,894.66c-7.41.46-14.86.72-22.38.72a358.76,358.76,0,0,1-88.25-11V634.2H560.72ZM613.37,659V887.47q-17.28,3.69-35.15,5.68V638.73l35.15,15.08Zm17.5,224.29V837.33l88.34-172.39,67.53,130.51A359.21,359.21,0,0,1,630.87,883.27ZM709.27,646l-27.68,54-50.72,51.16v-30Zm-78.4,50.91V667.06l79.27-67.54v21.35Zm24.34,54.58-24.34,47.49V776Zm144.48,30.94-16-30.95,23.05,23.25Q803.26,778.59,799.69,782.39Zm18.4-21.1-61.15-61.68c0-.05-.1-.08-.14-.13L729.12,646l102.07,98.06Q824.91,752.88,818.09,761.29Zm23-31.95-113.49-109V599.86L854.85,706Q848.43,718,841.14,729.34ZM863,690l-135.33-113v-6.9a8.76,8.76,0,0,0-17.51,0v6.36l-80,68.14a8.81,8.81,0,0,0-4.61-4.67l-52.65-22.58h0a1,1,0,0,1-.16-.06,8.27,8.27,0,0,0-1.31-.4l-.35-.08a8.51,8.51,0,0,0-1.52-.15H450.09V602.23h3.12a8.75,8.75,0,0,0,8.75-8.75v-34a8.75,8.75,0,0,0-8.75-8.75H394.26V515.22a8.76,8.76,0,0,0-17.51,0v35.54H320a8.75,8.75,0,0,0-8.75,8.75v34a8.75,8.75,0,0,0,8.75,8.75h3.12V823.59C251,769.47,199.81,688.89,184.1,596.4L323,420.16,358.3,461l0,0a7.91,7.91,0,0,0,1.33,1.25l0,0c.18.13.36.21.54.33a9,9,0,0,0,1,.6c.2.1.42.15.63.23a9.56,9.56,0,0,0,1.07.35c.23.05.46.07.69.1a9.28,9.28,0,0,0,1.06.11l.21,0c.26,0,.51,0,.76-.06s.39,0,.59-.05a10.16,10.16,0,0,0,1.09-.26l.48-.13A10.45,10.45,0,0,0,369,463c.1-.06.21-.09.31-.15a8.43,8.43,0,0,0,1.31-.93l0,0c.24-.21.43-.45.64-.67a7.21,7.21,0,0,0,.59-.64l0,0,33.95-45,61.6,74.29,0,0,0,0a8.39,8.39,0,0,0,1.12,1.11.94.94,0,0,0,.1.1l.07.05a9.2,9.2,0,0,0,1.12.76l.23.12a8,8,0,0,0,1.09.48l.18.08a10.38,10.38,0,0,0,1.22.31l.33.05a8.92,8.92,0,0,0,1.25.11h0a9.21,9.21,0,0,0,1.28-.11l.33-.06a8.08,8.08,0,0,0,1.24-.32l.18-.07a8.41,8.41,0,0,0,1.1-.5l.23-.12a9.31,9.31,0,0,0,1.14-.79l.07-.05s.05-.06.08-.08a8.06,8.06,0,0,0,1.12-1.14l0,0h0L557.9,395.2l53.49,60.18a8.73,8.73,0,0,0,12.35.72,8.18,8.18,0,0,0,.64-.68c.09-.1.21-.17.3-.27l44.38-49.43L705.6,450a48.62,48.62,0,0,0-2.05,5.88,47.15,47.15,0,0,0-1.66,10h-1a28.33,28.33,0,0,0,0,56.65h64.55L876.64,657.21Q870.6,674,863,690ZM334.05,406.15l31.21-39.6,29.12,35.11-29.92,39.69Zm89.58-112.7a30,30,0,0,1,37.69-33.66,30.13,30.13,0,0,1,21.14,21.71l.62,2.49,1,4.14H508.4a18.55,18.55,0,0,1,0,37.09H404.85a10.82,10.82,0,0,1,0-21.64h20.39Zm37.1,49.28H508.4a36,36,0,0,0,6.24-71.53l20.71-27.46L657.79,392.07,618,436.42l-53.82-60.55c-.15-.17-.34-.3-.5-.46s-.33-.36-.52-.52l-.15-.1a6.84,6.84,0,0,0-.8-.52c-.22-.14-.44-.29-.67-.41s-.56-.23-.85-.34-.49-.2-.75-.27-.57-.11-.86-.16-.52-.1-.79-.12-.6,0-.9,0-.51,0-.77,0-.59.12-.89.18-.51.1-.75.18a7.68,7.68,0,0,0-.79.32c-.27.12-.54.22-.79.36a6.51,6.51,0,0,0-.64.43,7.38,7.38,0,0,0-.8.58l-.13.09c-.18.16-.31.34-.47.5a6.38,6.38,0,0,0-.51.53l-76.63,94.31-57.49-69.33Zm259,130.54a30.74,30.74,0,0,1-.31-6.56,30.27,30.27,0,0,1,1-6.16,30,30,0,0,1,58.12.76l1.65,6.63h24.29a18.55,18.55,0,0,1,0,37.09H700.93a10.82,10.82,0,1,1,0-21.63h20.39ZM883.07,637.5l-94.89-115h16.3a36.05,36.05,0,0,0,0-72.1H793.33a47.57,47.57,0,0,0-77.52-15.57L541.79,224a8.64,8.64,0,0,0-6.95-3.18,8.73,8.73,0,0,0-6.79,3.48l-32.36,42.92a47.53,47.53,0,0,0-88.22,8.81,47,47,0,0,0-1.65,10h-1a28.33,28.33,0,0,0,0,56.65H438.8L405.21,387.3l-33.34-40.21a8.76,8.76,0,0,0-12.33-1.15,8.3,8.3,0,0,0-.78.79l-.1-.08L180.82,572.28A361.72,361.72,0,0,1,179,536C179,337.9,340.2,176.7,538.34,176.7S897.68,337.9,897.68,536A358.28,358.28,0,0,1,883.07,637.5Z"/></svg>