<svg id="Layer_3" data-name="Layer 3" xmlns="http://www.w3.org/2000/svg" xmlns:xlink="http://www.w3.org/1999/xlink" viewBox="0 0 324.12 324.07"><defs><style>.cls-1{fill:none;}.cls-2{clip-path:url(#clip-path);}.cls-3{fill:#104058;}.cls-4{opacity:0.5;}.cls-5{clip-path:url(#clip-path-4);}.cls-14,.cls-15,.cls-18,.cls-19,.cls-26,.cls-6{fill:#fff;}.cls-7{fill:#8ac0e8;}.cls-8{fill:#59aade;}.cls-9{fill:#aecfe8;}.cls-10{fill:#5b8cb4;}.cls-11{fill:#486585;}.cls-12{opacity:0.8;}.cls-13{clip-path:url(#clip-path-5);}.cls-14{font-size:7.83px;}.cls-14,.cls-15{font-family:HelveticaNeue-Light, Helvetica Neue;}.cls-15{font-size:5.99px;}.cls-16{fill:#56a8dd;}.cls-17{fill:#bbbcc1;}.cls-18{font-size:50px;font-family:HelveticaNeue-Bold, Helvetica Neue;font-weight:700;}.cls-19{font-size:8px;font-family:HelveticaNeue-Medium, Helvetica Neue;}.cls-20{letter-spacing:-0.02em;}.cls-21{letter-spacing:0em;}.cls-22{letter-spacing:-0.02em;}.cls-23{letter-spacing:0em;}.cls-24{letter-spacing:-0.02em;}.cls-25{letter-spacing:-0.02em;}.cls-26{font-size:6px;font-family:HelveticaNeue, Helvetica Neue;}</style><clipPath id="clip-path"><rect class="cls-1" x="0.06" y="0.04" width="324" height="324"/></clipPath><clipPath id="clip-path-4"><rect class="cls-1" x="-86.71" y="176.32" width="444.97" height="525.8"/></clipPath><clipPath id="clip-path-5"><rect class="cls-1" x="-56.45" y="163.29" width="470.09" height="544.34"/></clipPath></defs><title>nexpo</title><g class="cls-2"><g class="cls-2"><rect class="cls-3" x="0.06" y="0.04" width="324" height="324"/><g class="cls-2"><g class="cls-4"><g class="cls-5"><path class="cls-6" d="M145.24,207.59l.06,0-.06,0"/><path class="cls-6" d="M145.24,207.59l-.05,0,.05,0"/><path class="cls-6" d="M100.83,268.25l44.28-60,.08.39-44.13,59.85-.22-.19a0,0,0,0,1,0,0"/><polygon class="cls-6" points="145.35 207.88 227.4 271.75 227.18 271.95 145.81 208.62 145.4 208.31 145.19 208.6 145.11 208.21 145.35 207.88"/><polygon class="cls-6" points="145.81 208.62 227.18 271.95 145.81 208.63 145.81 208.62"/><path class="cls-6" d="M145.3,207.58a.25.25,0,0,1,.22.07l82.3,64.05a.35.35,0,0,0-.12-.05.26.26,0,0,0-.28.07l0,0-82.06-63.87-.24.33-.06-.28a.34.34,0,0,1,0-.21v0a.16.16,0,0,1,.08-.07l.05,0,.06,0"/><path class="cls-6" d="M227.93,271.84a.26.26,0,0,0-.07-.12.26.26,0,0,1,.07.12"/><polygon class="cls-6" points="227.93 271.85 248.55 339.61 248.54 339.61 227.93 271.85"/><polygon class="cls-6" points="227.49 272.5 171.28 326.53 170.9 326.47 170.88 326.47 170.82 326.13 227.18 271.95 227.38 272.12 227.49 272.5"/><polygon class="cls-6" points="227.64 271.93 248.19 339.52 247.87 339.47 237.62 305.76 237.56 305.61 227.49 272.5 227.38 272.12 227.18 271.95 227.4 271.75 227.64 271.93"/><path class="cls-6" d="M227.49,272.5l10.08,33.11Z"/><path class="cls-6" d="M100.45,268.26l44.64-60.54a.34.34,0,0,0,0,.22l.06.28-44.28,60a.31.31,0,0,0-.29,0,.21.21,0,0,0-.08.06Z"/><path class="cls-6" d="M100.46,268.27a.2.2,0,0,1,.08-.06.31.31,0,0,1,.29,0l-.18.25-.33.18,0-.22a.26.26,0,0,1,.11-.18"/><path class="cls-6" d="M100.65,268.49l.18-.25a0,0,0,0,0,0,0l.22.19-.16.22a.24.24,0,0,1-.1.09l-.53.28,0-.37Z"/><polygon class="cls-6" points="100.32 268.67 100.27 269.04 28.51 308.08 28.35 307.81 100.32 268.67"/><polygon class="cls-6" points="237.62 305.76 247.87 339.47 247.86 339.47 237.62 305.76"/><path class="cls-6" d="M28.34,307.8a.3.3,0,0,0-.33-.13l-.06,0,72.5-39.43h0a.26.26,0,0,0-.11.18l0,.22-72,39.14Z"/><path class="cls-6" d="M28.07,308l-.38.56.08-.6a.2.2,0,0,1,0-.08l0,0a.21.21,0,0,1,.11-.1h0l.06,0a.3.3,0,0,1,.33.13h0Z"/><polygon class="cls-6" points="27.69 308.52 28.07 307.96 28.35 307.81 28.51 308.08 28.28 308.2 27.6 309.21 27.69 308.52"/><path class="cls-6" d="M248.35,339.54h0l-.14,0-20.56-67.59-.23-.18,0,0a.26.26,0,0,1,.28-.07.34.34,0,0,1,.11.05l0,0a.26.26,0,0,1,.07.12l20.61,67.76h0l0,.14a.3.3,0,0,0-.08-.12l-.06,0-.06,0h0"/><path class="cls-6" d="M28.26,308.85,4.51,489.28l-.4.46-.23-.31L27.6,309.21l.68-1,.22-.12,54.81,89.76,17-128.79.53-.28a.23.23,0,0,0,.1-.08l.16-.22,69.09,57.48-25-117.33.21-.29.41.31h0l25,117.5-.38.37,0,0-.23.19-69.29-57.64L83.91,398l-.56.47s0,0,0,0h0s0,0,0,0l0,0h0l-.1.11Z"/><polygon class="cls-6" points="-46.63 419.48 3.87 489.42 3.82 489.86 -47 419.49 27.69 308.52 27.6 309.21 -46.63 419.48"/><path class="cls-6" d="M3.8,490.37l-51-70.7a.31.31,0,0,1,0-.35l75-111.47a.2.2,0,0,0,0,.08l-.08.6L-47,419.49,3.82,489.86l0,.32a.24.24,0,0,0,0,.14Z"/><path class="cls-7" d="M228.45,263.8a8,8,0,1,1-9,6.9,8,8,0,0,1,9-6.9"/><path class="cls-8" d="M29.1,299.86a8,8,0,1,1-9,6.9,8,8,0,0,1,9-6.9"/><path class="cls-9" d="M173,318.81a8,8,0,1,1-9,6.9,8,8,0,0,1,9-6.9"/><path class="cls-10" d="M146.07,199.74a8,8,0,1,1-8.72,7.24,8,8,0,0,1,8.72-7.24"/><path class="cls-11" d="M100.81,262.48a8,8,0,1,1-9,6.9,8,8,0,0,1,9-6.9"/></g></g><g class="cls-12"><g class="cls-13"><path class="cls-6" d="M37.81,264.35l.2,1.12L9.41,344.37l-.63.25a.3.3,0,0,0-.17.18l29.2-80.55h0a.29.29,0,0,0,0,.1"/><polygon class="cls-6" points="293.33 259 293.87 258.79 293.93 259.19 221.89 371.02 221.71 370.99 221.73 370.18 293.33 259"/><polygon class="cls-6" points="222.59 288.31 222.72 288.25 222.76 288.23 222.91 288.17 221.73 370.18 221.28 370.87 221.11 370.81 222.3 288.44 222.59 288.31"/><polygon class="cls-6" points="114.53 335.86 114.5 335.85 180.61 306.79 114.53 335.86"/><path class="cls-6" d="M38.39,264.45l-.37,1-.2-1.12A.34.34,0,0,1,38,264l.88-.21Z"/><path class="cls-6" d="M37.82,264.25h0l0-.06a.28.28,0,0,1,0-.09L97.25,190a.21.21,0,0,0-.06.11l-.4,1.44L38.92,263.79,38,264a.33.33,0,0,0-.22.25"/><path class="cls-6" d="M222.6,288.31l-.3.13Z"/><polygon class="cls-6" points="114.13 335.73 114.47 335.22 221.86 287.97 222.3 288.17 222.3 288.44 180.61 306.79 114.5 335.86 114.13 335.73"/><path class="cls-6" d="M222.6,288.31l.12-.06Z"/><path class="cls-6" d="M222.6,288.31l-.3.13v-.27l.18.08a.27.27,0,0,0,.24,0Z"/><path class="cls-6" d="M222.91,288.17l-.15.06a.24.24,0,0,0,.15-.18Z"/><path class="cls-6" d="M222.33,287.84a.25.25,0,0,0,0,.13v.2l-.44-.2.52-.23Z"/><polygon class="cls-6" points="222.48 287.69 222.37 287.74 222.45 287.58 222.6 287.64 222.48 287.69"/><path class="cls-6" d="M222.3,288a.25.25,0,0,1,0-.13l0-.1.11,0,.12,0h0l.11,0a.32.32,0,0,1,.18.28s0,0,0,.06h0a.24.24,0,0,1-.15.18l0,0a.28.28,0,0,1-.24,0l-.18-.08Z"/><path class="cls-6" d="M222.91,288a.32.32,0,0,0-.18-.28l-.12,0,.14-.06.05,0,.43-.16-.32.64s0,0,0-.06"/><polygon class="cls-6" points="222.61 287.65 222.6 287.64 222.45 287.58 222.46 287.57 222.61 287.65"/><polygon class="cls-6" points="222.45 287.58 163.1 260.61 222.46 287.57 222.45 287.58"/><path class="cls-6" d="M222.8,287.56l-.06,0Z"/><polygon class="cls-6" points="223.23 287.4 222.8 287.56 223.23 287.38 223.23 287.4"/><path class="cls-6" d="M246.76,238.3l.65-.17a.36.36,0,0,0,.19-.16l-24.37,49.41-.43.18-.05,0-.14.06-.16-.08Z"/><polygon class="cls-6" points="113.48 334.65 113.4 335.56 113.18 335.54 79.51 254.98 79.75 254.38 79.87 254.29 113.48 334.65"/><path class="cls-6" d="M79.75,254.38l-.24.61L50.33,328.46l-.12.29.05.31-.31,0,.06,0a.27.27,0,0,0,.19-.22.35.35,0,0,0,0-.11l-.19-1,29-73,.57-.14a.32.32,0,0,0,.22-.2l0-.09,0,.11Z"/><path class="cls-6" d="M49.55,328.52,38,265.47l.37-1,.54-.66,40.34-9.85,0,0,0,0-.05.08-.22.54-40.54,9.91L50,327.62l-.37.93Z"/><path class="cls-6" d="M79.27,254l0,0,0,0,0,.05"/><path class="cls-6" d="M79.57,254.48l-.57.14.22-.54.05-.08,0-.05h0a.34.34,0,0,1,.17-.05.28.28,0,0,1,.27.19l.05.11,0,.09a.31.31,0,0,1-.22.2"/><path class="cls-6" d="M79.33,253.93l.72-.57-.22.81-.05-.11a.28.28,0,0,0-.27-.19.33.33,0,0,0-.17.05"/><polygon class="cls-6" points="124.38 219.1 124.33 219.67 79.87 254.29 79.83 254.18 80.05 253.37 124.25 218.97 124.38 219.09 124.38 219.1"/><path class="cls-6" d="M162,260.8l-.07-.06a.19.19,0,0,0,.07.06"/><path class="cls-6" d="M114,335.41l.06-.72,47.73-74.13h.08v0h0a.28.28,0,0,0,.06.14l.07.06,0,0,.24.11-47.85,74.29Z"/><path class="cls-6" d="M162.13,260.25l.18-.05.12.14a.3.3,0,0,1,0,.36l-.14.23-.24-.11,0,0a.2.2,0,0,1-.07-.06.28.28,0,0,1-.06-.14.17.17,0,0,1,0-.09.27.27,0,0,1,.23-.27"/><path class="cls-6" d="M162.43,260.33l-.12-.13.14,0,0,.17.61.28,59.35,27-.08.16-.51.23-59.54-27,.14-.23a.3.3,0,0,0,0-.36"/><path class="cls-6" d="M161.9,260.56l-.15-1,.57.63-.18.05a.27.27,0,0,0-.23.27.18.18,0,0,0,0,.09h0Z"/><polygon class="cls-6" points="161.82 260.57 124.94 219.71 124.98 219.15 125.13 219.03 161.74 259.57 161.9 260.56 161.82 260.57"/><polygon class="cls-6" points="293.87 258.79 293.33 259 293.87 258.78 293.87 258.79"/><path class="cls-6" d="M294.35,258.55l-.42.65-.06-.41.36-.15a.42.42,0,0,0,.12-.09"/><path class="cls-6" d="M312.79,392.19l-18.86-133,.42-.65,0,0a.28.28,0,0,0,0-.17l19,134.12,0,0a.3.3,0,0,0-.22-.13L221.89,371Z"/><path class="cls-6" d="M294,258.07a.3.3,0,0,1,.26,0h0l.09.09a.07.07,0,0,1,0,.07s0,0,0,0,0,0,0,0v0a.27.27,0,0,1,0,.16l0,0a.37.37,0,0,1-.12.09l-.36.15h0l-.54.23-70.43,29.17v-.12h0l.32-.64h0l70.11-29Z"/><path class="cls-6" d="M294.41,258.31a.06.06,0,0,0,0,0l0,0Z"/><path class="cls-6" d="M294.41,258.3l0,0s0,0,0,0,0,0,0,.05"/><path class="cls-6" d="M294.38,258.24a.07.07,0,0,0,0-.07.1.1,0,0,1,0,.07"/><polygon class="cls-6" points="113.73 335.26 113.48 334.65 124.33 219.67 124.66 219.41 124.94 219.71 114.08 334.7 113.73 335.26"/><path class="cls-6" d="M124.66,219.4l-.34.27.05-.57.1.11a.32.32,0,0,0,.42,0Z"/><polygon class="cls-6" points="124.98 219.15 124.94 219.71 124.66 219.41 124.89 219.23 124.98 219.15"/><path class="cls-6" d="M124.25,219l.23-.19a.28.28,0,0,0-.09.15v.16Z"/><path class="cls-6" d="M124.49,218.78l0,0h0a.3.3,0,0,1,.39,0l.21.24-.15.12-.09.08a.32.32,0,0,1-.42,0l-.1-.11h0v-.16a.3.3,0,0,1,.09-.16"/><polygon class="cls-6" points="124.72 218.58 124.71 218.59 124.71 218.57 124.72 218.58"/><path class="cls-6" d="M79.26,253.93l17.52-62.41.83-1,.64.06,26.45,28h0l-.18.16h0l0,0-.23.19L97.62,190.75,80,253.37l-.72.57h0l0,0Z"/><polygon class="cls-6" points="124.71 218.57 142.47 203.13 124.72 218.58 124.71 218.57"/><polygon class="cls-6" points="246.76 238.3 163.1 260.61 162.49 260.33 162.46 260.16 246.43 237.77 246.92 237.99 246.76 238.3"/><path class="cls-6" d="M247.46,237.56l-94.92-42.65,141.7,63.16s0,0,0,0a.31.31,0,0,0-.26,0l-.66.27L247.62,238l0,0a.3.3,0,0,0,0-.23.38.38,0,0,0-.16-.18"/><path class="cls-6" d="M97.62,190.48l-.83,1,.4-1.44a.2.2,0,0,1,.06-.11.23.23,0,0,1,.13-.09.11.11,0,0,1,.09,0h.07a.28.28,0,0,1,.17.09l.55.59Z"/><path class="cls-6" d="M97.37,189.88s0,0,0,0h.06a.11.11,0,0,0-.09,0"/><polygon class="cls-6" points="151.97 195.68 152.23 195.45 152.55 195.58 152.56 195.58 162.46 260.16 162.31 260.2 161.74 259.57 151.97 195.68"/><polygon class="cls-6" points="152.23 195.44 152.25 195.44 152.55 195.58 152.23 195.44"/><path class="cls-6" d="M152.47,195l.08.55-.31-.15.14-.12a.28.28,0,0,0,.09-.28"/><path class="cls-6" d="M152,194.87l0,0,0,0a.22.22,0,0,1,.1,0s0,0,0,0h.07l.1,0,0,0s0,0,0,0h0a.18.18,0,0,1,0,.06.16.16,0,0,1,0,.11.28.28,0,0,1-.09.28l-.13.12h0l-.18-.08a.31.31,0,0,1-.17-.34.14.14,0,0,1,0-.06l.05-.09"/><path class="cls-6" d="M151.44,195.32l.52-.44-.05.09a.13.13,0,0,0,0,.06.31.31,0,0,0,.17.34l.18.09-.27.23L125.13,219l-.21-.24a.3.3,0,0,0-.39,0l.18-.16h0l17.74-15.45Z"/><path class="cls-6" d="M152.47,195a.17.17,0,0,0,0-.11.1.1,0,0,1,0,.06.07.07,0,0,1,0,0"/><path class="cls-6" d="M152,194.85l0,0-.52.44-53.18-4.77-.55-.59a.28.28,0,0,0-.17-.1l54.59,4.92s0,0,0,0a.22.22,0,0,0-.09,0l0,0"/><path class="cls-6" d="M152.43,194.93a.19.19,0,0,0,0-.06.1.1,0,0,1,0,.06"/><path class="cls-6" d="M152.1,194.79a.22.22,0,0,0-.1,0,.22.22,0,0,1,.1,0"/><path class="cls-6" d="M152.34,194.84l0,0s0,0,0,0"/><path class="cls-6" d="M152.18,194.78h0Z"/><path class="cls-6" d="M152.53,194.91l94.92,42.65a.37.37,0,0,1,.16.18.29.29,0,0,1,0,.23.35.35,0,0,1-.19.16l-.65.17.16-.32-.49-.22-93.86-42.19h0l-.08-.55a.07.07,0,0,0,0-.05.1.1,0,0,0,0-.06.09.09,0,0,0,0-.06h0l0,0,0,0,0,0h0Z"/><path class="cls-6" d="M152.14,194.78h0a0,0,0,0,0,0,0Z"/><path class="cls-6" d="M152.31,194.82l-.11,0a0,0,0,0,1,0,0l.07,0,0,0"/><path class="cls-6" d="M152.2,194.78h0a0,0,0,0,0,0,0"/><path class="cls-10" d="M48.58,335.7A8,8,0,1,1,58,329.36a8,8,0,0,1-9.39,6.34"/><path class="cls-8" d="M150.66,203.11a8,8,0,1,1,9.39-6.34,8,8,0,0,1-9.39,6.34"/><path class="cls-8" d="M292.6,266.37A8,8,0,1,1,302,260a8,8,0,0,1-9.39,6.34"/><path class="cls-11" d="M78.41,262.29A8,8,0,1,1,87.81,256a8,8,0,0,1-9.39,6.34"/><path class="cls-9" d="M37.16,272.43a8,8,0,1,1,9.4-6.34,8,8,0,0,1-9.4,6.34"/><path class="cls-10" d="M95.4,199.06a8,8,0,1,1,9.39-6.34,8,8,0,0,1-9.39,6.34"/><path class="cls-9" d="M123.18,227a8,8,0,1,1,9.39-6.34,8,8,0,0,1-9.39,6.34"/><path class="cls-11" d="M160.76,268.21a8,8,0,1,1,9.39-6.34,8,8,0,0,1-9.39,6.34"/><path class="cls-10" d="M245,244.47a8,8,0,1,1,9.39-6.34,8,8,0,0,1-9.39,6.34"/><path class="cls-9" d="M221.09,296a8,8,0,1,1,9.39-6.34,8,8,0,0,1-9.39,6.34"/></g></g><path class="cls-6" d="M125.22,46.08c0,2.6,0,2.7,1.59,2.7v.52H121.9v-.52h.39c1.34,0,1.34-.26,1.34-2.7V43.25c0-2.58-.14-2.58-1.73-2.58v-.52a20,20,0,0,0,2.07-.33,7.52,7.52,0,0,1,1.25-.28Z"/><path class="cls-6" d="M124.2,33.54a1.22,1.22,0,0,1,0,2.44A1.21,1.21,0,0,1,123,34.76a1.19,1.19,0,0,1,1.16-1.22"/><path class="cls-6" d="M135.54,41.58a4.69,4.69,0,0,0-3-1.34c-2.89,0-2.91,3.61-2.91,4.31,0,3.73,1.91,4.43,3,4.43a3.59,3.59,0,0,0,2.92-1.64Zm0-4.34c0-2.6,0-2.7-1.59-2.7V34a12.16,12.16,0,0,0,2.35-.33,3.52,3.52,0,0,1,.84-.16V46.15c0,2.56,0,2.7,1.5,2.7v.52a22.18,22.18,0,0,0-2.87.3,7.17,7.17,0,0,1-.14-1.69,5,5,0,0,1-3.51,1.69c-2.09,0-4.33-1.9-4.33-5s2.07-5.11,4.44-5.11a5,5,0,0,1,3.3,1.38Z"/><path class="cls-6" d="M146,42.64a2.46,2.46,0,0,0,0-.47,1.93,1.93,0,0,0-2-2.11c-2,0-2.32,2-2.41,2.58Zm-4.39.47c0,.33,0,.7,0,1.1,0,1.2,0,4.85,3,4.85a3,3,0,0,0,2.89-1.88h.52a3.79,3.79,0,0,1-3.71,2.49,4.67,4.67,0,0,1-4.53-5c0-2.91,1.87-5.14,4.44-5.14a3.7,3.7,0,0,1,3.8,3.56Z"/><path class="cls-6" d="M155.61,43.57l-1.21.52c-1.18.49-2.87,1.43-2.87,3,0,.82.43,1.62,1.32,1.62a5.55,5.55,0,0,0,2.75-1.43Zm3.64,4a1.81,1.81,0,0,1-1.87,1.95,1.67,1.67,0,0,1-1.78-1.64,6.83,6.83,0,0,1-3.67,1.64,2.09,2.09,0,0,1-2.25-2c0-1.33,1-2.46,4.19-3.77l1.73-.73v-.47c0-1.38-.2-2.51-2.07-2.51-.8,0-1.71.19-1.87,1-.09.49-.21,1.29-1,1.29a.65.65,0,0,1-.68-.66c0-.63.91-2.16,3.71-2.16,3.46,0,3.46,2.13,3.46,3.28v3.8c0,1.36,0,2.06.71,2.06.27,0,.77-.14.93-1.1Z"/><path class="cls-6" d="M115,40a9.91,9.91,0,1,0-19.8-.48,10.18,10.18,0,0,0,6.85,9.94v2.47l5.58-2.25c3.95-1.58,7.27-5,7.38-9.68"/><path class="cls-3" d="M105.07,47.27a7.52,7.52,0,1,1,7.3-7.52,7.41,7.41,0,0,1-7.3,7.52"/><path class="cls-6" d="M105.18,55.36h0L112,48.59l-8.59,4.2h0a2,2,0,0,0-.27.16,1.73,1.73,0,0,0-.56,2.33,1.62,1.62,0,0,0,2.31.29,2.27,2.27,0,0,0,.24-.2"/></g><rect class="cls-6" x="162.26" y="31.45" width="0.6" height="21.52"/><g class="cls-2"><text class="cls-14" transform="translate(165.68 48.94) scale(1 1.03)">V</text><text class="cls-14" transform="translate(169.75 48.94) scale(1 1.03)">entur</text><text class="cls-14" transform="translate(186.13 48.94) scale(1 1.03)">e Accelerator</text><text class="cls-15" transform="translate(165.68 40.38) scale(1 1.03)">Nor</text><text class="cls-15" transform="translate(175.35 40.38) scale(1 1.03)">theaster</text><text class="cls-15" transform="translate(195.98 40.38) scale(1 1.03)">n University</text><text class="cls-15" transform="translate(226.05 40.38) scale(1 1.03)">s</text><path class="cls-16" d="M62.9,145.46c1.87.7,7,1.73,11.29,3.1l.49.16.31.49a126.64,126.64,0,0,1,6.81,12l0-24.54Zm21.35,18.13h0a3.31,3.31,0,0,1-.28.4,2.52,2.52,0,0,1-3.22.71,3.1,3.1,0,0,1-1.28-1.44c-.49-.81-3.88-7.27-6.53-11.49-11.54-3.65-12.18-3.46-12.5-3.82a3.79,3.79,0,0,1-.7-3.63,3.29,3.29,0,0,1,1.08-1.59l.13-.1.14-.06,20.52-9.62a2,2,0,0,1,2.12.28,2.87,2.87,0,0,1,1,2.23l0,25.68a2.19,2.19,0,0,1,0,.52,3.78,3.78,0,0,1-.5,1.93"/><path class="cls-17" d="M55.65,140.93c1.88.7,7,1.73,11.29,3.1l.49.16.31.49a126.64,126.64,0,0,1,6.81,12l0-24.54ZM77,159.07h0a3.22,3.22,0,0,1-.28.4,2.51,2.51,0,0,1-3.22.71,3.1,3.1,0,0,1-1.28-1.44c-.49-.81-3.88-7.27-6.53-11.49-11.54-3.65-12.18-3.46-12.5-3.82a3.79,3.79,0,0,1-.7-3.63,3.29,3.29,0,0,1,1.08-1.59l.13-.1.14-.06,20.52-9.62a2,2,0,0,1,2.12.28,2.87,2.87,0,0,1,1,2.23l0,25.68a2.19,2.19,0,0,1,0,.52,3.78,3.78,0,0,1-.5,1.93"/></g><text class="cls-18" transform="translate(87.64 164.74)">NEXPO</text><text class="cls-19" transform="translate(89.92 117.79)">Be at the fo<tspan class="cls-20" x="42.83" y="0">r</tspan><tspan class="cls-21" x="45.5" y="0">ef</tspan><tspan class="cls-22" x="52.47" y="0">r</tspan><tspan class="cls-23" x="55.15" y="0">ont of ent</tspan><tspan class="cls-24" x="90.57" y="0">r</tspan><tspan x="93.24" y="0">ep</tspan><tspan class="cls-25" x="102.57" y="0">r</tspan><tspan x="105.25" y="0">eneurship</tspan></text><text class="cls-26" transform="translate(225.42 40.16)">’</text></g></g></svg>