<svg id="Layer_1" data-name="Layer 1" xmlns="http://www.w3.org/2000/svg" viewBox="0 0 107 34"><defs><style>.cls-1{fill:#fff;}</style></defs><g id="Page-1"><g id="Homepage-v2"><g id="Group-23"><g id="BevSpot-Logo-Copy-7"><path id="Shape" class="cls-1" d="M30.88,25.38c-.18-.4-3.26-8.73-4.22-10.92a4.53,4.53,0,0,0-2.87-2.38C21.15,11.25,12,8.52,9.27,7.9a5.42,5.42,0,0,0-3.06.48C4.49,9.31.28,11.87.28,11.87a.46.46,0,0,0-.19.7c.17.29,16.55,20.39,17,21.1.26.38.55.37.72.27l12.74-7.62C31,26.06,31.11,25.89,30.88,25.38ZM6.22,11.21c2.59-1.48,5.45-2.21,9,4.19a.55.55,0,0,0,.34.27.48.48,0,0,0,.42-.08c5.51-3.92,7.83-1.67,9,1.47.23.6.73,1.87,1.68,4.53a.17.17,0,0,1,0,.17.18.18,0,0,1-.16.09l-15.21,0a.17.17,0,0,1-.14-.06c-2.83-3.53-6-7.2-7.25-8.87a.17.17,0,0,1,0-.14A.2.2,0,0,1,4,12.71,26.56,26.56,0,0,1,6.22,11.21Z"/><ellipse id="Oval" class="cls-1" cx="12.6" cy="6.34" rx="1.16" ry="1.15" transform="translate(4.79 18.09) rotate(-83.09)"/><ellipse id="Oval-2" data-name="Oval" class="cls-1" cx="18" cy="7.76" rx="1.19" ry="1.18" transform="translate(8.19 24.72) rotate(-83.27)"/><ellipse id="Oval-3" data-name="Oval" class="cls-1" cx="23.28" cy="9.46" rx="1.24" ry="1.23" transform="translate(11.16 31.47) rotate(-83.27)"/><ellipse id="Oval-4" data-name="Oval" class="cls-1" cx="16.38" cy="3.89" rx="1.2" ry="1.19" transform="translate(10.6 19.7) rotate(-83.27)"/><ellipse id="Oval-5" data-name="Oval" class="cls-1" cx="21.77" cy="5.53" rx="1.21" ry="1.2" transform="translate(13.72 26.5) rotate(-83.27)"/><ellipse id="Oval-6" data-name="Oval" class="cls-1" cx="20.27" cy="1.44" rx="1.26" ry="1.25" transform="translate(16.46 21.4) rotate(-83.27)"/></g><path id="BevSpot" class="cls-1" d="M42.54,21a4.93,4.93,0,0,0,3.05-.81,2.69,2.69,0,0,0,1-2.27A2.44,2.44,0,0,0,46,16.21a2.85,2.85,0,0,0-1.79-.87h0v0a2.43,2.43,0,0,0,2.14-2.48,2.76,2.76,0,0,0-1-2.27,4.72,4.72,0,0,0-3-.79H37.46V21Zm-.49-6.51H39.74V11.6h2.31c1.25,0,1.87.48,1.87,1.44s-.62,1.45-1.87,1.45Zm.29,4.74h-2.6V16.29h2.6a2.21,2.21,0,0,1,1.4.38,1.27,1.27,0,0,1,.47,1.08,1.32,1.32,0,0,1-.47,1.1,2.21,2.21,0,0,1-1.4.38Zm10.54,1.94a4.84,4.84,0,0,0,2.4-.54,2.93,2.93,0,0,0,1.37-1.55h0l-1.9-.7a1.49,1.49,0,0,1-.66.78,2.33,2.33,0,0,1-1.21.28,2,2,0,0,1-2.13-1.81h6a5.41,5.41,0,0,0,.07-.91,4.58,4.58,0,0,0-1.06-3.25,4,4,0,0,0-3-1.14,4.21,4.21,0,0,0-3.16,1.16,4.51,4.51,0,0,0-1.12,3.26A4.41,4.41,0,0,0,49.62,20,4.4,4.4,0,0,0,52.88,21.17ZM54.7,16h-4a2.5,2.5,0,0,1,.63-1.46,1.86,1.86,0,0,1,1.36-.49,1.78,1.78,0,0,1,1.32.5A2.45,2.45,0,0,1,54.7,16Zm8.84,5,3.23-8.5H64.35l-2.14,6.87L60.12,12.5h-2.5L60.85,21Zm9.14.17a6.58,6.58,0,0,0,2.39-.41A3.7,3.7,0,0,0,76.7,19.6a3.12,3.12,0,0,0,.17-3.39,3.21,3.21,0,0,0-1.32-1.06,10.37,10.37,0,0,0-2.43-.71,6.27,6.27,0,0,1-2-.6,1,1,0,0,1-.56-.91,1.19,1.19,0,0,1,.55-1,2.78,2.78,0,0,1,1.57-.38,3.51,3.51,0,0,1,1.86.45,3.19,3.19,0,0,1,1.17,1.37h0l1.62-1.58a5.19,5.19,0,0,0-2-1.64,6.28,6.28,0,0,0-2.68-.52,6,6,0,0,0-2.46.46,3.59,3.59,0,0,0-1.59,1.27,3.16,3.16,0,0,0-.54,1.81,2.85,2.85,0,0,0,.42,1.59,3.22,3.22,0,0,0,1.37,1.09,11.45,11.45,0,0,0,2.53.77,7.25,7.25,0,0,1,1.91.57.9.9,0,0,1,.53.77,1.07,1.07,0,0,1-.57,1,3.22,3.22,0,0,1-1.65.34,4.56,4.56,0,0,1-2-.4,3.67,3.67,0,0,1-1.44-1.44h0l-1.4,1.67a4.46,4.46,0,0,0,1.92,1.57A7.5,7.5,0,0,0,72.68,21.17Zm9.09,3.4v-5a2.89,2.89,0,0,0,1.08,1.14,3,3,0,0,0,1.59.42A3.26,3.26,0,0,0,87.11,20a5,5,0,0,0,1-3.27,4.91,4.91,0,0,0-1-3.24,3.29,3.29,0,0,0-2.67-1.16,3,3,0,0,0-1.74.5,3.19,3.19,0,0,0-1.11,1.35h0L81.5,12.5h-2V24.57Zm2-5.18a1.75,1.75,0,0,1-1.38-.6,2.74,2.74,0,0,1-.6-1.67h0v-.74a2.73,2.73,0,0,1,.6-1.68,1.92,1.92,0,0,1,2.86.1,3.12,3.12,0,0,1,.52,1.95,3.12,3.12,0,0,1-.52,1.95A1.77,1.77,0,0,1,83.75,19.39ZM94.3,21.17A4.31,4.31,0,0,0,97.51,20a4.47,4.47,0,0,0,1.14-3.25,4.47,4.47,0,0,0-1.14-3.25,5,5,0,0,0-6.41,0A4.43,4.43,0,0,0,90,16.75,4.43,4.43,0,0,0,91.1,20,4.27,4.27,0,0,0,94.3,21.17Zm0-1.73a1.77,1.77,0,0,1-1.5-.68,3.2,3.2,0,0,1-.52-2,3.2,3.2,0,0,1,.52-2,1.77,1.77,0,0,1,1.5-.68,1.8,1.8,0,0,1,1.51.68,3.27,3.27,0,0,1,.51,2,3.27,3.27,0,0,1-.51,2A1.8,1.8,0,0,1,94.3,19.44Zm10,1.73a4.26,4.26,0,0,0,1.3-.19,2.84,2.84,0,0,0,1-.51h0l-.36-1.54a2,2,0,0,1-1.3.47,1,1,0,0,1-1.18-1.17h0v-4h2.76V12.5H103.8V9.9l-2.33.65V12.5H99.93v1.73h1.54V18.6C101.47,20.31,102.42,21.17,104.31,21.17Z"/></g></g></g></svg>