<svg xmlns="http://www.w3.org/2000/svg" xmlns:xlink="http://www.w3.org/1999/xlink" viewBox="0 0 859.74 824.21"><defs><style>.a,.g,.u,.v,.w,.x,.y{fill:none;}.b{clip-path:url(#a);}.c{fill:#fff;}.d{fill:#ef5395;}.e{fill:#9d1f21;}.f{clip-path:url(#b);}.g{stroke:#ef5395;stroke-width:1.36px;}.h{clip-path:url(#c);}.i{clip-path:url(#d);}.j{clip-path:url(#e);}.k{fill:#8376b7;}.l{clip-path:url(#g);}.m{clip-path:url(#h);}.n{clip-path:url(#i);}.o{clip-path:url(#j);}.p{fill:#6bb561;}.q{fill:#fedd73;}.r{fill:#231f20;}.s{clip-path:url(#l);}.t{fill:#202930;}.u{stroke:#9d1f21;}.u,.w,.x,.y{stroke-miterlimit:10;}.v,.w{stroke:#8376b7;}.x{stroke:#6bb561;}.y{stroke:#fedd73;}.z{clip-path:url(#m);}.aa{fill:#9c1d20;}.ab{fill:#6bb563;}</style><clipPath id="a" transform="translate(-80.75 -138.36)"><path class="a" d="M131.11,658.62v7.55c1.89,117,91.27,212.71,205.57,224.59h48c115.52-12,205.6-109.67,205.6-228.37,0-126.81-102.8-229.61-229.61-229.61-125.55,0-227.56,100.77-229.58,225.84"/></clipPath><clipPath id="b" transform="translate(-80.75 -138.36)"><polygon class="a" points="367.81 634.07 361.04 660.15 369.14 634.07 367.81 634.07"/></clipPath><clipPath id="c" transform="translate(-80.75 -138.36)"><polygon class="a" points="367.45 635.44 368.71 635.44 373.39 620.38 373.39 612.57 367.45 635.44"/></clipPath><clipPath id="d" transform="translate(-80.75 -138.36)"><polygon class="a" points="393.47 535.23 372.02 617.85 372.02 624.8 399.84 535.23 393.47 535.23"/></clipPath><clipPath id="e" transform="translate(-80.75 -138.36)"><path class="a" d="M393.11,536.6h6.31L428.51,443q-5.11-1.57-10.33-2.92Z"/></clipPath><clipPath id="g" transform="translate(-80.75 -138.36)"><polygon class="a" points="361.04 660.1 365.75 660.3 365.64 659.66 361.04 660.1"/></clipPath><clipPath id="h" transform="translate(-80.75 -138.36)"><polygon class="a" points="364.27 659.79 364.35 660.24 466.57 664.64 464.27 650.46 364.27 659.79"/></clipPath><clipPath id="i" transform="translate(-80.75 -138.36)"><polygon class="a" points="462.9 650.58 465.17 664.59 567.39 668.99 562.9 641.25 462.9 650.58"/></clipPath><clipPath id="j" transform="translate(-80.75 -138.36)"><path class="a" d="M561.53,641.37,566,668.93l24.18,1c.09-2.52.13-5,.13-7.58a232.72,232.72,0,0,0-1.2-23.59Z"/></clipPath><clipPath id="l" transform="translate(-80.75 -138.36)"><rect class="a" x="120.37" y="295.62" width="558.3" height="596.38"/></clipPath><clipPath id="m" transform="translate(-80.75 -138.36)"><rect class="a" x="778.88" y="137.95" width="165.64" height="229.05"/></clipPath></defs><g class="b"><polygon class="c" points="279.94 292.17 279.94 521.78 474.99 646.12 353.64 824.21 50.33 675.79 0 508.83 137.98 310.55 279.94 292.17"/><polygon class="d" points="279.94 521.78 348.39 302.55 448.59 325.11 499.61 415.81 509.55 500.32 279.94 521.78"/><polygon class="e" points="279.94 521.78 279.94 292.18 332.13 276.16 348.39 302.55 279.94 521.78"/></g><g class="f"><path class="g" d="M272.75,640.88h100.9m-100.9,20h100.9m-100.9-10h100.9M272.84,639.08h100.9m-100.9,20h100.9m-100.9-10h100.9m-.79-8.22h100.9m-100.9,20h100.9M373,650.9h100.9M373,639.08H474M373,659.12H474M373,649.1H474" transform="translate(-80.75 -138.36)"/></g><g class="h"><path class="g" d="M272.75,622.21h100.9m-100.9-10h100.9m-100.9,20h100.9M272.84,620.41h100.9m-100.9-10h100.9m-100.9,20h100.9m-.79-8.22h100.9m-100.9-10h100.9m-100.9,20h100.9M373,620.41H474M373,610.38H474M373,630.43H474" transform="translate(-80.75 -138.36)"/></g><g class="i"><path class="g" d="M271.37,542.05H372.28m-100.91,20H372.28m-100.91,20H372.28m-100.91,20H372.28m-100.91,20H372.28M271.37,552.07H372.28m-100.91,20H372.28m-100.91,20H372.28m-100.91,20H372.28m-100.82-72H372.37m-100.91,20H372.37m-100.91,20H372.37m-100.91,20H372.37m-100.91,20H372.37M271.46,550.26H372.37m-100.91,20H372.37M271.46,590.35H372.37m-100.91,20H372.37m-100.91,20H372.37m-.79-88.38h100.9m-100.9,20h100.9m-100.9,20h100.9m-100.9,20h100.9m-100.9,20h100.9m-100.9-70.14h100.9m-100.9,20h100.9m-100.9,20h100.9m-100.9,20h100.9m-100.81-72h100.9m-100.9,20h100.9m-100.9,20h100.9m-100.9,20h100.9m-100.9,20h100.9m-100.9-70.15h100.9m-100.9,20h100.9m-100.9,20.05h100.9m-100.9,20h100.9m-100.9,20h100.9" transform="translate(-80.75 -138.36)"/></g><g class="j"><path class="g" d="M371.58,443.21h100.9m-100.9,20h100.9M371.58,483.3h100.9m-100.9,20h100.9m-100.9,20h100.9m-100.9-70.15h100.9m-100.9,20h100.9m-100.9,20h100.9m-100.9,20h100.9m-100.9,20h100.9m-100.81-92h100.9m-100.9,20h100.9m-100.9,20h100.9m-100.9,20h100.9m-100.9,20h100.9m-100.9-70.14h100.9m-100.9,20h100.9m-100.9,20h100.9m-100.9,20h100.9m-100.9,20h100.9" transform="translate(-80.75 -138.36)"/></g><g class="b"><polygon class="k" points="280.29 522.13 499.25 601.18 532.59 568.35 509.55 500.32 280.29 522.13"/></g><g class="l"><path class="g" d="M355.5,639.66l16.12,99.61m-26-98,16.12,99.61M357.3,639.46l16.12,99.61m-26-98,16.12,99.61" transform="translate(-80.75 -138.36)"/></g><g class="m"><path class="g" d="M453.07,623.87l16.11,99.61m-35.9-96.41,16.12,99.61m-35.9-96.41,16.12,99.61m-35.91-96.4,16.12,99.6m-35.9-96.4,16.12,99.6m53.12-110.81,16.12,99.61m-35.9-96.41,16.12,99.61m-35.91-96.4,16.12,99.6m-35.9-96.4,16.12,99.6M364,638.28l16.12,99.6m74.7-114.21L471,723.28m-35.9-96.41,16.12,99.61m-35.91-96.4,16.12,99.6m-35.9-96.4,16.12,99.6m-35.9-96.4,16.11,99.61M445,625.27l16.12,99.61m-35.9-96.4,16.11,99.6m-35.9-96.4,16.12,99.6m-35.9-96.4,16.12,99.6m-35.91-96.4L382,737.69" transform="translate(-80.75 -138.36)"/></g><g class="n"><path class="g" d="M550.63,608.08l16.12,99.61m-35.9-96.41L547,710.89m-35.91-96.4,16.12,99.6m-35.9-96.4,16.12,99.6m-35.91-96.4,16.12,99.61m53.13-110.82,16.12,99.61M521,612.89l16.12,99.6m-35.9-96.4,16.12,99.6m-35.9-96.4,16.12,99.6m-35.91-96.4,16.12,99.61m74.71-114.22,16.12,99.61m-35.91-96.4,16.12,99.6m-35.9-96.4L529,713.89m-35.9-96.4,16.11,99.61m-35.9-96.41,16.12,99.61m53.13-110.81,16.12,99.6m-35.91-96.4,16.12,99.6M503,615.89l16.12,99.6m-35.91-96.4L499.3,718.7m-35.9-96.41,16.12,99.61" transform="translate(-80.75 -138.36)"/></g><g class="o"><path class="g" d="M588.84,601.9,605,701.51m-35.9-96.41,16.12,99.61M579,603.5l16.12,99.61m-35.9-96.41,16.12,99.61M590.64,601.7l16.12,99.61m-35.9-96.41L587,704.51M580.75,603.3l16.12,99.61M561,606.5l16.12,99.61" transform="translate(-80.75 -138.36)"/></g><g class="b"><polygon class="p" points="280.29 521.73 480.63 638 509.89 627.61 499.25 601.18 280.29 521.73"/><polygon class="q" points="280.29 521.73 479.93 637.64 491.93 642.94 483.11 651.25 280.29 521.73"/></g><path class="r" d="M254,693.15l-5,2.33a3.34,3.34,0,0,0-3.53-2.69,3.71,3.71,0,0,0-3.21,1.86,8.82,8.82,0,0,0-1.24,5v.57h.07a4.4,4.4,0,0,1,2.08-2.28,7.47,7.47,0,0,1,3.57-.79,8.25,8.25,0,0,1,3.88.9,6.64,6.64,0,0,1,2.71,2.54,7.38,7.38,0,0,1,1,3.8A7,7,0,0,1,252,710a9.75,9.75,0,0,1-6.6,2,8.78,8.78,0,0,1-7.21-3.07c-1.67-2-2.5-5-2.5-8.93a15.16,15.16,0,0,1,1.32-6.69,8.94,8.94,0,0,1,3.62-4,10.55,10.55,0,0,1,5.3-1.31Q252.24,688,254,693.15Zm-11,8.91a3.34,3.34,0,0,0,0,4.56,4,4,0,0,0,4.88,0,3.51,3.51,0,0,0,0-4.6,4,4,0,0,0-4.88,0Z" transform="translate(-80.75 -138.36)"/><path class="r" d="M275.76,693.15l-5,2.33a3.34,3.34,0,0,0-3.53-2.69,3.71,3.71,0,0,0-3.21,1.86,8.82,8.82,0,0,0-1.24,5v.57h.07a4.4,4.4,0,0,1,2.08-2.28,7.47,7.47,0,0,1,3.57-.79,8.25,8.25,0,0,1,3.88.9,6.64,6.64,0,0,1,2.71,2.54,7.38,7.38,0,0,1,1,3.8,7,7,0,0,1-2.37,5.57,9.75,9.75,0,0,1-6.6,2,8.78,8.78,0,0,1-7.21-3.07c-1.67-2-2.5-5-2.5-8.93a15.16,15.16,0,0,1,1.32-6.69,8.94,8.94,0,0,1,3.62-4,10.55,10.55,0,0,1,5.3-1.31Q274,688,275.76,693.15Zm-11,8.91a3,3,0,0,0-.9,2.28,3,3,0,0,0,.9,2.28,4,4,0,0,0,4.88,0,3.51,3.51,0,0,0,0-4.6,4,4,0,0,0-4.88,0Z" transform="translate(-80.75 -138.36)"/><path class="r" d="M289.78,689.81a7.35,7.35,0,0,1,0,9.64,7.16,7.16,0,0,1-9.54,0,7.35,7.35,0,0,1,0-9.64,7.16,7.16,0,0,1,9.54,0Zm-6.31,2.9a3.68,3.68,0,0,0,0,3.84,1.86,1.86,0,0,0,1.54.69,1.88,1.88,0,0,0,1.57-.69,3.63,3.63,0,0,0,0-3.84A1.88,1.88,0,0,0,285,692,1.86,1.86,0,0,0,283.47,692.71Zm16.3-4.4h4.59l-16.21,23.34h-4.59Zm7.84,12.23a7.35,7.35,0,0,1,0,9.64,7.16,7.16,0,0,1-9.54,0,7.35,7.35,0,0,1,0-9.64,7.19,7.19,0,0,1,9.54,0Zm-6.34,2.9a3.64,3.64,0,0,0,0,3.85,2.13,2.13,0,0,0,3.14,0,3.64,3.64,0,0,0,0-3.85,2.13,2.13,0,0,0-3.14,0Z" transform="translate(-80.75 -138.36)"/><path class="r" d="M418.76,588.17a43,43,0,0,0,8.53-6.51q2.63-2.85,2.63-5.35a3.21,3.21,0,0,0-.81-2.28,3,3,0,0,0-2.33-.86,3.09,3.09,0,0,0-2.6,1.21,5.93,5.93,0,0,0-1,3.55L418,576.34a7.35,7.35,0,0,1,2.6-5.86,9.93,9.93,0,0,1,6.55-2.08,10.12,10.12,0,0,1,4.9,1.08,7.09,7.09,0,0,1,2.93,2.77,7.25,7.25,0,0,1,1,3.63,8.87,8.87,0,0,1-2.46,6,29.83,29.83,0,0,1-7.43,5.62v0c1.55-.09,3.12-.14,4.7-.14h5.47v4.63H418.76Z" transform="translate(-80.75 -138.36)"/><path class="r" d="M450.58,568.75v23.31h-5.87V574.72a11.1,11.1,0,0,1-5.5,3l-.57-5a11.2,11.2,0,0,0,4-1.43,9,9,0,0,0,3.09-2.49Z" transform="translate(-80.75 -138.36)"/><path class="r" d="M460.9,586.83a3.41,3.41,0,0,1,0,4.7,4.43,4.43,0,0,1-5.19,0,3.43,3.43,0,0,1,0-4.7,4.39,4.39,0,0,1,5.19,0Z" transform="translate(-80.75 -138.36)"/><path class="r" d="M483.38,573.55l-5,2.33a3.34,3.34,0,0,0-3.53-2.68,3.75,3.75,0,0,0-3.22,1.85,9,9,0,0,0-1.23,5v.57h.07a4.4,4.4,0,0,1,2.08-2.28,7.47,7.47,0,0,1,3.57-.8,8.28,8.28,0,0,1,3.88.9,6.52,6.52,0,0,1,2.7,2.55,7.28,7.28,0,0,1,1,3.79,7,7,0,0,1-2.37,5.58,9.75,9.75,0,0,1-6.6,2,8.8,8.8,0,0,1-7.21-3.07q-2.5-3.08-2.5-8.94a15.16,15.16,0,0,1,1.32-6.69,9,9,0,0,1,3.62-4,10.42,10.42,0,0,1,5.3-1.31Q481.61,568.4,483.38,573.55Zm-11,8.92a3.33,3.33,0,0,0,0,4.55,3.41,3.41,0,0,0,2.42.83,3.47,3.47,0,0,0,2.46-.81,3.49,3.49,0,0,0,0-4.59,4,4,0,0,0-4.88,0Z" transform="translate(-80.75 -138.36)"/><path class="r" d="M497.39,570.22a7.32,7.32,0,0,1,0,9.64,7.18,7.18,0,0,1-9.53,0,7.35,7.35,0,0,1,0-9.64,7.15,7.15,0,0,1,9.53,0Zm-6.3,2.89a3.64,3.64,0,0,0,0,3.85,1.86,1.86,0,0,0,1.54.69,1.9,1.9,0,0,0,1.57-.69,3.64,3.64,0,0,0,0-3.85,1.9,1.9,0,0,0-1.57-.69A1.86,1.86,0,0,0,491.09,573.11Zm16.3-4.39H512l-16.21,23.34h-4.59ZM515.23,581a7.35,7.35,0,0,1,0,9.64,7.16,7.16,0,0,1-9.54,0,7.35,7.35,0,0,1,0-9.64,7.16,7.16,0,0,1,9.54,0Zm-6.34,2.9a3,3,0,0,0-.55,1.92,3,3,0,0,0,.55,1.93,2.15,2.15,0,0,0,3.14,0,3,3,0,0,0,.55-1.93,3,3,0,0,0-.55-1.92,2.13,2.13,0,0,0-3.14,0Z" transform="translate(-80.75 -138.36)"/><g class="s"><path class="t" d="M139.79,321.42v4.3h-17V304.36h16.63v4.31H128.3V313h8.81v4.05H128.3v4.37Z" transform="translate(-80.75 -138.36)"/><path class="t" d="M157.47,310.71A5.67,5.67,0,0,1,159,315v10.77h-5.5v-9.25a3.61,3.61,0,0,0-.6-2.35,2.14,2.14,0,0,0-1.7-.7,2.66,2.66,0,0,0-2.11.93,4.19,4.19,0,0,0-.81,2.83v8.54h-5.5V309.54h4.92l.16,3.11a5.62,5.62,0,0,1,2.2-2.58,6.36,6.36,0,0,1,3.34-.85A5.57,5.57,0,0,1,157.47,310.71Z" transform="translate(-80.75 -138.36)"/><path class="t" d="M174.52,324.82a7.1,7.1,0,0,1-2.05.89,9.79,9.79,0,0,1-2.51.34,6.84,6.84,0,0,1-4.4-1.23,4.88,4.88,0,0,1-1.56-3.95v-7.41h-2.78v-3.92H164v-3.62l5.51-1.53v5.15h4.85v3.92h-4.85V320a1.9,1.9,0,0,0,2.13,2.17,3.94,3.94,0,0,0,2.33-.71Z" transform="translate(-80.75 -138.36)"/><path class="t" d="M188.6,309.57l-.58,4.66a3.67,3.67,0,0,0-.87-.34,4.93,4.93,0,0,0-1.17-.14,3.64,3.64,0,0,0-2.59,1,3.75,3.75,0,0,0-1,2.84v8.15h-5.51V309.54h4.86l.23,3.5a5.64,5.64,0,0,1,1.82-2.84,4.91,4.91,0,0,1,3.1-1A3.7,3.7,0,0,1,188.6,309.57Z" transform="translate(-80.75 -138.36)"/><path class="t" d="M191.08,307a2.42,2.42,0,0,1-.76-2,2.46,2.46,0,0,1,.76-2,5.06,5.06,0,0,1,4.89,0,2.5,2.5,0,0,1,.76,2,2.46,2.46,0,0,1-.76,2,5.06,5.06,0,0,1-4.89,0Zm5.19,18.69h-5.5V309.54h5.5Z" transform="translate(-80.75 -138.36)"/><path class="t" d="M215.79,319.22h-11a3.6,3.6,0,0,0,1.12,2.23,3.42,3.42,0,0,0,2.28.71,3.82,3.82,0,0,0,2-.45,2.18,2.18,0,0,0,1-1.33l4.47,1.43A5.47,5.47,0,0,1,213,325a9.75,9.75,0,0,1-4.81,1.09,9,9,0,0,1-6.49-2.2,8.31,8.31,0,0,1-2.25-6.22,7.66,7.66,0,0,1,8.45-8.41,8,8,0,0,1,6,2.15,9.91,9.91,0,0,1,1.92,7.85Zm-11.07-3h6.09c-.26-2.11-1.26-3.17-3-3.17S205,314.13,204.72,316.24Z" transform="translate(-80.75 -138.36)"/><path class="t" d="M217.83,323.2l2.85-3.11c.93,1.53,2.52,2.3,4.79,2.3a4.15,4.15,0,0,0,1.78-.31.93.93,0,0,0,.65-.82c0-.3-.23-.57-.67-.8a10.19,10.19,0,0,0-2.28-.66,12.19,12.19,0,0,1-5.16-1.94,4,4,0,0,1-1.54-3.27,4.45,4.45,0,0,1,.87-2.62,6.12,6.12,0,0,1,2.64-2,10.79,10.79,0,0,1,4.29-.76,11.55,11.55,0,0,1,4.55.76,6.75,6.75,0,0,1,2.86,2.28L230.62,315a4.89,4.89,0,0,0-1.85-1.65,5.87,5.87,0,0,0-2.56-.52,3.77,3.77,0,0,0-1.81.36,1,1,0,0,0-.65.87c0,.33.22.6.67.83a9.26,9.26,0,0,0,2.31.66,11.94,11.94,0,0,1,5.13,1.83,4,4,0,0,1,1.57,3.32,4.58,4.58,0,0,1-2,3.83,9.43,9.43,0,0,1-5.73,1.48C222,326.05,219.38,325.1,217.83,323.2Z" transform="translate(-80.75 -138.36)"/><path class="t" d="M260.81,311.45a11.8,11.8,0,0,1,0,12.4,6,6,0,0,1-4.92,2.2,5.5,5.5,0,0,1-3.32-1,6,6,0,0,1-2.09-2.74l-.16,3.43h-4.82v-23H251v9.58a5.15,5.15,0,0,1,4.89-3A5.9,5.9,0,0,1,260.81,311.45Zm-4.54,9.48a7.29,7.29,0,0,0,0-6.6,2.65,2.65,0,0,0-2.25-1.07,2.56,2.56,0,0,0-2.21,1.1,5.41,5.41,0,0,0-.77,3.11v.32a5.21,5.21,0,0,0,.79,3.14A2.56,2.56,0,0,0,254,322,2.62,2.62,0,0,0,256.27,320.93Z" transform="translate(-80.75 -138.36)"/><path class="t" d="M275.51,325.72a17.14,17.14,0,0,1-2,4.11A6.21,6.21,0,0,1,271,332a8.52,8.52,0,0,1-3.53.66,7.33,7.33,0,0,1-4.4-1.2l1.16-3.69a2.76,2.76,0,0,0,1.15.67,6.15,6.15,0,0,0,1.64.18,3.19,3.19,0,0,0,1.58-.34,2.38,2.38,0,0,0,.94-1.22l.39-1-1.88-4.4-4.82-12.14h6.05l2.5,9.22.77,3.44.88-3.56,2.49-9.1h5.5Z" transform="translate(-80.75 -138.36)"/><path class="t" d="M305.22,310.61a5.9,5.9,0,0,1,2.3,3.62l-5.12,1.69q-.31-2.79-2.49-2.79-3.2,0-3.2,4.57t3.2,4.43c1.53,0,2.43-.87,2.69-2.62l4.95,1.59a5.27,5.27,0,0,1-2.35,3.57,9,9,0,0,1-5.26,1.38,8.94,8.94,0,0,1-6.47-2.2,9.69,9.69,0,0,1,0-12.42,8.58,8.58,0,0,1,6.27-2.21A9,9,0,0,1,305.22,310.61Z" transform="translate(-80.75 -138.36)"/><path class="t" d="M327.1,322.45l-.42,3.08a4.56,4.56,0,0,1-2.2.52q-3.5,0-4.18-2.49-1.46,2.49-5.76,2.49a5.82,5.82,0,0,1-3.72-1,3.63,3.63,0,0,1-1.3-3,4.2,4.2,0,0,1,1.48-3.35,10.77,10.77,0,0,1,4.84-2l3.65-.71v-.58a2.44,2.44,0,0,0-.61-1.75,2.21,2.21,0,0,0-1.68-.65,3.26,3.26,0,0,0-2,.59,2.83,2.83,0,0,0-1,1.91l-4.47-1.3a5.43,5.43,0,0,1,2.33-3.67,8.91,8.91,0,0,1,5.15-1.31,9.15,9.15,0,0,1,5.76,1.55,5.59,5.59,0,0,1,2,4.66v5.89q0,1.26,1.17,1.26A3.11,3.11,0,0,0,327.1,322.45Zm-8.51-.59a2,2,0,0,0,.9-1.67V318.8l-2.62.61a3.79,3.79,0,0,0-1.47.63,1.32,1.32,0,0,0-.44,1.06,1.28,1.28,0,0,0,.42,1,1.74,1.74,0,0,0,1.17.36A3.52,3.52,0,0,0,318.59,321.86Z" transform="translate(-80.75 -138.36)"/><path class="t" d="M340.4,324.82a7.1,7.1,0,0,1-2,.89,9.79,9.79,0,0,1-2.51.34,6.84,6.84,0,0,1-4.4-1.23,4.85,4.85,0,0,1-1.56-3.95v-7.41H327.1v-3.92h2.78v-3.62l5.5-1.53v5.15h4.86v3.92h-4.86V320a1.91,1.91,0,0,0,2.14,2.17,3.94,3.94,0,0,0,2.33-.71Z" transform="translate(-80.75 -138.36)"/><path class="t" d="M358.33,319.22h-11a3.54,3.54,0,0,0,1.11,2.23,3.45,3.45,0,0,0,2.29.71,3.78,3.78,0,0,0,1.95-.45,2.18,2.18,0,0,0,1-1.33l4.47,1.43A5.4,5.4,0,0,1,355.5,325a9.71,9.71,0,0,1-4.8,1.09,8.93,8.93,0,0,1-6.49-2.2,8.31,8.31,0,0,1-2.25-6.22,7.66,7.66,0,0,1,8.44-8.41,8,8,0,0,1,6,2.15,8.32,8.32,0,0,1,2.09,6A8.23,8.23,0,0,1,358.33,319.22Zm-11.07-3h6.09q-.39-3.17-3-3.17C348.62,313.07,347.59,314.13,347.26,316.24Z" transform="translate(-80.75 -138.36)"/><path class="t" d="M376.18,323.36a4.36,4.36,0,0,1,1.54,3.63,4.66,4.66,0,0,1-2.44,4.22,12.9,12.9,0,0,1-6.66,1.47,14.79,14.79,0,0,1-6.26-1,3.09,3.09,0,0,1-2-2.82,2.68,2.68,0,0,1,.74-1.87,4.4,4.4,0,0,1,2.27-1.17,3.54,3.54,0,0,1-2.49-3.37,3,3,0,0,1,.71-2,4.17,4.17,0,0,1,1.94-1.3,5,5,0,0,1-.58-8.49,10.09,10.09,0,0,1,5.82-1.44,14.3,14.3,0,0,1,3.24.35,6,6,0,0,1,1.46-3.17,4,4,0,0,1,3.14-1.23l.52,0,.61,3.66c-.43,0-.73-.06-.91-.06a3.93,3.93,0,0,0-1.82.38,2.38,2.38,0,0,0-1.06,1.07,4.71,4.71,0,0,1,2.72,4.47,4.6,4.6,0,0,1-2.07,4,10.19,10.19,0,0,1-5.83,1.43,15.13,15.13,0,0,1-3.1-.29,1.13,1.13,0,0,0-1,1.13c0,.73.57,1.1,1.69,1.1h5.5A6.79,6.79,0,0,1,376.18,323.36Zm-3.91,5.33c.74-.3,1.11-.68,1.11-1.15a.84.84,0,0,0-.45-.78,3.28,3.28,0,0,0-1.52-.26H367a4.55,4.55,0,0,0-1.89.28.89.89,0,0,0-.56.85c0,1,1.49,1.49,4.49,1.49A9.45,9.45,0,0,0,372.27,328.69ZM367,313a2.32,2.32,0,0,0-.66,1.72,2.24,2.24,0,0,0,.66,1.7,2.41,2.41,0,0,0,1.73.63,2.43,2.43,0,0,0,1.74-.63,2.24,2.24,0,0,0,.66-1.7,2.32,2.32,0,0,0-.66-1.72,2.4,2.4,0,0,0-1.74-.64A2.37,2.37,0,0,0,367,313Z" transform="translate(-80.75 -138.36)"/><path class="t" d="M394,311.43a9.67,9.67,0,0,1,0,12.4,10,10,0,0,1-12.59,0,9.67,9.67,0,0,1,0-12.4,10.07,10.07,0,0,1,12.59,0Zm-8.59,2.77a8.32,8.32,0,0,0,0,6.86,3,3,0,0,0,4.6,0,8.32,8.32,0,0,0,0-6.86,3,3,0,0,0-4.6,0Z" transform="translate(-80.75 -138.36)"/><path class="t" d="M411.12,309.57l-.58,4.66a3.67,3.67,0,0,0-.87-.34,4.93,4.93,0,0,0-1.17-.14,3.63,3.63,0,0,0-2.59,1,3.75,3.75,0,0,0-1,2.84v8.15h-5.51V309.54h4.86l.23,3.5a5.64,5.64,0,0,1,1.82-2.84,4.91,4.91,0,0,1,3.1-1A3.7,3.7,0,0,1,411.12,309.57Z" transform="translate(-80.75 -138.36)"/><path class="t" d="M423.84,325.72a16.79,16.79,0,0,1-2,4.11,6.24,6.24,0,0,1-2.53,2.19,8.47,8.47,0,0,1-3.52.66,7.34,7.34,0,0,1-4.41-1.2l1.17-3.69a2.7,2.7,0,0,0,1.15.67,6.07,6.07,0,0,0,1.63.18,3.24,3.24,0,0,0,1.59-.34,2.38,2.38,0,0,0,.94-1.22l.39-1-1.88-4.4-4.82-12.14h6.05l2.49,9.22.78,3.44.87-3.56,2.49-9.1h5.51Z" transform="translate(-80.75 -138.36)"/></g><polyline class="u" points="327.51 302.5 327.51 265.01 359.29 247.36"/><path class="t" d="M462.9,375.67h-2.68v3.84h-4v-3.84h-8.79v-2.14L454.9,362h5.32v10.52h2.68Zm-11.26-3.12h4.56v-4.66l.1-2.86h-.05a18.62,18.62,0,0,1-1.54,2.86Z" transform="translate(-80.75 -138.36)"/><path class="t" d="M469.32,375.59a2.28,2.28,0,0,1,.7,1.78,2.21,2.21,0,0,1-.7,1.74,2.78,2.78,0,0,1-1.95.64,2.74,2.74,0,0,1-1.94-.64,2.21,2.21,0,0,1-.7-1.74,2.28,2.28,0,0,1,.7-1.78,2.78,2.78,0,0,1,1.94-.63A2.82,2.82,0,0,1,469.32,375.59Z" transform="translate(-80.75 -138.36)"/><path class="t" d="M484.47,364.1q1.86,2.32,1.86,6.78c0,3-.63,5.28-1.92,6.72a6.94,6.94,0,0,1-5.49,2.18,7.88,7.88,0,0,1-4-.93,5.65,5.65,0,0,1-2.4-2.89l4.08-1.61a2.9,2.9,0,0,0,.78,1.48,2.31,2.31,0,0,0,1.63.5q3.22,0,3.23-4.95V371h-.08a2.84,2.84,0,0,1-1.51,1.71,5.89,5.89,0,0,1-2.67.59,6,6,0,0,1-2.86-.69,5.18,5.18,0,0,1-2.06-2,5.58,5.58,0,0,1-.75-2.91,5.51,5.51,0,0,1,1.79-4.36,7.33,7.33,0,0,1,5-1.57A6.48,6.48,0,0,1,484.47,364.1ZM477.13,366a2.61,2.61,0,0,0,0,3.45,2.61,2.61,0,0,0,1.84.6,2.54,2.54,0,0,0,1.83-.62,2.53,2.53,0,0,0,0-3.41,2.54,2.54,0,0,0-1.83-.63A2.62,2.62,0,0,0,477.13,366Z" transform="translate(-80.75 -138.36)"/><path class="t" d="M496.79,363.13a5.48,5.48,0,0,1,0,7.23,5.34,5.34,0,0,1-7.14,0,5.48,5.48,0,0,1,0-7.23,5.37,5.37,0,0,1,7.14,0Zm-4.72,2.17a2.25,2.25,0,0,0-.41,1.45,2.21,2.21,0,0,0,.41,1.44,1.4,1.4,0,0,0,1.15.52,1.45,1.45,0,0,0,1.18-.52,2.26,2.26,0,0,0,.41-1.44,2.31,2.31,0,0,0-.41-1.45,1.44,1.44,0,0,0-1.18-.51A1.39,1.39,0,0,0,492.07,365.3ZM504.29,362h3.44l-12.15,17.5h-3.45Zm5.88,9.17a5.52,5.52,0,0,1,0,7.23,5.35,5.35,0,0,1-7.15,0,5.52,5.52,0,0,1,0-7.23,5.38,5.38,0,0,1,7.15,0Zm-4.75,2.17a2.26,2.26,0,0,0-.42,1.45,2.21,2.21,0,0,0,.42,1.44,1.59,1.59,0,0,0,2.35,0,2.21,2.21,0,0,0,.41-1.44,2.25,2.25,0,0,0-.41-1.45,1.61,1.61,0,0,0-2.35,0Z" transform="translate(-80.75 -138.36)"/><polyline class="u" points="344.2 310.56 344.2 287.79 375.98 270.13"/><path class="t" d="M467,407.44q0-6,4.84-6c3.22,0,4.84,2,4.84,6s-1.62,6-4.84,6S467,411.44,467,407.44Zm6.24,2.79a9.27,9.27,0,0,0,0-5.58,1.59,1.59,0,0,0-2.81,0,9.27,9.27,0,0,0,0,5.58,1.6,1.6,0,0,0,2.81,0Z" transform="translate(-80.75 -138.36)"/><path class="t" d="M481.28,410.65a1.7,1.7,0,0,1,0,2.35,2.21,2.21,0,0,1-2.59,0,1.7,1.7,0,0,1,0-2.35,2.21,2.21,0,0,1,2.59,0Z" transform="translate(-80.75 -138.36)"/><path class="t" d="M491.16,401.61v2.15a11.83,11.83,0,0,0-3,4.33,14.79,14.79,0,0,0-.86,5.17h-3a13.17,13.17,0,0,1,.92-4.95A13.52,13.52,0,0,1,488.2,404h-6.62v-2.38Z" transform="translate(-80.75 -138.36)"/><path class="t" d="M497.87,402.34a3.68,3.68,0,0,1,0,4.82,3.58,3.58,0,0,1-4.77,0,3.32,3.32,0,0,1,2.39-5.73A3.22,3.22,0,0,1,497.87,402.34Zm-3.15,1.45a1.84,1.84,0,0,0,0,1.92,1,1,0,0,0,1.55,0,1.79,1.79,0,0,0,0-1.92,1.05,1.05,0,0,0-1.55,0Zm8.15-2.2h2.29l-8.1,11.67h-2.3Zm3.92,6.12a3.68,3.68,0,0,1,0,4.82,3.58,3.58,0,0,1-4.77,0,3.68,3.68,0,0,1,0-4.82,3.58,3.58,0,0,1,4.77,0Zm-3.17,1.45a1.79,1.79,0,0,0,0,1.92.93.93,0,0,0,.78.35,1,1,0,0,0,.79-.35,1.84,1.84,0,0,0,0-1.92,1,1,0,0,0-.79-.35A.93.93,0,0,0,503.62,409.16Z" transform="translate(-80.75 -138.36)"/><path class="t" d="M634.48,657.76a21.17,21.17,0,0,0,4.27-3.26,4.09,4.09,0,0,0,1.31-2.67,1.6,1.6,0,0,0-.4-1.14,1.74,1.74,0,0,0-2.47.18,2.94,2.94,0,0,0-.48,1.77l-2.6-.79a3.7,3.7,0,0,1,1.3-2.93,4.93,4.93,0,0,1,3.27-1,5.09,5.09,0,0,1,2.46.53,3.51,3.51,0,0,1,1.46,1.39,3.62,3.62,0,0,1,.48,1.82,4.45,4.45,0,0,1-1.23,3,14.66,14.66,0,0,1-3.71,2.8v0c.77,0,1.56-.07,2.35-.07h2.73v2.31h-8.74Z" transform="translate(-80.75 -138.36)"/><path class="t" d="M647.8,657.09a1.49,1.49,0,0,1,.47,1.18,1.47,1.47,0,0,1-.47,1.17,2.21,2.21,0,0,1-2.59,0,1.5,1.5,0,0,1-.47-1.17,1.52,1.52,0,0,1,.47-1.18,2.21,2.21,0,0,1,2.59,0Z" transform="translate(-80.75 -138.36)"/><path class="t" d="M653.9,648.05V659.7H651V651a5.63,5.63,0,0,1-2.75,1.48l-.28-2.51a5.69,5.69,0,0,0,2-.71,4.47,4.47,0,0,0,1.54-1.25Z" transform="translate(-80.75 -138.36)"/><path class="t" d="M661.41,648.78a3.68,3.68,0,0,1,0,4.82,3.58,3.58,0,0,1-4.77,0,3.68,3.68,0,0,1,0-4.82,3.61,3.61,0,0,1,4.77,0Zm-3.16,1.45a1.86,1.86,0,0,0,0,1.93.93.93,0,0,0,.77.34,1,1,0,0,0,.79-.34,1.86,1.86,0,0,0,0-1.93,1,1,0,0,0-.79-.34A.93.93,0,0,0,658.25,650.23Zm8.15-2.2h2.3l-8.11,11.67H658.3Zm3.92,6.12a3.68,3.68,0,0,1,0,4.82,3.18,3.18,0,0,1-2.38.91,3.22,3.22,0,0,1-2.39-.91,3.32,3.32,0,0,1,2.39-5.73A3.22,3.22,0,0,1,670.32,654.15Zm-3.17,1.45a1.84,1.84,0,0,0,0,1.92,1,1,0,0,0,.79.35.93.93,0,0,0,.78-.35,1.79,1.79,0,0,0,0-1.92.93.93,0,0,0-.78-.35A1,1,0,0,0,667.15,655.6Z" transform="translate(-80.75 -138.36)"/><line class="v" x1="509.35" y1="516.31" x2="549" y2="516.31"/><polyline class="w" points="499.1 546.03 521.88 546.03 539.53 577.81"/><path class="t" d="M643,720.15v3.23a17.76,17.76,0,0,0-4.43,6.49,22.12,22.12,0,0,0-1.3,7.76h-4.5a19.73,19.73,0,0,1,1.39-7.43,20,20,0,0,1,4.39-6.47h-9.93v-3.58Z" transform="translate(-80.75 -138.36)"/><path class="t" d="M653.09,721.25a5.52,5.52,0,0,1,0,7.23,5.38,5.38,0,0,1-7.15,0,5.52,5.52,0,0,1,0-7.23,5.38,5.38,0,0,1,7.15,0Zm-4.73,2.17a2.75,2.75,0,0,0,0,2.89,1.4,1.4,0,0,0,1.15.52,1.42,1.42,0,0,0,1.18-.52,2.75,2.75,0,0,0,0-2.89,1.41,1.41,0,0,0-1.18-.51A1.39,1.39,0,0,0,648.36,723.42Zm12.22-3.3H664l-12.16,17.51h-3.44Zm5.88,9.18a5.52,5.52,0,0,1,0,7.23,5.38,5.38,0,0,1-7.15,0,5.52,5.52,0,0,1,0-7.23,5.38,5.38,0,0,1,7.15,0Zm-4.75,2.17a2.75,2.75,0,0,0,0,2.89,1.42,1.42,0,0,0,1.18.52,1.45,1.45,0,0,0,1.18-.52,2.75,2.75,0,0,0,0-2.89,1.44,1.44,0,0,0-1.18-.51A1.41,1.41,0,0,0,661.71,731.47Z" transform="translate(-80.75 -138.36)"/><polyline class="x" points="479.05 617.22 501.82 617.22 519.48 648.99"/><path class="t" d="M605.59,798.67a21.55,21.55,0,0,0,4.27-3.26,4.13,4.13,0,0,0,1.31-2.68,1.6,1.6,0,0,0-.4-1.14,1.56,1.56,0,0,0-1.17-.43,1.58,1.58,0,0,0-1.3.61,3,3,0,0,0-.48,1.78l-2.6-.8a3.7,3.7,0,0,1,1.3-2.93,5,5,0,0,1,3.27-1,5.09,5.09,0,0,1,2.46.54,3.55,3.55,0,0,1,1.46,1.38,3.64,3.64,0,0,1,.48,1.82,4.44,4.44,0,0,1-1.23,3,14.9,14.9,0,0,1-3.71,2.81v0c.77,0,1.56-.08,2.35-.08h2.73v2.32h-8.74Z" transform="translate(-80.75 -138.36)"/><path class="t" d="M618.91,798a1.51,1.51,0,0,1,.47,1.19,1.46,1.46,0,0,1-.47,1.16,2.17,2.17,0,0,1-2.59,0,1.49,1.49,0,0,1-.47-1.16,1.54,1.54,0,0,1,.47-1.19,2.21,2.21,0,0,1,2.59,0Z" transform="translate(-80.75 -138.36)"/><path class="t" d="M628.91,789.69a2.82,2.82,0,0,1,1.17,2.39,2.52,2.52,0,0,1-.49,1.56,2.93,2.93,0,0,1-1.36,1v0a3.42,3.42,0,0,1,1.65,1.07,2.82,2.82,0,0,1,.57,1.79,2.76,2.76,0,0,1-1.26,2.39,7.37,7.37,0,0,1-7,0,2.74,2.74,0,0,1-1.27-2.39,2.82,2.82,0,0,1,.57-1.79,3.42,3.42,0,0,1,1.65-1.07v0a2.93,2.93,0,0,1-1.36-1,2.52,2.52,0,0,1-.49-1.56,2.82,2.82,0,0,1,1.17-2.39,6.26,6.26,0,0,1,6.4,0Zm-1.88,8.5a1.44,1.44,0,0,0,0-2.13,2.1,2.1,0,0,0-1.33-.38,2,2,0,0,0-1.3.38,1.42,1.42,0,0,0,0,2.13,2,2,0,0,0,1.3.39A2,2,0,0,0,627,798.19Zm-2.46-6.82a1.25,1.25,0,0,0-.4,1,1.22,1.22,0,0,0,.41,1,1.66,1.66,0,0,0,1.12.36,1.69,1.69,0,0,0,1.14-.36,1.39,1.39,0,0,0,0-2,1.74,1.74,0,0,0-1.14-.35A1.7,1.7,0,0,0,624.57,791.37Z" transform="translate(-80.75 -138.36)"/><path class="t" d="M637.44,789.69a3.68,3.68,0,0,1,0,4.82,3.22,3.22,0,0,1-2.38.91,3.26,3.26,0,0,1-2.39-.91,3.68,3.68,0,0,1,0-4.82,3.22,3.22,0,0,1,2.39-.91A3.18,3.18,0,0,1,637.44,789.69Zm-3.15,1.45a1.84,1.84,0,0,0,0,1.92,1.05,1.05,0,0,0,1.55,0,1.79,1.79,0,0,0,0-1.92,1,1,0,0,0-1.55,0Zm8.15-2.2h2.29l-8.1,11.67h-2.3Zm3.92,6.11a3.69,3.69,0,0,1,0,4.83,3.61,3.61,0,0,1-4.77,0,3.69,3.69,0,0,1,0-4.83,3.61,3.61,0,0,1,4.77,0Zm-3.17,1.45a1.86,1.86,0,0,0,0,1.93,1.08,1.08,0,0,0,1.57,0,1.86,1.86,0,0,0,0-1.93,1.08,1.08,0,0,0-1.57,0Z" transform="translate(-80.75 -138.36)"/><polyline class="y" points="472.67 642.14 495.45 642.14 513.1 673.92"/><path class="t" d="M599,819.71q0-6,4.84-6t4.83,6q0,6-4.83,6T599,819.71Zm6.24,2.79a9.27,9.27,0,0,0,0-5.58,1.59,1.59,0,0,0-2.81,0,9.27,9.27,0,0,0,0,5.58,1.59,1.59,0,0,0,2.81,0Z" transform="translate(-80.75 -138.36)"/><path class="t" d="M613.3,822.92a1.54,1.54,0,0,1,.47,1.19,1.49,1.49,0,0,1-.47,1.16,2.21,2.21,0,0,1-2.59,0,1.46,1.46,0,0,1-.47-1.16,1.51,1.51,0,0,1,.47-1.19,2.21,2.21,0,0,1,2.59,0Z" transform="translate(-80.75 -138.36)"/><path class="t" d="M623.18,813.88V816a11.8,11.8,0,0,0-2.95,4.32,14.62,14.62,0,0,0-.87,5.18h-3a13.07,13.07,0,0,1,.93-5,13.33,13.33,0,0,1,2.92-4.31h-6.62v-2.39Z" transform="translate(-80.75 -138.36)"/><path class="t" d="M629.89,814.62a3.31,3.31,0,0,1-2.39,5.72,3.21,3.21,0,0,1-2.38-.9,3.68,3.68,0,0,1,0-4.82,3.58,3.58,0,0,1,4.77,0Zm-3.15,1.44a1.8,1.8,0,0,0,0,1.93.9.9,0,0,0,.76.34,1,1,0,0,0,.79-.34,1.86,1.86,0,0,0,0-1.93,1,1,0,0,0-.79-.34A.9.9,0,0,0,626.74,816.06Zm8.14-2.19h2.3l-8.11,11.67h-2.29ZM638.8,820a3.68,3.68,0,0,1,0,4.82,3.57,3.57,0,0,1-4.76,0A3.39,3.39,0,0,1,638.8,820Zm-3.17,1.45a1.84,1.84,0,0,0,0,1.92,1,1,0,0,0,.79.35.93.93,0,0,0,.78-.35,1.79,1.79,0,0,0,0-1.92.93.93,0,0,0-.78-.34A1,1,0,0,0,635.63,821.43Z" transform="translate(-80.75 -138.36)"/><g class="z"><path class="c" d="M789.11,164.41a10.23,10.23,0,1,0-10.23-10.23,10.23,10.23,0,0,0,10.23,10.23" transform="translate(-80.75 -138.36)"/><path class="t" d="M811.77,138.4h3.91a3.67,3.67,0,0,1,3.09,1.43,5.33,5.33,0,0,1,1,3.31,6.77,6.77,0,0,1-.58,2.82,3.57,3.57,0,0,1-3.5,2.22h-3.9Zm3.65,8.65a3.58,3.58,0,0,0,1.08-.14,2.45,2.45,0,0,0,1.24-1,4.23,4.23,0,0,0,.55-1.52,5.49,5.49,0,0,0,.1-1,4.87,4.87,0,0,0-.71-2.83,2.58,2.58,0,0,0-2.27-1h-2.3v7.51Z" transform="translate(-80.75 -138.36)"/><path class="t" d="M821.4,138.4h1.22v1.36H821.4Zm0,2.68h1.22v7.1H821.4Z" transform="translate(-80.75 -138.36)"/><path class="t" d="M824.46,141.05h1.14v1.23a2.68,2.68,0,0,1,.69-.88,1.77,1.77,0,0,1,1.25-.51h.12l.27,0v1.27l-.2,0h-.19a1.69,1.69,0,0,0-1.39.59,2,2,0,0,0-.49,1.34v4.1h-1.2Z" transform="translate(-80.75 -138.36)"/><path class="t" d="M833.38,141.24a2.65,2.65,0,0,1,1.07.93,3.2,3.2,0,0,1,.48,1.25A8.36,8.36,0,0,1,835,145h-5.19a3,3,0,0,0,.51,1.74,1.69,1.69,0,0,0,1.47.66,1.92,1.92,0,0,0,1.49-.62,2.25,2.25,0,0,0,.44-.84h1.18a2.83,2.83,0,0,1-.31.88,3.61,3.61,0,0,1-.59.79,2.86,2.86,0,0,1-1.34.72,4.13,4.13,0,0,1-1,.1,3,3,0,0,1-2.25-1,3.78,3.78,0,0,1-.92-2.71,4.09,4.09,0,0,1,.93-2.79,3.07,3.07,0,0,1,2.42-1.07A3.34,3.34,0,0,1,833.38,141.24Zm.42,2.8a3.06,3.06,0,0,0-.33-1.24,1.72,1.72,0,0,0-1.63-.87,1.8,1.8,0,0,0-1.38.6,2.24,2.24,0,0,0-.58,1.51Z" transform="translate(-80.75 -138.36)"/><path class="t" d="M841.26,141.43a2.76,2.76,0,0,1,.91,2H841a2.1,2.1,0,0,0-.49-1.09,1.54,1.54,0,0,0-1.22-.44,1.68,1.68,0,0,0-1.63,1.12,4.31,4.31,0,0,0-.32,1.79,3.39,3.39,0,0,0,.45,1.8,1.55,1.55,0,0,0,1.42.73,1.58,1.58,0,0,0,1.19-.45,2.49,2.49,0,0,0,.6-1.24h1.16a2.83,2.83,0,0,1-3,2.73,2.75,2.75,0,0,1-2.23-1,3.87,3.87,0,0,1-.83-2.55,4.27,4.27,0,0,1,.91-2.92,2.94,2.94,0,0,1,2.32-1A3.09,3.09,0,0,1,841.26,141.43Z" transform="translate(-80.75 -138.36)"/><path class="t" d="M843.61,139.06h1.21v2H846v1h-1.14v4.65a.5.5,0,0,0,.26.5,1,1,0,0,0,.46.07h.19l.23,0v1a3,3,0,0,1-.43.09l-.48,0a1.29,1.29,0,0,1-1.14-.43,1.87,1.87,0,0,1-.3-1.11V142h-1v-1h1Z" transform="translate(-80.75 -138.36)"/><path class="t" d="M851.57,141.24a2.65,2.65,0,0,1,1.07.93,3.2,3.2,0,0,1,.48,1.25,8.36,8.36,0,0,1,.11,1.58H848a3,3,0,0,0,.51,1.74,1.7,1.7,0,0,0,1.47.66,1.92,1.92,0,0,0,1.49-.62,2.12,2.12,0,0,0,.44-.84h1.18a2.59,2.59,0,0,1-.31.88,3.32,3.32,0,0,1-.59.79,2.86,2.86,0,0,1-1.34.72,4.13,4.13,0,0,1-1,.1,3,3,0,0,1-2.25-1,3.78,3.78,0,0,1-.92-2.71,4.09,4.09,0,0,1,.93-2.79,3.07,3.07,0,0,1,2.42-1.07A3.34,3.34,0,0,1,851.57,141.24ZM852,144a3.22,3.22,0,0,0-.34-1.24,1.72,1.72,0,0,0-1.63-.87,1.8,1.8,0,0,0-1.38.6,2.24,2.24,0,0,0-.58,1.51Z" transform="translate(-80.75 -138.36)"/><path class="t" d="M858.66,141.27a2.89,2.89,0,0,1,.73.7v-3.61h1.15v9.82h-1.08v-1a2.63,2.63,0,0,1-1,.95,2.87,2.87,0,0,1-1.31.29,2.63,2.63,0,0,1-2-1,3.94,3.94,0,0,1-.87-2.67,4.6,4.6,0,0,1,.79-2.7,2.61,2.61,0,0,1,2.27-1.14A2.5,2.5,0,0,1,858.66,141.27ZM856,146.61a1.69,1.69,0,0,0,1.55.78,1.63,1.63,0,0,0,1.36-.72,3.43,3.43,0,0,0,.53-2,3,3,0,0,0-.55-2,1.68,1.68,0,0,0-1.36-.65,1.8,1.8,0,0,0-1.46.69,3.2,3.2,0,0,0-.56,2A3.54,3.54,0,0,0,856,146.61Z" transform="translate(-80.75 -138.36)"/><path class="t" d="M866,138.36h1.16v3.55a2.73,2.73,0,0,1,1-.78,2.63,2.63,0,0,1,1.19-.27,2.81,2.81,0,0,1,2.17.92,3.91,3.91,0,0,1,.83,2.7,4.7,4.7,0,0,1-.82,2.81,2.69,2.69,0,0,1-2.28,1.12,2.35,2.35,0,0,1-1.38-.4,3.39,3.39,0,0,1-.72-.74v.91H866Zm4.58,8.21a3.79,3.79,0,0,0,.49-2,3.4,3.4,0,0,0-.49-1.87,1.6,1.6,0,0,0-1.43-.74,2,2,0,0,0-1.43.61,2.68,2.68,0,0,0-.62,2,4.4,4.4,0,0,0,.25,1.63,1.77,1.77,0,0,0,1.77,1.18A1.6,1.6,0,0,0,870.6,146.57Z" transform="translate(-80.75 -138.36)"/><path class="t" d="M878.16,141.05h1.33c-.17.46-.55,1.5-1.13,3.13-.44,1.22-.8,2.22-1.09,3a19.15,19.15,0,0,1-1.47,3.32,1.66,1.66,0,0,1-1.46.6,2.07,2.07,0,0,1-.39,0l-.33-.07v-1.09a4,4,0,0,0,.45.1,1.06,1.06,0,0,0,.24,0,.79.79,0,0,0,.49-.11.92.92,0,0,0,.26-.26,4.22,4.22,0,0,0,.24-.55c.14-.33.24-.57.3-.73L873,141.05h1.36l1.91,5.81Z" transform="translate(-80.75 -138.36)"/><path class="t" d="M884.87,141.05l1.37,5.62,1.39-5.62H889l1.4,5.58,1.46-5.58H893L891,148.18h-1.25l-1.45-5.52-1.4,5.52h-1.25l-2.06-7.13Z" transform="translate(-80.75 -138.36)"/><path class="t" d="M894.16,138.36h1.2V142a3.59,3.59,0,0,1,.76-.76,2.63,2.63,0,0,1,1.45-.38,2.14,2.14,0,0,1,2.1,1.09,3.66,3.66,0,0,1,.3,1.64v4.58h-1.23v-4.5a2.58,2.58,0,0,0-.2-1.15,1.28,1.28,0,0,0-1.23-.58,2.07,2.07,0,0,0-1.35.51,2.48,2.48,0,0,0-.6,1.94v3.78h-1.2Z" transform="translate(-80.75 -138.36)"/><path class="t" d="M901.74,138.4H903v1.36h-1.22Zm0,2.68H903v7.1h-1.22Z" transform="translate(-80.75 -138.36)"/><path class="t" d="M905,139.06h1.21v2h1.14v1h-1.14v4.65a.5.5,0,0,0,.26.5,1,1,0,0,0,.46.07h.19l.23,0v1a3,3,0,0,1-.43.09l-.48,0a1.29,1.29,0,0,1-1.14-.43,1.87,1.87,0,0,1-.3-1.11V142h-1v-1h1Z" transform="translate(-80.75 -138.36)"/><path class="t" d="M913,141.24a2.65,2.65,0,0,1,1.07.93,3.2,3.2,0,0,1,.48,1.25,8.36,8.36,0,0,1,.11,1.58h-5.19a3,3,0,0,0,.51,1.74,1.7,1.7,0,0,0,1.47.66,1.92,1.92,0,0,0,1.49-.62,2.12,2.12,0,0,0,.44-.84h1.18a2.59,2.59,0,0,1-.31.88,3.32,3.32,0,0,1-.59.79,2.86,2.86,0,0,1-1.34.72,4.13,4.13,0,0,1-1,.1,3,3,0,0,1-2.25-1,3.78,3.78,0,0,1-.92-2.71,4.09,4.09,0,0,1,.93-2.79,3.07,3.07,0,0,1,2.42-1.07A3.34,3.34,0,0,1,913,141.24Zm.42,2.8a3.06,3.06,0,0,0-.33-1.24,1.72,1.72,0,0,0-1.63-.87,1.8,1.8,0,0,0-1.38.6,2.24,2.24,0,0,0-.58,1.51Z" transform="translate(-80.75 -138.36)"/><path class="t" d="M916.4,149.58a.85.85,0,0,0,.64-.65,1.77,1.77,0,0,0,.1-.58v-.09a.31.31,0,0,0,0-.08h-.72v-1.45h1.42v1.34a2.83,2.83,0,0,1-.32,1.39,1.44,1.44,0,0,1-1.1.74Z" transform="translate(-80.75 -138.36)"/></g><path class="t" d="M811.55,157.41h1.19v1a3.86,3.86,0,0,1,.77-.76,2.31,2.31,0,0,1,1.34-.41,2.1,2.1,0,0,1,1.37.42,2.17,2.17,0,0,1,.54.71,2.5,2.5,0,0,1,2.15-1.13,2,2,0,0,1,2,1,3.51,3.51,0,0,1,.28,1.51v4.74H819.9v-4.95a1.15,1.15,0,0,0-.36-1,1.36,1.36,0,0,0-.86-.27,1.71,1.71,0,0,0-1.22.48,2.07,2.07,0,0,0-.51,1.58v4.14h-1.22v-4.65a2.52,2.52,0,0,0-.17-1.06,1.06,1.06,0,0,0-1-.5,1.76,1.76,0,0,0-1.23.53,2.52,2.52,0,0,0-.56,1.9v3.78h-1.2Zm15.18,2.82a.64.64,0,0,0,.55-.35,1,1,0,0,0,.08-.46,1,1,0,0,0-.43-.89,2.29,2.29,0,0,0-1.25-.28,1.59,1.59,0,0,0-1.33.51,1.73,1.73,0,0,0-.28.84H823a2.06,2.06,0,0,1,.85-1.84,3.49,3.49,0,0,1,1.91-.52,3.85,3.85,0,0,1,2,.48,1.63,1.63,0,0,1,.78,1.49v4.11a.56.56,0,0,0,.08.3.38.38,0,0,0,.32.11h.18l.21,0v.89l-.42.1-.4,0a1,1,0,0,1-.9-.44,1.71,1.71,0,0,1-.21-.66,2.91,2.91,0,0,1-1,.83,3.2,3.2,0,0,1-1.51.35,2.25,2.25,0,0,1-1.62-.6,2,2,0,0,1-.63-1.5,1.91,1.91,0,0,1,.62-1.54,2.92,2.92,0,0,1,1.62-.67Zm-2.9,2.42a1,1,0,0,0,.38.82,1.39,1.39,0,0,0,.9.29,2.64,2.64,0,0,0,1.22-.29,1.64,1.64,0,0,0,1-1.59v-1a2.1,2.1,0,0,1-.56.23,4.33,4.33,0,0,1-.68.14l-.73.09a3,3,0,0,0-1,.27,1.06,1.06,0,0,0-.55,1Zm6.66-5.24h1.14v1a3.32,3.32,0,0,1,1.07-.89,2.77,2.77,0,0,1,1.26-.28,2.08,2.08,0,0,1,2,1.06,3.72,3.72,0,0,1,.29,1.66v4.57h-1.21v-4.49a2.36,2.36,0,0,0-.2-1.05,1.16,1.16,0,0,0-1.16-.67,2.22,2.22,0,0,0-.69.09,1.84,1.84,0,0,0-.87.58,1.8,1.8,0,0,0-.39.73,4.92,4.92,0,0,0-.09,1.08v3.73h-1.2Zm11.67-1.08a2.27,2.27,0,0,1,.26-1.1,1.86,1.86,0,0,1,1.62-.61h.24l.27,0v1.09l-.27,0h-.16c-.37,0-.59.1-.66.28a5.63,5.63,0,0,0-.11,1.45h1.2v.94h-1.2v6.15h-1.19v-6.15h-1v-.94h1v-1.12Zm3.54-.21v-1.36h1.2v1.36Zm0,1.33h1.2v7.09h-1.2Zm3-2.69h1.2v9.78h-1.2Zm3,2.65h1.19v1a3.86,3.86,0,0,1,.77-.76,2.31,2.31,0,0,1,1.34-.41,2.14,2.14,0,0,1,1.38.42,2.3,2.3,0,0,1,.53.71,2.5,2.5,0,0,1,2.15-1.13,2,2,0,0,1,2,1,3.51,3.51,0,0,1,.28,1.51v4.74h-1.25v-4.95a1.15,1.15,0,0,0-.36-1,1.36,1.36,0,0,0-.86-.27,1.72,1.72,0,0,0-1.22.48,2.07,2.07,0,0,0-.51,1.58v4.14h-1.22v-4.65a2.52,2.52,0,0,0-.17-1.06,1.06,1.06,0,0,0-1-.5,1.76,1.76,0,0,0-1.23.53,2.52,2.52,0,0,0-.56,1.9v3.78h-1.2Zm11.36,0h1.19v1a3.86,3.86,0,0,1,.77-.76,2.31,2.31,0,0,1,1.34-.41,2.1,2.1,0,0,1,1.37.42,2.17,2.17,0,0,1,.54.71,2.5,2.5,0,0,1,2.15-1.13,2,2,0,0,1,2,1,3.51,3.51,0,0,1,.28,1.51v4.74h-1.25v-4.95a1.15,1.15,0,0,0-.36-1,1.36,1.36,0,0,0-.86-.27,1.71,1.71,0,0,0-1.22.48,2.07,2.07,0,0,0-.51,1.58v4.14h-1.22v-4.65a2.52,2.52,0,0,0-.17-1.06,1.06,1.06,0,0,0-1-.5,1.8,1.8,0,0,0-1.24.53,2.57,2.57,0,0,0-.55,1.9v3.78h-1.2Zm15.18,2.82a.64.64,0,0,0,.55-.35,1,1,0,0,0,.08-.46,1,1,0,0,0-.43-.89,2.29,2.29,0,0,0-1.25-.28,1.59,1.59,0,0,0-1.33.51,1.73,1.73,0,0,0-.28.84h-1.12a2.06,2.06,0,0,1,.85-1.84,3.49,3.49,0,0,1,1.91-.52,3.85,3.85,0,0,1,2,.48,1.63,1.63,0,0,1,.78,1.49v4.11a.56.56,0,0,0,.08.3.37.37,0,0,0,.32.11h.18l.21,0v.89l-.42.1-.4,0a1,1,0,0,1-.9-.44,1.71,1.71,0,0,1-.21-.66,2.91,2.91,0,0,1-1,.83,3.2,3.2,0,0,1-1.51.35,2.25,2.25,0,0,1-1.62-.6,2,2,0,0,1-.63-1.5,1.91,1.91,0,0,1,.62-1.54,2.92,2.92,0,0,1,1.62-.67Zm-2.9,2.42a1,1,0,0,0,.38.82,1.39,1.39,0,0,0,.9.29,2.64,2.64,0,0,0,1.22-.29,1.64,1.64,0,0,0,1-1.59v-1a2.1,2.1,0,0,1-.56.23,4.33,4.33,0,0,1-.68.14l-.73.09a3,3,0,0,0-1,.27,1.06,1.06,0,0,0-.55,1Zm6.64-7.89h1.15v5.68l3.07-3h1.53L885,160.06l2.9,4.48h-1.54l-2.24-3.63-1,1v2.67H882Zm9.78,2.49a3.22,3.22,0,0,1,1.47.36,2.63,2.63,0,0,1,1.07.92,3.19,3.19,0,0,1,.48,1.26,8.24,8.24,0,0,1,.11,1.57h-5.19a3.05,3.05,0,0,0,.51,1.75,1.69,1.69,0,0,0,1.47.65,1.88,1.88,0,0,0,1.49-.62,2.29,2.29,0,0,0,.44-.83h1.18a2.55,2.55,0,0,1-.31.87,3.13,3.13,0,0,1-.59.79,2.7,2.7,0,0,1-1.34.72,4.11,4.11,0,0,1-1,.11,3,3,0,0,1-2.25-1,3.81,3.81,0,0,1-.92-2.72,4.12,4.12,0,0,1,.93-2.79,3.07,3.07,0,0,1,2.42-1.07Zm1.89,3.16a3.11,3.11,0,0,0-.33-1.25,1.74,1.74,0,0,0-1.63-.86,1.83,1.83,0,0,0-1.38.59,2.27,2.27,0,0,0-.58,1.52Zm2.79-3h1.13v1.23a2.85,2.85,0,0,1,.69-.87,1.75,1.75,0,0,1,1.26-.52h.11l.27,0v1.26l-.19,0h-.2a1.7,1.7,0,0,0-1.39.58,2.07,2.07,0,0,0-.49,1.34v4.1h-1.19Z" transform="translate(-80.75 -138.36)"/><g class="z"><path class="d" d="M789.11,200.2A10.23,10.23,0,1,0,778.88,190a10.22,10.22,0,0,0,10.23,10.22" transform="translate(-80.75 -138.36)"/></g><path class="t" d="M812.16,177h3.91a3.67,3.67,0,0,1,3.09,1.43,5.35,5.35,0,0,1,1,3.31,6.62,6.62,0,0,1-.58,2.82,3.56,3.56,0,0,1-3.5,2.22h-3.9Zm3.65,8.65a3.58,3.58,0,0,0,1.08-.14,2.36,2.36,0,0,0,1.24-1,4,4,0,0,0,.55-1.52,5.41,5.41,0,0,0,.1-1,4.86,4.86,0,0,0-.7-2.82,2.6,2.6,0,0,0-2.28-1h-2.3v7.51Z" transform="translate(-80.75 -138.36)"/><path class="t" d="M821.79,177H823v1.36h-1.22Zm0,2.68H823v7.1h-1.22Z" transform="translate(-80.75 -138.36)"/><path class="t" d="M824.85,179.69H826v1.23a2.85,2.85,0,0,1,.69-.87,1.75,1.75,0,0,1,1.26-.52h.11l.27,0v1.27l-.19,0h-.2a1.7,1.7,0,0,0-1.39.58,2,2,0,0,0-.49,1.34v4.1h-1.2Z" transform="translate(-80.75 -138.36)"/><path class="t" d="M833.77,179.89a2.73,2.73,0,0,1,1.08.92,3.33,3.33,0,0,1,.47,1.26,8.24,8.24,0,0,1,.11,1.57h-5.19a3.05,3.05,0,0,0,.51,1.75,1.72,1.72,0,0,0,1.47.65,1.88,1.88,0,0,0,1.49-.62,2.15,2.15,0,0,0,.44-.83h1.18a2.55,2.55,0,0,1-.31.87,3.13,3.13,0,0,1-.59.79,2.78,2.78,0,0,1-1.34.72,4.11,4.11,0,0,1-1,.11,3,3,0,0,1-2.24-1,3.77,3.77,0,0,1-.92-2.72,4.12,4.12,0,0,1,.92-2.79,3.07,3.07,0,0,1,2.42-1.07A3.22,3.22,0,0,1,833.77,179.89Zm.43,2.8a3.1,3.1,0,0,0-.34-1.25,1.74,1.74,0,0,0-1.63-.86,1.81,1.81,0,0,0-1.37.59,2.28,2.28,0,0,0-.59,1.52Z" transform="translate(-80.75 -138.36)"/><path class="t" d="M841.66,180.07a2.85,2.85,0,0,1,.91,2H841.4a2.17,2.17,0,0,0-.48-1.1,1.55,1.55,0,0,0-1.22-.43,1.68,1.68,0,0,0-1.64,1.11,4.51,4.51,0,0,0-.32,1.79,3.4,3.4,0,0,0,.45,1.81,1.57,1.57,0,0,0,1.43.73,1.54,1.54,0,0,0,1.18-.46,2.45,2.45,0,0,0,.6-1.24h1.17a3.16,3.16,0,0,1-1,2.07,3.11,3.11,0,0,1-2.05.66,2.74,2.74,0,0,1-2.23-1,4,4,0,0,1-.83-2.56,4.29,4.29,0,0,1,.91-2.92,2.94,2.94,0,0,1,2.33-1.05A3.13,3.13,0,0,1,841.66,180.07Z" transform="translate(-80.75 -138.36)"/><path class="t" d="M844,177.7h1.22v2h1.13v1h-1.13v4.65a.5.5,0,0,0,.25.5,1,1,0,0,0,.47.08h.18l.23,0v.95a2.84,2.84,0,0,1-.42.09,3.68,3.68,0,0,1-.49,0,1.32,1.32,0,0,1-1.14-.43,1.92,1.92,0,0,1-.3-1.12v-4.72h-1v-1h1Z" transform="translate(-80.75 -138.36)"/><path class="t" d="M852,179.89a2.73,2.73,0,0,1,1.08.92,3.18,3.18,0,0,1,.47,1.26,8.24,8.24,0,0,1,.11,1.57h-5.19a3.13,3.13,0,0,0,.51,1.75,1.72,1.72,0,0,0,1.48.65,1.86,1.86,0,0,0,1.48-.62,2.15,2.15,0,0,0,.44-.83h1.18a2.35,2.35,0,0,1-.31.87,2.91,2.91,0,0,1-.59.79,2.73,2.73,0,0,1-1.34.72,4,4,0,0,1-1,.11,3,3,0,0,1-2.24-1,3.77,3.77,0,0,1-.92-2.72,4.17,4.17,0,0,1,.92-2.79,3.08,3.08,0,0,1,2.43-1.07A3.18,3.18,0,0,1,852,179.89Zm.43,2.8a3.1,3.1,0,0,0-.34-1.25,1.73,1.73,0,0,0-1.63-.86,1.81,1.81,0,0,0-1.37.59,2.28,2.28,0,0,0-.59,1.52Z" transform="translate(-80.75 -138.36)"/><path class="t" d="M859.06,179.91a3.27,3.27,0,0,1,.72.7V177h1.15v9.81h-1.08v-1a2.55,2.55,0,0,1-1,.95,2.74,2.74,0,0,1-1.3.3,2.66,2.66,0,0,1-2.06-1,3.89,3.89,0,0,1-.87-2.66,4.67,4.67,0,0,1,.79-2.7,2.61,2.61,0,0,1,2.27-1.15A2.56,2.56,0,0,1,859.06,179.91Zm-2.68,5.35a1.7,1.7,0,0,0,1.55.77,1.62,1.62,0,0,0,1.36-.72,3.34,3.34,0,0,0,.54-2.05,3.08,3.08,0,0,0-.55-2,1.73,1.73,0,0,0-1.36-.65,1.79,1.79,0,0,0-1.46.69,3.14,3.14,0,0,0-.56,2A3.6,3.6,0,0,0,856.38,185.26Z" transform="translate(-80.75 -138.36)"/><path class="t" d="M866.41,177h1.17v3.55a2.6,2.6,0,0,1,2.13-1.06,2.81,2.81,0,0,1,2.17.92,3.91,3.91,0,0,1,.83,2.7,4.61,4.61,0,0,1-.82,2.81,2.67,2.67,0,0,1-2.28,1.12,2.36,2.36,0,0,1-1.38-.39,3.46,3.46,0,0,1-.71-.75v.91h-1.11Zm4.58,8.21a3.76,3.76,0,0,0,.49-2,3.26,3.26,0,0,0-.49-1.86,1.57,1.57,0,0,0-1.42-.74,2,2,0,0,0-1.44.6,2.74,2.74,0,0,0-.62,2,4.4,4.4,0,0,0,.25,1.63,1.76,1.76,0,0,0,1.77,1.18A1.61,1.61,0,0,0,871,185.22Z" transform="translate(-80.75 -138.36)"/><path class="t" d="M878.55,179.69h1.33c-.17.46-.55,1.5-1.13,3.13-.43,1.23-.8,2.23-1.09,3a20.61,20.61,0,0,1-1.46,3.33,1.69,1.69,0,0,1-1.47.6l-.39,0-.33-.08v-1.09l.45.11.25,0a.85.85,0,0,0,.48-.11,1.15,1.15,0,0,0,.27-.27l.24-.55c.13-.32.23-.57.3-.73l-2.64-7.34h1.36l1.91,5.81Z" transform="translate(-80.75 -138.36)"/><path class="t" d="M888.52,182.51a.67.67,0,0,0,.56-.35,1.12,1.12,0,0,0,.08-.46,1,1,0,0,0-.44-.89,2.26,2.26,0,0,0-1.24-.28,1.57,1.57,0,0,0-1.33.51,1.72,1.72,0,0,0-.29.84h-1.12a2,2,0,0,1,.86-1.84,3.43,3.43,0,0,1,1.9-.52,3.85,3.85,0,0,1,2,.48,1.62,1.62,0,0,1,.78,1.49v4.11a.56.56,0,0,0,.08.3.38.38,0,0,0,.32.11h.18l.21,0v.89l-.42.1-.4,0a1,1,0,0,1-.9-.44,1.71,1.71,0,0,1-.21-.66,3,3,0,0,1-1,.83,3.32,3.32,0,0,1-1.51.35,2.25,2.25,0,0,1-1.62-.6,2,2,0,0,1-.63-1.51,1.93,1.93,0,0,1,.62-1.53,2.85,2.85,0,0,1,1.62-.67ZM886,185.74a1.4,1.4,0,0,0,.9.3,2.64,2.64,0,0,0,1.22-.29,1.64,1.64,0,0,0,1-1.59v-1a2,2,0,0,1-.56.23,5.87,5.87,0,0,1-.68.14l-.72.09a2.92,2.92,0,0,0-1,.27,1.07,1.07,0,0,0-.56,1A1,1,0,0,0,886,185.74Z" transform="translate(-80.75 -138.36)"/><path class="t" d="M896.63,179.69l1.37,5.62,1.39-5.62h1.35l1.4,5.59,1.46-5.59h1.19l-2.07,7.13h-1.24L900,181.3l-1.41,5.52h-1.24l-2.06-7.13Z" transform="translate(-80.75 -138.36)"/><path class="t" d="M911.09,180.4a3.62,3.62,0,0,1,.95,2.7,4.63,4.63,0,0,1-.84,2.85,3,3,0,0,1-2.58,1.13,2.91,2.91,0,0,1-2.32-1,3.9,3.9,0,0,1-.86-2.67,4.28,4.28,0,0,1,.9-2.86,3.05,3.05,0,0,1,2.44-1.07A3.2,3.2,0,0,1,911.09,180.4Zm-.74,4.74a4.54,4.54,0,0,0,.43-2,3.64,3.64,0,0,0-.31-1.63,1.79,1.79,0,0,0-1.73-1,1.7,1.7,0,0,0-1.58.84,3.9,3.9,0,0,0-.49,2,3.42,3.42,0,0,0,.49,1.9,1.74,1.74,0,0,0,1.57.75A1.65,1.65,0,0,0,910.35,185.14Z" transform="translate(-80.75 -138.36)"/><path class="t" d="M913.51,179.69h1.18v1a4.15,4.15,0,0,1,.77-.76,2.36,2.36,0,0,1,1.35-.41,2.11,2.11,0,0,1,1.37.42,2.16,2.16,0,0,1,.53.71,2.51,2.51,0,0,1,.94-.85,2.57,2.57,0,0,1,1.21-.28,2,2,0,0,1,2,1,3.33,3.33,0,0,1,.28,1.51v4.74h-1.24v-4.95a1.15,1.15,0,0,0-.36-1,1.41,1.41,0,0,0-.87-.27,1.7,1.7,0,0,0-1.21.48,2.06,2.06,0,0,0-.51,1.57v4.15h-1.22v-4.65a2.49,2.49,0,0,0-.17-1.06,1.08,1.08,0,0,0-1-.5,1.76,1.76,0,0,0-1.24.53,2.57,2.57,0,0,0-.55,1.9v3.78h-1.2Z" transform="translate(-80.75 -138.36)"/><path class="t" d="M928.69,182.51a.65.65,0,0,0,.55-.35,1.12,1.12,0,0,0,.08-.46,1,1,0,0,0-.43-.89,2.29,2.29,0,0,0-1.25-.28,1.58,1.58,0,0,0-1.33.51,1.73,1.73,0,0,0-.28.84h-1.12a2,2,0,0,1,.85-1.84,3.46,3.46,0,0,1,1.91-.52,3.87,3.87,0,0,1,2,.48,1.62,1.62,0,0,1,.78,1.49v4.11a.56.56,0,0,0,.07.3.39.39,0,0,0,.33.11h.18l.21,0v.89l-.43.1-.4,0a1,1,0,0,1-.9-.44,1.91,1.91,0,0,1-.2-.66,3.22,3.22,0,0,1-1.05.83,3.35,3.35,0,0,1-1.51.35,2.26,2.26,0,0,1-1.63-.6,2,2,0,0,1-.63-1.51,1.93,1.93,0,0,1,.62-1.53,2.91,2.91,0,0,1,1.63-.67Zm-2.52,3.23a1.39,1.39,0,0,0,.89.3,2.68,2.68,0,0,0,1.23-.29,1.64,1.64,0,0,0,1-1.59v-1a2.18,2.18,0,0,1-.57.23,5.72,5.72,0,0,1-.67.14l-.73.09a3,3,0,0,0-1,.27,1.06,1.06,0,0,0-.55,1A1,1,0,0,0,926.17,185.74Z" transform="translate(-80.75 -138.36)"/><path class="t" d="M932.45,179.69h1.14v1a3.38,3.38,0,0,1,1.07-.9,2.91,2.91,0,0,1,1.26-.27,2.06,2.06,0,0,1,2.05,1.06,3.72,3.72,0,0,1,.29,1.66v4.57h-1.21v-4.49a2.36,2.36,0,0,0-.2-1.05,1.16,1.16,0,0,0-1.16-.67,2.22,2.22,0,0,0-.69.09,1.77,1.77,0,0,0-.87.58,1.8,1.8,0,0,0-.39.73,4.92,4.92,0,0,0-.09,1.08v3.73h-1.2Z" transform="translate(-80.75 -138.36)"/><path class="t" d="M812.24,195a2.2,2.2,0,0,1,.26-1.09,1.83,1.83,0,0,1,1.62-.61h.23l.28,0v1.09h-.43c-.37,0-.59.1-.66.29a5.14,5.14,0,0,0-.11,1.44h1.2V197h-1.2v6.16h-1.19V197h-1v-.94h1V195Zm3.54-.21v-1.35H817v1.35Zm0,1.33H817v7.1h-1.2Zm3-2.68H820v9.78h-1.2Zm3,2.65H823v1a4.26,4.26,0,0,1,.78-.77,2.3,2.3,0,0,1,1.34-.4,2.1,2.1,0,0,1,1.37.42,2.12,2.12,0,0,1,.54.7,2.58,2.58,0,0,1,.93-.85,2.7,2.7,0,0,1,1.22-.27,2,2,0,0,1,2,1,3.39,3.39,0,0,1,.28,1.51v4.75h-1.24v-5a1.16,1.16,0,0,0-.36-1,1.47,1.47,0,0,0-.87-.26,1.73,1.73,0,0,0-1.21.47,2.08,2.08,0,0,0-.51,1.58v4.15H826v-4.66a2.55,2.55,0,0,0-.17-1.06,1.07,1.07,0,0,0-1-.5,1.78,1.78,0,0,0-1.24.53,2.59,2.59,0,0,0-.55,1.91v3.78h-1.2Zm11.36,0h1.18v1a4,4,0,0,1,.78-.77,2.3,2.3,0,0,1,1.34-.4,2.1,2.1,0,0,1,1.37.42,2,2,0,0,1,.53.7,2.46,2.46,0,0,1,2.16-1.12,2,2,0,0,1,2,1,3.39,3.39,0,0,1,.28,1.51v4.75H841.5v-5a1.16,1.16,0,0,0-.36-1,1.47,1.47,0,0,0-.87-.26,1.73,1.73,0,0,0-1.21.47,2.08,2.08,0,0,0-.51,1.58v4.15h-1.22v-4.66a2.55,2.55,0,0,0-.17-1.06,1.08,1.08,0,0,0-1-.5,1.76,1.76,0,0,0-1.24.53,2.59,2.59,0,0,0-.55,1.91v3.78h-1.2Zm15.18,2.81a.64.64,0,0,0,.55-.34,1,1,0,0,0,.08-.47,1,1,0,0,0-.43-.89,2.39,2.39,0,0,0-1.25-.28,1.58,1.58,0,0,0-1.33.51,1.73,1.73,0,0,0-.28.84h-1.12a2.06,2.06,0,0,1,.85-1.84,3.55,3.55,0,0,1,1.91-.52,3.85,3.85,0,0,1,2,.48,1.63,1.63,0,0,1,.78,1.49V202a.51.51,0,0,0,.07.3c0,.08.16.11.33.11h.18l.21,0v.89a3.41,3.41,0,0,1-.43.1l-.4,0a1,1,0,0,1-.9-.44,1.78,1.78,0,0,1-.2-.66,3.09,3.09,0,0,1-1,.83,3.22,3.22,0,0,1-1.52.36,2.22,2.22,0,0,1-1.62-.61,2.16,2.16,0,0,1,0-3,3,3,0,0,1,1.63-.67Zm-2.9,2.42a1,1,0,0,0,.38.82,1.39,1.39,0,0,0,.89.3,2.81,2.81,0,0,0,1.23-.29,1.65,1.65,0,0,0,1-1.59v-1a2.17,2.17,0,0,1-.57.24,5.64,5.64,0,0,1-.67.13L847,200a2.74,2.74,0,0,0-1,.28,1,1,0,0,0-.55,1Zm6.63-7.88h1.15v5.67l3.08-3h1.53l-2.74,2.65,2.89,4.48h-1.53l-2.24-3.63-1,.95v2.68h-1.15Zm9.79,2.49a3.17,3.17,0,0,1,1.46.35,2.82,2.82,0,0,1,1.08.92,3.19,3.19,0,0,1,.48,1.26A8.51,8.51,0,0,1,865,200h-5.18a3.05,3.05,0,0,0,.51,1.75,1.67,1.67,0,0,0,1.47.66,1.92,1.92,0,0,0,1.49-.62,2.25,2.25,0,0,0,.44-.84h1.17a2.46,2.46,0,0,1-.31.88,3,3,0,0,1-.58.78,2.7,2.7,0,0,1-1.34.72,4.13,4.13,0,0,1-1,.11,3,3,0,0,1-2.24-1,3.78,3.78,0,0,1-.92-2.71,4.09,4.09,0,0,1,.93-2.79,3,3,0,0,1,2.42-1.07Zm1.89,3.15a3.23,3.23,0,0,0-.33-1.24,1.73,1.73,0,0,0-1.64-.87,1.8,1.8,0,0,0-1.37.6,2.28,2.28,0,0,0-.59,1.51Zm2.78-3h1.14v1.23a2.68,2.68,0,0,1,.69-.88,1.78,1.78,0,0,1,1.26-.51h.11l.27,0v1.26l-.19,0h-.2a1.73,1.73,0,0,0-1.39.58,2,2,0,0,0-.49,1.35v4.1h-1.2Z" transform="translate(-80.75 -138.36)"/><g class="z"><path class="aa" d="M789.14,241.11a10.23,10.23,0,1,0-10.23-10.22,10.22,10.22,0,0,0,10.23,10.22" transform="translate(-80.75 -138.36)"/></g><path class="t" d="M812.2,218h3.91a3.67,3.67,0,0,1,3.08,1.43,5.29,5.29,0,0,1,1,3.31,6.62,6.62,0,0,1-.58,2.82,3.55,3.55,0,0,1-3.5,2.22H812.2Zm3.65,8.65a3.68,3.68,0,0,0,1.08-.14,2.33,2.33,0,0,0,1.23-1,4.16,4.16,0,0,0,.56-1.52,6.38,6.38,0,0,0,.1-1,4.86,4.86,0,0,0-.71-2.82,2.59,2.59,0,0,0-2.28-1h-2.29v7.51Z" transform="translate(-80.75 -138.36)"/><path class="t" d="M821.82,218H823v1.36h-1.22Zm0,2.68H823v7.1h-1.22Z" transform="translate(-80.75 -138.36)"/><path class="t" d="M824.89,220.6H826v1.23a2.64,2.64,0,0,1,.68-.87,1.78,1.78,0,0,1,1.26-.52h.11l.28,0v1.26l-.2,0H828a1.71,1.71,0,0,0-1.39.58,2,2,0,0,0-.48,1.34v4.1h-1.2Z" transform="translate(-80.75 -138.36)"/><path class="t" d="M833.8,220.8a2.73,2.73,0,0,1,1.08.92,3.19,3.19,0,0,1,.48,1.26,8.44,8.44,0,0,1,.1,1.57h-5.19a3.21,3.21,0,0,0,.51,1.75,1.72,1.72,0,0,0,1.48.65,1.86,1.86,0,0,0,1.48-.62,2,2,0,0,0,.44-.83h1.18a2.35,2.35,0,0,1-.31.87,2.91,2.91,0,0,1-.59.79,2.73,2.73,0,0,1-1.34.72,4,4,0,0,1-1,.11,3,3,0,0,1-2.24-1,3.81,3.81,0,0,1-.92-2.72,4.12,4.12,0,0,1,.93-2.79,3,3,0,0,1,2.42-1.07A3.18,3.18,0,0,1,833.8,220.8Zm.43,2.8a3.1,3.1,0,0,0-.34-1.25,1.73,1.73,0,0,0-1.63-.86,1.82,1.82,0,0,0-1.37.59,2.28,2.28,0,0,0-.59,1.52Z" transform="translate(-80.75 -138.36)"/><path class="t" d="M841.69,221a2.81,2.81,0,0,1,.91,2h-1.17a2.17,2.17,0,0,0-.48-1.1,1.53,1.53,0,0,0-1.22-.43,1.69,1.69,0,0,0-1.64,1.11,4.51,4.51,0,0,0-.32,1.79,3.4,3.4,0,0,0,.45,1.81,1.58,1.58,0,0,0,1.43.73,1.53,1.53,0,0,0,1.18-.46,2.45,2.45,0,0,0,.6-1.24h1.17a2.83,2.83,0,0,1-3,2.73,2.71,2.71,0,0,1-2.23-1,3.91,3.91,0,0,1-.84-2.56,4.29,4.29,0,0,1,.92-2.92,2.92,2.92,0,0,1,2.32-1A3.11,3.11,0,0,1,841.69,221Z" transform="translate(-80.75 -138.36)"/><path class="t" d="M844,218.61h1.21v2h1.14v1h-1.14v4.65a.5.5,0,0,0,.25.5,1.07,1.07,0,0,0,.47.08h.19l.23,0v.95a3,3,0,0,1-.43.09,3.64,3.64,0,0,1-.48,0,1.32,1.32,0,0,1-1.14-.43,1.92,1.92,0,0,1-.3-1.12v-4.72h-1v-1h1Z" transform="translate(-80.75 -138.36)"/><path class="t" d="M852,220.8a2.73,2.73,0,0,1,1.08.92,3.19,3.19,0,0,1,.48,1.26,8.44,8.44,0,0,1,.1,1.57h-5.18a3.13,3.13,0,0,0,.5,1.75,1.72,1.72,0,0,0,1.48.65,1.86,1.86,0,0,0,1.48-.62,2,2,0,0,0,.44-.83h1.18a2.35,2.35,0,0,1-.31.87,3.11,3.11,0,0,1-.58.79,2.82,2.82,0,0,1-1.34.72,4.13,4.13,0,0,1-1,.11,3,3,0,0,1-2.24-1,3.81,3.81,0,0,1-.92-2.72,4.12,4.12,0,0,1,.93-2.79,3,3,0,0,1,2.42-1.07A3.18,3.18,0,0,1,852,220.8Zm.43,2.8a3.1,3.1,0,0,0-.34-1.25,1.73,1.73,0,0,0-1.63-.86,1.82,1.82,0,0,0-1.37.59,2.28,2.28,0,0,0-.59,1.52Z" transform="translate(-80.75 -138.36)"/><path class="t" d="M859.09,220.82a3.27,3.27,0,0,1,.72.7v-3.6H861v9.81h-1.08v-1a2.47,2.47,0,0,1-1,.95,2.78,2.78,0,0,1-1.31.3,2.66,2.66,0,0,1-2.06-1,3.89,3.89,0,0,1-.86-2.66,4.6,4.6,0,0,1,.79-2.7,2.59,2.59,0,0,1,2.26-1.14A2.53,2.53,0,0,1,859.09,220.82Zm-2.68,5.35a1.71,1.71,0,0,0,1.55.77,1.64,1.64,0,0,0,1.37-.72,3.41,3.41,0,0,0,.53-2.05,3.08,3.08,0,0,0-.55-2,1.73,1.73,0,0,0-1.36-.65,1.79,1.79,0,0,0-1.46.69,3.2,3.2,0,0,0-.56,2A3.6,3.6,0,0,0,856.41,226.17Z" transform="translate(-80.75 -138.36)"/><path class="t" d="M866.44,217.92h1.17v3.55a2.72,2.72,0,0,1,.94-.79,2.66,2.66,0,0,1,1.19-.26,2.79,2.79,0,0,1,2.17.91,3.86,3.86,0,0,1,.83,2.7,4.61,4.61,0,0,1-.82,2.81,2.67,2.67,0,0,1-2.28,1.12,2.38,2.38,0,0,1-1.38-.39,3.46,3.46,0,0,1-.71-.75v.91h-1.11Zm4.59,8.21a3.85,3.85,0,0,0,.48-2,3.34,3.34,0,0,0-.48-1.86,1.59,1.59,0,0,0-1.43-.74,2,2,0,0,0-1.44.6,2.74,2.74,0,0,0-.62,2,4.38,4.38,0,0,0,.26,1.63,1.74,1.74,0,0,0,1.77,1.18A1.62,1.62,0,0,0,871,226.13Z" transform="translate(-80.75 -138.36)"/><path class="t" d="M878.59,220.6h1.32c-.17.46-.54,1.5-1.12,3.13-.44,1.23-.8,2.23-1.1,3a20.61,20.61,0,0,1-1.46,3.33,1.66,1.66,0,0,1-1.46.6l-.39,0-.34-.08v-1.09l.45.11.25,0a.91.91,0,0,0,.49-.11,1.33,1.33,0,0,0,.26-.27l.24-.55c.14-.32.24-.57.3-.73l-2.64-7.34h1.36l1.91,5.81Z" transform="translate(-80.75 -138.36)"/><path class="t" d="M888.56,223.42a.65.65,0,0,0,.55-.35,1.12,1.12,0,0,0,.08-.46,1,1,0,0,0-.44-.89,2.26,2.26,0,0,0-1.24-.28,1.57,1.57,0,0,0-1.33.51,1.72,1.72,0,0,0-.29.84h-1.11a2,2,0,0,1,.85-1.84,3.46,3.46,0,0,1,1.91-.52,3.9,3.9,0,0,1,2,.48,1.62,1.62,0,0,1,.78,1.49v4.11a.56.56,0,0,0,.07.3.38.38,0,0,0,.32.11h.18l.22,0v.89l-.43.1-.4,0a1,1,0,0,1-.9-.44,1.91,1.91,0,0,1-.2-.66,3.22,3.22,0,0,1-1.05.83,3.36,3.36,0,0,1-1.52.35,2.25,2.25,0,0,1-1.62-.6,2,2,0,0,1-.63-1.51,1.93,1.93,0,0,1,.62-1.53,2.88,2.88,0,0,1,1.63-.67ZM886,226.65a1.44,1.44,0,0,0,.9.3,2.71,2.71,0,0,0,1.23-.29,1.65,1.65,0,0,0,1-1.59v-1a2.18,2.18,0,0,1-.57.23,5.47,5.47,0,0,1-.68.14l-.72.09a3,3,0,0,0-1,.27,1.07,1.07,0,0,0-.56,1A1,1,0,0,0,886,226.65Z" transform="translate(-80.75 -138.36)"/><path class="t" d="M896.24,218h4.22a2.78,2.78,0,0,1,2.46,1,2.33,2.33,0,0,1,.43,1.4,2.18,2.18,0,0,1-.52,1.51,2.84,2.84,0,0,1-.79.58,3.36,3.36,0,0,1,1.13.64,2.36,2.36,0,0,1,.66,1.77,2.7,2.7,0,0,1-.6,1.71,3.37,3.37,0,0,1-2.83,1.14h-4.16Zm3.73,4.14a3,3,0,0,0,1.32-.24,1.33,1.33,0,0,0,.74-1.31,1.28,1.28,0,0,0-.79-1.3,3.72,3.72,0,0,0-1.32-.18h-2.39v3Zm.45,4.51a2,2,0,0,0,1.75-.7,1.78,1.78,0,0,0,.33-1.08,1.45,1.45,0,0,0-1-1.46,3.84,3.84,0,0,0-1.35-.2h-2.66v3.44Z" transform="translate(-80.75 -138.36)"/><path class="t" d="M905.24,218h1.2v9.78h-1.2Z" transform="translate(-80.75 -138.36)"/><path class="t" d="M912.06,223.42a.67.67,0,0,0,.55-.35,1.12,1.12,0,0,0,.08-.46,1,1,0,0,0-.44-.89,2.26,2.26,0,0,0-1.24-.28,1.57,1.57,0,0,0-1.33.51,1.72,1.72,0,0,0-.29.84h-1.12a2.07,2.07,0,0,1,.86-1.84,3.45,3.45,0,0,1,1.9-.52,3.91,3.91,0,0,1,2.05.48,1.63,1.63,0,0,1,.77,1.49v4.11a.56.56,0,0,0,.08.3.38.38,0,0,0,.32.11h.18l.22,0v.89l-.43.1-.4,0a1,1,0,0,1-.9-.44,1.71,1.71,0,0,1-.21-.66,3,3,0,0,1-1.05.83,3.29,3.29,0,0,1-1.51.35,2.25,2.25,0,0,1-1.62-.6,2,2,0,0,1-.63-1.51,1.93,1.93,0,0,1,.62-1.53,2.85,2.85,0,0,1,1.62-.67Zm-2.53,3.23a1.42,1.42,0,0,0,.9.3,2.71,2.71,0,0,0,1.23-.29,1.64,1.64,0,0,0,1-1.59v-1a2,2,0,0,1-.56.23,5.87,5.87,0,0,1-.68.14l-.72.09a2.92,2.92,0,0,0-1,.27,1.07,1.07,0,0,0-.56,1A1,1,0,0,0,909.53,226.65Z" transform="translate(-80.75 -138.36)"/><path class="t" d="M920.53,221a2.85,2.85,0,0,1,.91,2h-1.17a2.17,2.17,0,0,0-.48-1.1,1.55,1.55,0,0,0-1.22-.43,1.68,1.68,0,0,0-1.64,1.11,4.51,4.51,0,0,0-.32,1.79,3.4,3.4,0,0,0,.45,1.81,1.57,1.57,0,0,0,1.43.73,1.54,1.54,0,0,0,1.18-.46,2.45,2.45,0,0,0,.6-1.24h1.17a3.16,3.16,0,0,1-1,2.07,3.11,3.11,0,0,1-2.05.66,2.74,2.74,0,0,1-2.23-1,4,4,0,0,1-.83-2.56,4.34,4.34,0,0,1,.91-2.92,3,3,0,0,1,2.33-1A3.13,3.13,0,0,1,920.53,221Z" transform="translate(-80.75 -138.36)"/><path class="t" d="M922.61,218h1.15v5.68l3.07-3h1.54l-2.75,2.65,2.9,4.48H927l-2.24-3.63-1,1v2.67h-1.15Z" transform="translate(-80.75 -138.36)"/><path class="t" d="M812.28,235.88a2,2,0,0,1,.26-1.09,1.81,1.81,0,0,1,1.61-.61h.24l.27,0v1.1l-.27,0h-.16c-.37,0-.59.09-.66.28a5.59,5.59,0,0,0-.11,1.44h1.2V238h-1.2v6.15h-1.18V238h-1V237h1v-1.12Zm3.53-.21v-1.35H817v1.35Zm0,1.33H817v7.1h-1.2Zm3-2.68H820v9.78h-1.2Zm3,2.65H823v1a4,4,0,0,1,.77-.77,2.33,2.33,0,0,1,1.35-.4,2.13,2.13,0,0,1,1.37.42,2.25,2.25,0,0,1,.53.7,2.69,2.69,0,0,1,.94-.85,2.66,2.66,0,0,1,1.21-.27,2,2,0,0,1,2,1,3.46,3.46,0,0,1,.28,1.5v4.75h-1.25v-5a1.19,1.19,0,0,0-.35-1,1.47,1.47,0,0,0-.87-.26,1.76,1.76,0,0,0-1.22.47,2.08,2.08,0,0,0-.51,1.58v4.15H826v-4.66a2.4,2.4,0,0,0-.17-1.06,1.05,1.05,0,0,0-1-.49,1.75,1.75,0,0,0-1.23.52,2.59,2.59,0,0,0-.56,1.91v3.78h-1.2Zm11.36,0h1.19v1a4,4,0,0,1,.77-.77,2.3,2.3,0,0,1,1.34-.4,2.14,2.14,0,0,1,1.38.42,2.25,2.25,0,0,1,.53.7,2.69,2.69,0,0,1,.94-.85,2.66,2.66,0,0,1,1.21-.27,2,2,0,0,1,2,1,3.46,3.46,0,0,1,.28,1.5v4.75h-1.25v-5a1.19,1.19,0,0,0-.35-1,1.47,1.47,0,0,0-.87-.26,1.76,1.76,0,0,0-1.22.47,2.08,2.08,0,0,0-.51,1.58v4.15h-1.22v-4.66a2.4,2.4,0,0,0-.17-1.06,1.05,1.05,0,0,0-1-.49,1.75,1.75,0,0,0-1.23.52,2.59,2.59,0,0,0-.56,1.91v3.78h-1.2Zm15.18,2.81a.66.66,0,0,0,.56-.34A1.12,1.12,0,0,0,849,239a1,1,0,0,0-.44-.9,2.37,2.37,0,0,0-1.25-.27,1.56,1.56,0,0,0-1.32.5,1.63,1.63,0,0,0-.29.84h-1.12a2.07,2.07,0,0,1,.86-1.84,3.51,3.51,0,0,1,1.9-.52,3.85,3.85,0,0,1,2,.48,1.63,1.63,0,0,1,.78,1.49v4.11a.51.51,0,0,0,.08.3.36.36,0,0,0,.32.12h.18l.21,0v.88a3.35,3.35,0,0,1-.42.1l-.4,0a1,1,0,0,1-.9-.44,1.6,1.6,0,0,1-.21-.66,2.91,2.91,0,0,1-1,.83,3.21,3.21,0,0,1-1.51.36,2.25,2.25,0,0,1-1.62-.6,2,2,0,0,1-.63-1.51,1.93,1.93,0,0,1,.62-1.54,3,3,0,0,1,1.62-.67Zm-2.9,2.42a1,1,0,0,0,.38.82,1.4,1.4,0,0,0,.9.3A2.77,2.77,0,0,0,848,243a1.65,1.65,0,0,0,1-1.59v-1a2,2,0,0,1-.56.24,5.79,5.79,0,0,1-.68.13l-.72.09a2.62,2.62,0,0,0-1,.28,1.05,1.05,0,0,0-.56,1Zm6.64-7.88h1.15V240l3.07-3h1.53l-2.74,2.65,2.9,4.48h-1.53l-2.25-3.63-1,.95v2.68H852.1Zm9.78,2.49a3.34,3.34,0,0,1,1.47.35,2.82,2.82,0,0,1,1.08.92,3.33,3.33,0,0,1,.47,1.26,8.31,8.31,0,0,1,.11,1.57h-5.19a3.05,3.05,0,0,0,.51,1.75,1.7,1.7,0,0,0,1.47.66,1.92,1.92,0,0,0,1.49-.62,2.12,2.12,0,0,0,.44-.84h1.18a2.67,2.67,0,0,1-.31.88,3.32,3.32,0,0,1-.59.79,2.76,2.76,0,0,1-1.34.71,3.64,3.64,0,0,1-1,.11,3,3,0,0,1-2.24-1,3.74,3.74,0,0,1-.92-2.71,4.08,4.08,0,0,1,.92-2.79,3,3,0,0,1,2.42-1.07Zm1.9,3.15a3.05,3.05,0,0,0-.34-1.24,1.72,1.72,0,0,0-1.63-.87,1.77,1.77,0,0,0-1.37.6,2.25,2.25,0,0,0-.59,1.51Zm2.78-3h1.14v1.23a2.76,2.76,0,0,1,.68-.88,1.81,1.81,0,0,1,1.26-.51h.11l.28,0v1.26l-.2,0h-.2a1.74,1.74,0,0,0-1.39.58,2.07,2.07,0,0,0-.48,1.35v4.1h-1.2Z" transform="translate(-80.75 -138.36)"/><g class="z"><path class="ab" d="M789.11,282a10.23,10.23,0,1,0-10.23-10.23A10.23,10.23,0,0,0,789.11,282" transform="translate(-80.75 -138.36)"/></g><path class="t" d="M812.16,258.86h3.91a3.67,3.67,0,0,1,3.09,1.43,5.37,5.37,0,0,1,1,3.31,6.62,6.62,0,0,1-.58,2.82,3.56,3.56,0,0,1-3.5,2.22h-3.9Zm3.65,8.65a3.29,3.29,0,0,0,1.08-.14,2.32,2.32,0,0,0,1.24-1,4,4,0,0,0,.55-1.51,5.51,5.51,0,0,0,.1-1,4.86,4.86,0,0,0-.7-2.82,2.6,2.6,0,0,0-2.28-1h-2.3v7.51Z" transform="translate(-80.75 -138.36)"/><path class="t" d="M821.79,258.86H823v1.36h-1.22Zm0,2.69H823v7.09h-1.22Z" transform="translate(-80.75 -138.36)"/><path class="t" d="M824.85,261.51H826v1.23a2.85,2.85,0,0,1,.69-.87,1.75,1.75,0,0,1,1.26-.52h.11l.27,0v1.26l-.19,0h-.2a1.7,1.7,0,0,0-1.39.58,2,2,0,0,0-.49,1.34v4.1h-1.2Z" transform="translate(-80.75 -138.36)"/><path class="t" d="M833.77,261.71a2.73,2.73,0,0,1,1.08.92,3.33,3.33,0,0,1,.47,1.26,8.24,8.24,0,0,1,.11,1.57h-5.19a3.05,3.05,0,0,0,.51,1.75,1.69,1.69,0,0,0,1.47.65,1.88,1.88,0,0,0,1.49-.62,2.15,2.15,0,0,0,.44-.83h1.18a2.55,2.55,0,0,1-.31.87,3.13,3.13,0,0,1-.59.79,2.7,2.7,0,0,1-1.34.72,4.11,4.11,0,0,1-1,.11,3,3,0,0,1-2.24-1,3.77,3.77,0,0,1-.92-2.72,4.12,4.12,0,0,1,.92-2.79,3.07,3.07,0,0,1,2.42-1.07A3.22,3.22,0,0,1,833.77,261.71Zm.43,2.8a3.1,3.1,0,0,0-.34-1.25,1.74,1.74,0,0,0-1.63-.86,1.81,1.81,0,0,0-1.37.59,2.28,2.28,0,0,0-.59,1.52Z" transform="translate(-80.75 -138.36)"/><path class="t" d="M841.66,261.89a2.87,2.87,0,0,1,.91,2H841.4a2.17,2.17,0,0,0-.48-1.1,1.55,1.55,0,0,0-1.22-.43,1.68,1.68,0,0,0-1.64,1.12,4.46,4.46,0,0,0-.32,1.78,3.4,3.4,0,0,0,.45,1.81,1.57,1.57,0,0,0,1.43.73,1.54,1.54,0,0,0,1.18-.46,2.45,2.45,0,0,0,.6-1.24h1.17a2.83,2.83,0,0,1-3.05,2.73,2.74,2.74,0,0,1-2.23-1,3.94,3.94,0,0,1-.83-2.56,4.29,4.29,0,0,1,.91-2.92,2.94,2.94,0,0,1,2.33-1A3.13,3.13,0,0,1,841.66,261.89Z" transform="translate(-80.75 -138.36)"/><path class="t" d="M844,259.52h1.22v2h1.13v1h-1.13v4.66a.51.51,0,0,0,.25.5,1.25,1.25,0,0,0,.47.07h.18l.23,0v.95a2.84,2.84,0,0,1-.42.09,3.68,3.68,0,0,1-.49,0,1.32,1.32,0,0,1-1.14-.43,1.92,1.92,0,0,1-.3-1.12v-4.72h-1v-1h1Z" transform="translate(-80.75 -138.36)"/><path class="t" d="M852,261.71a2.73,2.73,0,0,1,1.08.92,3.18,3.18,0,0,1,.47,1.26,8.24,8.24,0,0,1,.11,1.57h-5.19a3.13,3.13,0,0,0,.51,1.75,1.7,1.7,0,0,0,1.48.65,1.86,1.86,0,0,0,1.48-.62,2.15,2.15,0,0,0,.44-.83h1.18a2.35,2.35,0,0,1-.31.87,2.91,2.91,0,0,1-.59.79,2.65,2.65,0,0,1-1.34.72,4,4,0,0,1-1,.11,3,3,0,0,1-2.24-1,3.77,3.77,0,0,1-.92-2.72,4.17,4.17,0,0,1,.92-2.79,3.08,3.08,0,0,1,2.43-1.07A3.18,3.18,0,0,1,852,261.71Zm.43,2.8a3.1,3.1,0,0,0-.34-1.25,1.73,1.73,0,0,0-1.63-.86,1.81,1.81,0,0,0-1.37.59,2.28,2.28,0,0,0-.59,1.52Z" transform="translate(-80.75 -138.36)"/><path class="t" d="M859.06,261.73a3.52,3.52,0,0,1,.72.7v-3.6h1.15v9.81h-1.08v-1a2.55,2.55,0,0,1-1,1,2.74,2.74,0,0,1-1.3.3,2.68,2.68,0,0,1-2.06-1,3.94,3.94,0,0,1-.87-2.67,4.67,4.67,0,0,1,.79-2.7,2.61,2.61,0,0,1,2.27-1.14A2.56,2.56,0,0,1,859.06,261.73Zm-2.68,5.35a1.7,1.7,0,0,0,1.55.77,1.64,1.64,0,0,0,1.36-.71,3.39,3.39,0,0,0,.54-2.06,3.08,3.08,0,0,0-.55-2,1.73,1.73,0,0,0-1.36-.65,1.79,1.79,0,0,0-1.46.69,3.18,3.18,0,0,0-.56,2A3.57,3.57,0,0,0,856.38,267.08Z" transform="translate(-80.75 -138.36)"/><path class="t" d="M866.41,258.83h1.17v3.55a2.62,2.62,0,0,1,2.13-1.05,2.8,2.8,0,0,1,2.17.91,3.91,3.91,0,0,1,.83,2.7,4.59,4.59,0,0,1-.82,2.81,2.67,2.67,0,0,1-2.28,1.12,2.36,2.36,0,0,1-1.38-.39,3.46,3.46,0,0,1-.71-.75v.91h-1.11ZM871,267a3.73,3.73,0,0,0,.49-2,3.26,3.26,0,0,0-.49-1.86,1.57,1.57,0,0,0-1.42-.74,2,2,0,0,0-1.44.6,2.74,2.74,0,0,0-.62,2,4.36,4.36,0,0,0,.25,1.63,1.76,1.76,0,0,0,1.77,1.18A1.61,1.61,0,0,0,871,267Z" transform="translate(-80.75 -138.36)"/><path class="t" d="M878.55,261.51h1.33c-.17.46-.55,1.5-1.13,3.13-.43,1.23-.8,2.23-1.09,3A20.61,20.61,0,0,1,876.2,271a1.69,1.69,0,0,1-1.47.6l-.39,0-.33-.08v-1.09a3.41,3.41,0,0,0,.45.11l.25,0a.85.85,0,0,0,.48-.11.87.87,0,0,0,.27-.27l.24-.55c.13-.32.23-.57.3-.73l-2.64-7.34h1.36l1.91,5.81Z" transform="translate(-80.75 -138.36)"/><path class="t" d="M888.52,264.33a.67.67,0,0,0,.56-.35,1.08,1.08,0,0,0,.08-.46,1,1,0,0,0-.44-.89,2.26,2.26,0,0,0-1.24-.28,1.57,1.57,0,0,0-1.33.51,1.72,1.72,0,0,0-.29.84h-1.12a2.06,2.06,0,0,1,.86-1.84,3.43,3.43,0,0,1,1.9-.52,3.85,3.85,0,0,1,2,.48,1.63,1.63,0,0,1,.78,1.49v4.11a.56.56,0,0,0,.08.3.38.38,0,0,0,.32.11h.18l.21,0v.89l-.42.1-.4,0a1,1,0,0,1-.9-.44,1.71,1.71,0,0,1-.21-.66,2.91,2.91,0,0,1-1,.83,3.2,3.2,0,0,1-1.51.35,2.25,2.25,0,0,1-1.62-.6,2,2,0,0,1-.63-1.5,2,2,0,0,1,.62-1.54,2.92,2.92,0,0,1,1.62-.67ZM886,267.57a1.39,1.39,0,0,0,.9.29,2.64,2.64,0,0,0,1.22-.29,1.64,1.64,0,0,0,1-1.59v-1a2,2,0,0,1-.56.23,4.33,4.33,0,0,1-.68.14l-.72.09a2.92,2.92,0,0,0-1,.27,1.07,1.07,0,0,0-.56,1A1,1,0,0,0,886,267.57Z" transform="translate(-80.75 -138.36)"/><path class="t" d="M896.24,258.86h1.32v8.62h4.91v1.16h-6.23Z" transform="translate(-80.75 -138.36)"/><path class="t" d="M907.48,264.33A.64.64,0,0,0,908,264a1,1,0,0,0,.08-.46,1,1,0,0,0-.43-.89,2.29,2.29,0,0,0-1.25-.28,1.59,1.59,0,0,0-1.33.51,1.73,1.73,0,0,0-.28.84H903.7a2.07,2.07,0,0,1,.85-1.84,3.49,3.49,0,0,1,1.91-.52,3.85,3.85,0,0,1,2,.48,1.63,1.63,0,0,1,.78,1.49v4.11a.48.48,0,0,0,.08.3.37.37,0,0,0,.32.11h.18l.21,0v.89l-.42.1-.4,0a1,1,0,0,1-.9-.44,1.71,1.71,0,0,1-.21-.66,2.91,2.91,0,0,1-1,.83,3.2,3.2,0,0,1-1.51.35,2.25,2.25,0,0,1-1.62-.6,2,2,0,0,1-.63-1.5,1.92,1.92,0,0,1,.62-1.54,2.92,2.92,0,0,1,1.62-.67ZM905,267.57a1.39,1.39,0,0,0,.9.29,2.64,2.64,0,0,0,1.22-.29,1.64,1.64,0,0,0,1-1.59v-1a2.1,2.1,0,0,1-.56.23,4.33,4.33,0,0,1-.68.14l-.73.09a3,3,0,0,0-1,.27,1.06,1.06,0,0,0-.55,1A1,1,0,0,0,905,267.57Z" transform="translate(-80.75 -138.36)"/><path class="t" d="M911.48,259.52h1.21v2h1.14v1h-1.14v4.66a.52.52,0,0,0,.26.5,1.22,1.22,0,0,0,.46.07h.19l.23,0v.95a2.72,2.72,0,0,1-.43.09,3.64,3.64,0,0,1-.48,0,1.32,1.32,0,0,1-1.14-.43,1.92,1.92,0,0,1-.3-1.12v-4.72h-1v-1h1Z" transform="translate(-80.75 -138.36)"/><path class="t" d="M915,258.86h1.22v1.36H915Zm0,2.69h1.22v7.09H915Z" transform="translate(-80.75 -138.36)"/><path class="t" d="M918.06,261.51h1.14v1a3.22,3.22,0,0,1,1.07-.89,2.77,2.77,0,0,1,1.26-.28,2.08,2.08,0,0,1,2.05,1.06,3.7,3.7,0,0,1,.3,1.66v4.57h-1.22v-4.49a2.36,2.36,0,0,0-.2-1,1.16,1.16,0,0,0-1.16-.67,2.22,2.22,0,0,0-.69.09,1.84,1.84,0,0,0-.87.58,1.8,1.8,0,0,0-.39.73,4.92,4.92,0,0,0-.09,1.08v3.73h-1.2Z" transform="translate(-80.75 -138.36)"/><path class="t" d="M925,261.51h1.55l1.64,2.51,1.65-2.51,1.46,0-2.4,3.44,2.51,3.65h-1.53L928.08,266l-1.72,2.67h-1.52l2.51-3.65Z" transform="translate(-80.75 -138.36)"/><path class="t" d="M812.24,276.79a2.2,2.2,0,0,1,.26-1.09,1.83,1.83,0,0,1,1.62-.61h.23l.28,0v1.1l-.28,0h-.15c-.37,0-.59.09-.66.28a5.14,5.14,0,0,0-.11,1.44h1.2v.95h-1.2V285h-1.19v-6.15h-1v-.95h1v-1.12Zm3.54-.2v-1.36H817v1.36Zm0,1.32H817V285h-1.2Zm3-2.68H820V285h-1.2Zm3,2.65H823v1a4.26,4.26,0,0,1,.78-.77,2.3,2.3,0,0,1,1.34-.4,2.1,2.1,0,0,1,1.37.42,2.12,2.12,0,0,1,.54.7,2.58,2.58,0,0,1,.93-.85,2.7,2.7,0,0,1,1.22-.27,2,2,0,0,1,2,1,3.32,3.32,0,0,1,.28,1.5V285h-1.24v-5a1.13,1.13,0,0,0-.36-1,1.41,1.41,0,0,0-.87-.27,1.73,1.73,0,0,0-1.21.47,2.08,2.08,0,0,0-.51,1.58V285H826v-4.66a2.47,2.47,0,0,0-.17-1.05,1.05,1.05,0,0,0-1-.5,1.77,1.77,0,0,0-1.24.52,2.59,2.59,0,0,0-.55,1.91V285h-1.2Zm11.36,0h1.18v1a4,4,0,0,1,.78-.77,2.3,2.3,0,0,1,1.34-.4,2.1,2.1,0,0,1,1.37.42,2,2,0,0,1,.53.7,2.46,2.46,0,0,1,2.16-1.12,2,2,0,0,1,2,1,3.32,3.32,0,0,1,.28,1.5V285H841.5v-5a1.13,1.13,0,0,0-.36-1,1.41,1.41,0,0,0-.87-.27,1.73,1.73,0,0,0-1.21.47,2.08,2.08,0,0,0-.51,1.58V285h-1.22v-4.66a2.47,2.47,0,0,0-.17-1.05,1.06,1.06,0,0,0-1-.5,1.75,1.75,0,0,0-1.24.52,2.59,2.59,0,0,0-.55,1.91V285h-1.2Zm15.18,2.81a.64.64,0,0,0,.55-.34,1,1,0,0,0,.08-.46,1,1,0,0,0-.43-.9,2.39,2.39,0,0,0-1.25-.27,1.61,1.61,0,0,0-1.33.5,1.73,1.73,0,0,0-.28.84h-1.12a2.06,2.06,0,0,1,.85-1.84,3.55,3.55,0,0,1,1.91-.52,3.85,3.85,0,0,1,2,.48,1.63,1.63,0,0,1,.78,1.49v4.11a.51.51,0,0,0,.07.3q.07.12.33.12h.18l.21,0V285a3.41,3.41,0,0,1-.43.1l-.4,0a1,1,0,0,1-.9-.44,1.78,1.78,0,0,1-.2-.66,3.24,3.24,0,0,1-1,.84,3.33,3.33,0,0,1-1.52.35,2.25,2.25,0,0,1-1.62-.6,2,2,0,0,1-.63-1.51,2,2,0,0,1,.62-1.54,3.06,3.06,0,0,1,1.63-.67Zm-2.9,2.42a1,1,0,0,0,.38.82,1.39,1.39,0,0,0,.89.3,2.81,2.81,0,0,0,1.23-.29,1.65,1.65,0,0,0,1-1.59v-1a1.88,1.88,0,0,1-.57.24,5.64,5.64,0,0,1-.67.13l-.73.09a2.74,2.74,0,0,0-1,.28,1,1,0,0,0-.55,1Zm6.63-7.88h1.15v5.68l3.08-3h1.53l-2.74,2.65L858,285h-1.53l-2.24-3.63-1,.95V285h-1.15Zm9.79,2.49a3.3,3.3,0,0,1,1.46.35,2.75,2.75,0,0,1,1.08.93,3.14,3.14,0,0,1,.48,1.25,8.57,8.57,0,0,1,.1,1.58h-5.18a3,3,0,0,0,.51,1.74,1.67,1.67,0,0,0,1.47.66,1.92,1.92,0,0,0,1.49-.62,2.25,2.25,0,0,0,.44-.84h1.17a2.46,2.46,0,0,1-.31.88,3.3,3.3,0,0,1-.58.79,2.76,2.76,0,0,1-1.34.71,3.67,3.67,0,0,1-1,.11,3,3,0,0,1-2.24-1,3.78,3.78,0,0,1-.92-2.71,4.09,4.09,0,0,1,.93-2.79,3,3,0,0,1,2.42-1.07Zm1.89,3.15a3.23,3.23,0,0,0-.33-1.24,1.73,1.73,0,0,0-1.64-.87,1.8,1.8,0,0,0-1.37.6,2.3,2.3,0,0,0-.59,1.51Zm2.78-3h1.14v1.23a2.68,2.68,0,0,1,.69-.88,1.78,1.78,0,0,1,1.26-.51h.11l.27,0V279l-.19,0h-.2a1.73,1.73,0,0,0-1.39.58,2,2,0,0,0-.49,1.35V285h-1.2Z" transform="translate(-80.75 -138.36)"/><g class="z"><path class="k" d="M789.14,322.94a10.23,10.23,0,1,0-10.23-10.23,10.23,10.23,0,0,0,10.23,10.23" transform="translate(-80.75 -138.36)"/></g><path class="t" d="M812.2,299.77h3.91a3.67,3.67,0,0,1,3.08,1.43,5.31,5.31,0,0,1,1,3.31,6.62,6.62,0,0,1-.58,2.82,3.55,3.55,0,0,1-3.5,2.22H812.2Zm3.65,8.65a3.37,3.37,0,0,0,1.08-.14,2.33,2.33,0,0,0,1.23-1,4.18,4.18,0,0,0,.56-1.51,6.5,6.5,0,0,0,.1-1,4.86,4.86,0,0,0-.71-2.82,2.59,2.59,0,0,0-2.28-1h-2.29v7.51Z" transform="translate(-80.75 -138.36)"/><path class="t" d="M821.82,299.77H823v1.36h-1.22Zm0,2.69H823v7.09h-1.22Z" transform="translate(-80.75 -138.36)"/><path class="t" d="M824.89,302.42H826v1.23a2.75,2.75,0,0,1,.68-.87,1.82,1.82,0,0,1,1.26-.52h.11l.28,0v1.26l-.2,0H828a1.71,1.71,0,0,0-1.39.58,2.06,2.06,0,0,0-.48,1.34v4.1h-1.2Z" transform="translate(-80.75 -138.36)"/><path class="t" d="M833.8,302.62a2.73,2.73,0,0,1,1.08.92,3.19,3.19,0,0,1,.48,1.26,8.44,8.44,0,0,1,.1,1.57h-5.19a3.21,3.21,0,0,0,.51,1.75,1.7,1.7,0,0,0,1.48.65,1.86,1.86,0,0,0,1.48-.62,2,2,0,0,0,.44-.83h1.18a2.35,2.35,0,0,1-.31.87,2.91,2.91,0,0,1-.59.79,2.65,2.65,0,0,1-1.34.72,4,4,0,0,1-1,.11,3,3,0,0,1-2.24-1,3.81,3.81,0,0,1-.92-2.72,4.12,4.12,0,0,1,.93-2.79,3,3,0,0,1,2.42-1.07A3.18,3.18,0,0,1,833.8,302.62Zm.43,2.8a3.1,3.1,0,0,0-.34-1.25,1.73,1.73,0,0,0-1.63-.86,1.82,1.82,0,0,0-1.37.59,2.28,2.28,0,0,0-.59,1.52Z" transform="translate(-80.75 -138.36)"/><path class="t" d="M841.69,302.8a2.83,2.83,0,0,1,.91,2h-1.17a2.21,2.21,0,0,0-.48-1.1,1.53,1.53,0,0,0-1.22-.43,1.69,1.69,0,0,0-1.64,1.12,4.46,4.46,0,0,0-.32,1.78,3.4,3.4,0,0,0,.45,1.81,1.58,1.58,0,0,0,1.43.73,1.53,1.53,0,0,0,1.18-.46,2.45,2.45,0,0,0,.6-1.24h1.17a2.83,2.83,0,0,1-3,2.73,2.71,2.71,0,0,1-2.23-1,3.88,3.88,0,0,1-.84-2.55,4.3,4.3,0,0,1,.92-2.93,2.92,2.92,0,0,1,2.32-1A3.11,3.11,0,0,1,841.69,302.8Z" transform="translate(-80.75 -138.36)"/><path class="t" d="M844,300.43h1.21v2h1.14v1h-1.14v4.66a.51.51,0,0,0,.25.5,1.28,1.28,0,0,0,.47.07h.19l.23,0v.95a3,3,0,0,1-.43.09,3.64,3.64,0,0,1-.48,0,1.32,1.32,0,0,1-1.14-.43,1.92,1.92,0,0,1-.3-1.12V303.4h-1v-1h1Z" transform="translate(-80.75 -138.36)"/><path class="t" d="M852,302.62a2.73,2.73,0,0,1,1.08.92,3.19,3.19,0,0,1,.48,1.26,8.44,8.44,0,0,1,.1,1.57h-5.18a3.13,3.13,0,0,0,.5,1.75,1.7,1.7,0,0,0,1.48.65,1.86,1.86,0,0,0,1.48-.62,2,2,0,0,0,.44-.83h1.18a2.35,2.35,0,0,1-.31.87,3.11,3.11,0,0,1-.58.79,2.74,2.74,0,0,1-1.34.72,4.13,4.13,0,0,1-1,.11,3,3,0,0,1-2.24-1,3.81,3.81,0,0,1-.92-2.72,4.12,4.12,0,0,1,.93-2.79,3,3,0,0,1,2.42-1.07A3.18,3.18,0,0,1,852,302.62Zm.43,2.8a3.1,3.1,0,0,0-.34-1.25,1.73,1.73,0,0,0-1.63-.86,1.82,1.82,0,0,0-1.37.59,2.28,2.28,0,0,0-.59,1.52Z" transform="translate(-80.75 -138.36)"/><path class="t" d="M859.09,302.64a3.52,3.52,0,0,1,.72.7v-3.6H861v9.81h-1.08v-1a2.47,2.47,0,0,1-1,.95,2.78,2.78,0,0,1-1.31.3,2.68,2.68,0,0,1-2.06-1,3.93,3.93,0,0,1-.86-2.67,4.6,4.6,0,0,1,.79-2.7,2.59,2.59,0,0,1,2.26-1.14A2.53,2.53,0,0,1,859.09,302.64ZM856.41,308a1.71,1.71,0,0,0,1.55.77,1.65,1.65,0,0,0,1.37-.71,3.46,3.46,0,0,0,.53-2.06,3.08,3.08,0,0,0-.55-2,1.73,1.73,0,0,0-1.36-.65,1.79,1.79,0,0,0-1.46.69,3.24,3.24,0,0,0-.56,2A3.57,3.57,0,0,0,856.41,308Z" transform="translate(-80.75 -138.36)"/><path class="t" d="M866.44,299.74h1.17v3.55a2.69,2.69,0,0,1,.94-.78,2.66,2.66,0,0,1,1.19-.27,2.79,2.79,0,0,1,2.17.91,3.86,3.86,0,0,1,.83,2.7,4.59,4.59,0,0,1-.82,2.81,2.67,2.67,0,0,1-2.28,1.12,2.38,2.38,0,0,1-1.38-.39,3.46,3.46,0,0,1-.71-.75v.91h-1.11ZM871,308a3.83,3.83,0,0,0,.48-2,3.34,3.34,0,0,0-.48-1.86,1.59,1.59,0,0,0-1.43-.74,2,2,0,0,0-1.44.6,2.74,2.74,0,0,0-.62,2,4.34,4.34,0,0,0,.26,1.63,1.74,1.74,0,0,0,1.77,1.18A1.62,1.62,0,0,0,871,308Z" transform="translate(-80.75 -138.36)"/><path class="t" d="M878.59,302.42h1.32c-.17.46-.54,1.5-1.12,3.13-.44,1.23-.8,2.23-1.1,3a20.61,20.61,0,0,1-1.46,3.33,1.66,1.66,0,0,1-1.46.6l-.39,0-.34-.08v-1.09a3.41,3.41,0,0,0,.45.11l.25,0a.91.91,0,0,0,.49-.11,1,1,0,0,0,.26-.27l.24-.54c.14-.33.24-.58.3-.74l-2.64-7.34h1.36l1.91,5.81Z" transform="translate(-80.75 -138.36)"/><path class="t" d="M888.56,305.24a.65.65,0,0,0,.55-.35,1.08,1.08,0,0,0,.08-.46,1,1,0,0,0-.44-.89,2.26,2.26,0,0,0-1.24-.28,1.57,1.57,0,0,0-1.33.51,1.72,1.72,0,0,0-.29.84h-1.11a2.05,2.05,0,0,1,.85-1.84,3.46,3.46,0,0,1,1.91-.52,3.9,3.9,0,0,1,2,.48,1.63,1.63,0,0,1,.78,1.49v4.11a.56.56,0,0,0,.07.3.38.38,0,0,0,.32.11h.18l.22,0v.89l-.43.1-.4,0a1,1,0,0,1-.9-.44,1.91,1.91,0,0,1-.2-.66,3.09,3.09,0,0,1-1.05.83,3.24,3.24,0,0,1-1.52.35,2.25,2.25,0,0,1-1.62-.6,2,2,0,0,1-.63-1.5,2,2,0,0,1,.62-1.54,3,3,0,0,1,1.63-.67ZM886,308.48a1.43,1.43,0,0,0,.9.29,2.71,2.71,0,0,0,1.23-.29,1.65,1.65,0,0,0,1-1.59v-1a2.18,2.18,0,0,1-.57.23,4.11,4.11,0,0,1-.68.14l-.72.09a3,3,0,0,0-1,.27,1.07,1.07,0,0,0-.56,1A1,1,0,0,0,886,308.48Z" transform="translate(-80.75 -138.36)"/><path class="t" d="M892.32,302.42h1.14v1a3,3,0,0,1,1.07-.9,2.77,2.77,0,0,1,1.26-.28,2.09,2.09,0,0,1,2.05,1.06,3.86,3.86,0,0,1,.29,1.66v4.57h-1.22v-4.49a2.38,2.38,0,0,0-.19-1.05,1.16,1.16,0,0,0-1.16-.67,2.29,2.29,0,0,0-.7.09,1.94,1.94,0,0,0-1.25,1.31,4.92,4.92,0,0,0-.09,1.08v3.73h-1.2Z" transform="translate(-80.75 -138.36)"/><path class="t" d="M906,299.77h1.5l3.55,9.78h-1.45l-1-2.93h-3.87l-1.06,2.93h-1.36Zm2.18,5.78-1.48-4.33-1.58,4.33Z" transform="translate(-80.75 -138.36)"/><path class="t" d="M912.78,307.32a1.76,1.76,0,0,0,.3.92,2,2,0,0,0,1.61.57,2.41,2.41,0,0,0,1.19-.28,1,1,0,0,0,.52-.9.77.77,0,0,0-.41-.7,5.14,5.14,0,0,0-1-.34l-1-.24a4.93,4.93,0,0,1-1.37-.5,1.53,1.53,0,0,1-.78-1.35,2.06,2.06,0,0,1,.73-1.64,3,3,0,0,1,2-.62,2.78,2.78,0,0,1,2.36.94,2.1,2.1,0,0,1,.44,1.29h-1.14a1.33,1.33,0,0,0-.29-.73,1.91,1.91,0,0,0-1.46-.47,1.75,1.75,0,0,0-1.06.26.8.8,0,0,0-.36.68.83.83,0,0,0,.47.74,3.16,3.16,0,0,0,.81.3l.8.19a6.65,6.65,0,0,1,1.77.6,1.63,1.63,0,0,1,.7,1.45,2.19,2.19,0,0,1-.74,1.64,3.08,3.08,0,0,1-2.22.7,3,3,0,0,1-2.29-.73,2.71,2.71,0,0,1-.71-1.78Z" transform="translate(-80.75 -138.36)"/><path class="t" d="M918.88,299.77h1.22v1.36h-1.22Zm0,2.69h1.22v7.09h-1.22Z" transform="translate(-80.75 -138.36)"/><path class="t" d="M925.74,305.24a.67.67,0,0,0,.55-.35,1.08,1.08,0,0,0,.08-.46,1,1,0,0,0-.44-.89,2.26,2.26,0,0,0-1.24-.28,1.57,1.57,0,0,0-1.33.51,1.72,1.72,0,0,0-.29.84H922a2.08,2.08,0,0,1,.86-1.84,3.45,3.45,0,0,1,1.9-.52,3.85,3.85,0,0,1,2,.48,1.63,1.63,0,0,1,.78,1.49v4.11a.56.56,0,0,0,.08.3.38.38,0,0,0,.32.11h.18l.22,0v.89l-.43.1-.4,0a1,1,0,0,1-.9-.44,1.71,1.71,0,0,1-.21-.66,2.91,2.91,0,0,1-1,.83,3.2,3.2,0,0,1-1.51.35,2.25,2.25,0,0,1-1.62-.6,2,2,0,0,1-.63-1.5,2,2,0,0,1,.62-1.54,2.92,2.92,0,0,1,1.62-.67Zm-2.53,3.24a1.39,1.39,0,0,0,.9.29,2.71,2.71,0,0,0,1.23-.29,1.64,1.64,0,0,0,1-1.59v-1a2,2,0,0,1-.56.23,4.33,4.33,0,0,1-.68.14l-.72.09a2.92,2.92,0,0,0-1,.27,1.07,1.07,0,0,0-.56,1A1,1,0,0,0,923.21,308.48Z" transform="translate(-80.75 -138.36)"/><path class="t" d="M929.5,302.42h1.14v1a3,3,0,0,1,1.07-.9,2.77,2.77,0,0,1,1.26-.28,2.09,2.09,0,0,1,2,1.06,3.86,3.86,0,0,1,.29,1.66v4.57h-1.22v-4.49a2.38,2.38,0,0,0-.19-1.05,1.16,1.16,0,0,0-1.16-.67,2.29,2.29,0,0,0-.7.09,1.76,1.76,0,0,0-.86.58,1.8,1.8,0,0,0-.39.73,4.92,4.92,0,0,0-.09,1.08v3.73h-1.2Z" transform="translate(-80.75 -138.36)"/><path class="t" d="M812.28,317.7a2,2,0,0,1,.26-1.09,1.81,1.81,0,0,1,1.61-.61h.24l.27,0v1.1l-.27,0h-.16c-.37,0-.59.09-.66.28a5.59,5.59,0,0,0-.11,1.44h1.2v.95h-1.2v6.15h-1.18v-6.15h-1v-.95h1V317.7Zm3.53-.2v-1.36H817v1.36Zm0,1.32H817v7.1h-1.2Zm3-2.68H820v9.78h-1.2Zm3,2.65H823v1a4,4,0,0,1,.77-.77,2.33,2.33,0,0,1,1.35-.4,2.13,2.13,0,0,1,1.37.42,2.25,2.25,0,0,1,.53.7,2.69,2.69,0,0,1,.94-.85,2.66,2.66,0,0,1,1.21-.27,2,2,0,0,1,2,1,3.46,3.46,0,0,1,.28,1.5v4.75h-1.25v-5a1.15,1.15,0,0,0-.35-1,1.41,1.41,0,0,0-.87-.27,1.76,1.76,0,0,0-1.22.47,2.08,2.08,0,0,0-.51,1.58v4.15H826v-4.66a2.32,2.32,0,0,0-.17-1.05,1,1,0,0,0-1-.5,1.75,1.75,0,0,0-1.23.52,2.59,2.59,0,0,0-.56,1.91v3.78h-1.2Zm11.36,0h1.19v1a4,4,0,0,1,.77-.77,2.3,2.3,0,0,1,1.34-.4,2.14,2.14,0,0,1,1.38.42,2.25,2.25,0,0,1,.53.7,2.69,2.69,0,0,1,.94-.85,2.66,2.66,0,0,1,1.21-.27,2,2,0,0,1,2,1,3.46,3.46,0,0,1,.28,1.5v4.75h-1.25v-5a1.15,1.15,0,0,0-.35-1,1.41,1.41,0,0,0-.87-.27,1.76,1.76,0,0,0-1.22.47,2.08,2.08,0,0,0-.51,1.58v4.15h-1.22v-4.66a2.32,2.32,0,0,0-.17-1.05,1,1,0,0,0-1-.5,1.75,1.75,0,0,0-1.23.52,2.59,2.59,0,0,0-.56,1.91v3.78h-1.2Zm15.18,2.81a.66.66,0,0,0,.56-.34,1.12,1.12,0,0,0,.08-.46,1,1,0,0,0-.44-.9,2.37,2.37,0,0,0-1.25-.27A1.37,1.37,0,0,0,845.7,321h-1.12a2.07,2.07,0,0,1,.86-1.84,3.51,3.51,0,0,1,1.9-.52,3.85,3.85,0,0,1,2,.48,1.63,1.63,0,0,1,.78,1.5v4.1a.51.51,0,0,0,.08.3.36.36,0,0,0,.32.12h.18l.21,0V326a2.17,2.17,0,0,1-.42.1,2.24,2.24,0,0,1-.4,0,1,1,0,0,1-.9-.44A1.6,1.6,0,0,1,849,325a3,3,0,0,1-1,.84,3.32,3.32,0,0,1-1.51.35,2.25,2.25,0,0,1-1.62-.6,2,2,0,0,1-.63-1.51,1.93,1.93,0,0,1,.62-1.54,3,3,0,0,1,1.62-.67Zm-2.9,2.42a1,1,0,0,0,.38.82,1.4,1.4,0,0,0,.9.3,2.77,2.77,0,0,0,1.22-.29,1.65,1.65,0,0,0,1-1.59v-1a1.72,1.72,0,0,1-.56.24,4.28,4.28,0,0,1-.68.13l-.72.09a2.62,2.62,0,0,0-1,.28,1.06,1.06,0,0,0-.56,1Zm6.64-7.88h1.15v5.68l3.07-3h1.53l-2.74,2.65,2.9,4.48h-1.53l-2.25-3.63-1,.95v2.68H852.1Zm9.78,2.49a3.34,3.34,0,0,1,1.47.35,2.75,2.75,0,0,1,1.08.93,3.35,3.35,0,0,1,.47,1.25,8.36,8.36,0,0,1,.11,1.58h-5.19a3,3,0,0,0,.51,1.74,1.7,1.7,0,0,0,1.47.66,1.92,1.92,0,0,0,1.49-.62,2.12,2.12,0,0,0,.44-.84h1.18a2.59,2.59,0,0,1-.31.88,3.32,3.32,0,0,1-.59.79,2.86,2.86,0,0,1-1.34.72,4.13,4.13,0,0,1-1,.1,3,3,0,0,1-2.24-1,3.74,3.74,0,0,1-.92-2.71,4.08,4.08,0,0,1,.92-2.79,3.07,3.07,0,0,1,2.42-1.07Zm1.9,3.15a3.05,3.05,0,0,0-.34-1.24,1.72,1.72,0,0,0-1.63-.87,1.77,1.77,0,0,0-1.37.6,2.25,2.25,0,0,0-.59,1.51Zm2.78-3h1.14V320a2.76,2.76,0,0,1,.68-.88,1.81,1.81,0,0,1,1.26-.51h.11l.28,0v1.27l-.2,0h-.2a1.72,1.72,0,0,0-1.39.59,2,2,0,0,0-.48,1.34v4.1h-1.2Z" transform="translate(-80.75 -138.36)"/><g class="z"><path class="q" d="M789.11,363.85a10.23,10.23,0,1,0-10.23-10.23,10.23,10.23,0,0,0,10.23,10.23" transform="translate(-80.75 -138.36)"/></g><path class="t" d="M812.16,340.68h3.91a3.66,3.66,0,0,1,3.09,1.44,5.32,5.32,0,0,1,1,3.3,6.62,6.62,0,0,1-.58,2.82,3.57,3.57,0,0,1-3.5,2.23h-3.9Zm3.65,8.65a3.29,3.29,0,0,0,1.08-.14,2.32,2.32,0,0,0,1.24-1,4,4,0,0,0,.55-1.51,5.51,5.51,0,0,0,.1-1,4.86,4.86,0,0,0-.7-2.82,2.6,2.6,0,0,0-2.28-1h-2.3v7.51Z" transform="translate(-80.75 -138.36)"/><path class="t" d="M821.79,340.68H823V342h-1.22Zm0,2.69H823v7.1h-1.22Z" transform="translate(-80.75 -138.36)"/><path class="t" d="M824.85,343.33H826v1.24a2.87,2.87,0,0,1,.69-.88,1.79,1.79,0,0,1,1.26-.52h.11l.27,0v1.26l-.19,0h-.2a1.7,1.7,0,0,0-1.39.58,2,2,0,0,0-.49,1.34v4.11h-1.2Z" transform="translate(-80.75 -138.36)"/><path class="t" d="M833.77,343.53a2.82,2.82,0,0,1,1.08.92,3.33,3.33,0,0,1,.47,1.26,8.24,8.24,0,0,1,.11,1.57h-5.19a3.05,3.05,0,0,0,.51,1.75,1.7,1.7,0,0,0,1.47.66,1.89,1.89,0,0,0,1.49-.63,2.15,2.15,0,0,0,.44-.83h1.18a2.55,2.55,0,0,1-.31.87,3,3,0,0,1-.59.79,2.7,2.7,0,0,1-1.34.72,4.11,4.11,0,0,1-1,.11,3,3,0,0,1-2.24-1A3.76,3.76,0,0,1,829,347a4.08,4.08,0,0,1,.92-2.79,3,3,0,0,1,2.42-1.08A3.22,3.22,0,0,1,833.77,343.53Zm.43,2.8a3.15,3.15,0,0,0-.34-1.25,1.74,1.74,0,0,0-1.63-.86,1.78,1.78,0,0,0-1.37.6,2.23,2.23,0,0,0-.59,1.51Z" transform="translate(-80.75 -138.36)"/><path class="t" d="M841.66,343.71a2.87,2.87,0,0,1,.91,2H841.4a2.14,2.14,0,0,0-.48-1.09,1.55,1.55,0,0,0-1.22-.44,1.68,1.68,0,0,0-1.64,1.12,4.48,4.48,0,0,0-.32,1.79,3.39,3.39,0,0,0,.45,1.8,1.55,1.55,0,0,0,1.43.73,1.57,1.57,0,0,0,1.18-.45,2.53,2.53,0,0,0,.6-1.25h1.17a2.81,2.81,0,0,1-3.05,2.73,2.74,2.74,0,0,1-2.23-1,3.93,3.93,0,0,1-.83-2.55,4.3,4.3,0,0,1,.91-2.93,3,3,0,0,1,2.33-1A3.13,3.13,0,0,1,841.66,343.71Z" transform="translate(-80.75 -138.36)"/><path class="t" d="M844,341.34h1.22v2h1.13v1h-1.13V349a.5.5,0,0,0,.25.5,1.07,1.07,0,0,0,.47.07h.18l.23,0v1a2.84,2.84,0,0,1-.42.08,3.68,3.68,0,0,1-.49,0,1.29,1.29,0,0,1-1.14-.43A1.92,1.92,0,0,1,844,349v-4.72h-1v-1h1Z" transform="translate(-80.75 -138.36)"/><path class="t" d="M852,343.53a2.82,2.82,0,0,1,1.08.92,3.18,3.18,0,0,1,.47,1.26,8.24,8.24,0,0,1,.11,1.57h-5.19a3.13,3.13,0,0,0,.51,1.75,1.7,1.7,0,0,0,1.48.66,1.87,1.87,0,0,0,1.48-.63,2.15,2.15,0,0,0,.44-.83h1.18a2.35,2.35,0,0,1-.31.87,2.76,2.76,0,0,1-.59.79,2.65,2.65,0,0,1-1.34.72,4,4,0,0,1-1,.11,3,3,0,0,1-2.24-1,3.76,3.76,0,0,1-.92-2.71,4.13,4.13,0,0,1,.92-2.79,3.05,3.05,0,0,1,2.43-1.08A3.18,3.18,0,0,1,852,343.53Zm.43,2.8a3.15,3.15,0,0,0-.34-1.25,1.73,1.73,0,0,0-1.63-.86,1.78,1.78,0,0,0-1.37.6,2.23,2.23,0,0,0-.59,1.51Z" transform="translate(-80.75 -138.36)"/><path class="t" d="M859.06,343.55a3.52,3.52,0,0,1,.72.7v-3.6h1.15v9.82h-1.08v-1a2.66,2.66,0,0,1-1,1,2.86,2.86,0,0,1-1.3.29,2.68,2.68,0,0,1-2.06-1,3.94,3.94,0,0,1-.87-2.67,4.67,4.67,0,0,1,.79-2.7,2.61,2.61,0,0,1,2.27-1.14A2.56,2.56,0,0,1,859.06,343.55Zm-2.68,5.35a1.68,1.68,0,0,0,1.55.77,1.64,1.64,0,0,0,1.36-.71,3.37,3.37,0,0,0,.54-2.06,3.08,3.08,0,0,0-.55-2,1.73,1.73,0,0,0-1.36-.65,1.77,1.77,0,0,0-1.46.7,3.13,3.13,0,0,0-.56,2A3.55,3.55,0,0,0,856.38,348.9Z" transform="translate(-80.75 -138.36)"/><path class="t" d="M866.41,340.65h1.17v3.55a2.62,2.62,0,0,1,2.13-1.05,2.8,2.8,0,0,1,2.17.91,3.91,3.91,0,0,1,.83,2.7,4.59,4.59,0,0,1-.82,2.81,2.67,2.67,0,0,1-2.28,1.12,2.36,2.36,0,0,1-1.38-.39,3.24,3.24,0,0,1-.71-.75v.92h-1.11Zm4.58,8.21a3.71,3.71,0,0,0,.49-2A3.26,3.26,0,0,0,871,345a1.59,1.59,0,0,0-1.42-.74,2,2,0,0,0-1.44.61,2.71,2.71,0,0,0-.62,2,4.36,4.36,0,0,0,.25,1.63,1.76,1.76,0,0,0,1.77,1.18A1.59,1.59,0,0,0,871,348.86Z" transform="translate(-80.75 -138.36)"/><path class="t" d="M878.55,343.33h1.33c-.17.46-.55,1.5-1.13,3.13-.43,1.23-.8,2.23-1.09,3a20.61,20.61,0,0,1-1.46,3.33,1.69,1.69,0,0,1-1.47.6l-.39,0-.33-.07v-1.1a3.41,3.41,0,0,0,.45.11l.25,0a.85.85,0,0,0,.48-.11.87.87,0,0,0,.27-.27s.1-.22.24-.54.23-.58.3-.73l-2.64-7.35h1.36l1.91,5.81Z" transform="translate(-80.75 -138.36)"/><path class="t" d="M888.52,346.15a.67.67,0,0,0,.56-.35,1.08,1.08,0,0,0,.08-.46,1,1,0,0,0-.44-.89,2.35,2.35,0,0,0-1.24-.28,1.57,1.57,0,0,0-1.33.51,1.72,1.72,0,0,0-.29.84h-1.12a2.06,2.06,0,0,1,.86-1.84,3.43,3.43,0,0,1,1.9-.52,3.85,3.85,0,0,1,2,.48,1.63,1.63,0,0,1,.78,1.49v4.11a.56.56,0,0,0,.08.3c.05.08.16.11.32.11h.18l.21,0v.89l-.42.1-.4,0a1,1,0,0,1-.9-.44,1.71,1.71,0,0,1-.21-.66,2.91,2.91,0,0,1-1,.83,3.21,3.21,0,0,1-1.51.36,2.26,2.26,0,0,1-1.62-.61,2,2,0,0,1-.63-1.5,2,2,0,0,1,.62-1.54,2.92,2.92,0,0,1,1.62-.67ZM886,349.39a1.4,1.4,0,0,0,.9.3,2.65,2.65,0,0,0,1.22-.3,1.64,1.64,0,0,0,1-1.59v-1a2,2,0,0,1-.56.23,4.33,4.33,0,0,1-.68.14l-.72.09a2.92,2.92,0,0,0-1,.27,1.07,1.07,0,0,0-.56,1A1,1,0,0,0,886,349.39Z" transform="translate(-80.75 -138.36)"/><path class="t" d="M892.29,343.33h1.13v1a3.16,3.16,0,0,1,1.08-.9,2.83,2.83,0,0,1,1.25-.28,2.1,2.1,0,0,1,2.06,1.06,3.86,3.86,0,0,1,.29,1.66v4.58h-1.22V346a2.43,2.43,0,0,0-.19-1.05,1.19,1.19,0,0,0-1.16-.67,2.29,2.29,0,0,0-.7.09,1.79,1.79,0,0,0-.87.59,1.71,1.71,0,0,0-.39.72,5,5,0,0,0-.09,1.08v3.74h-1.19Z" transform="translate(-80.75 -138.36)"/><path class="t" d="M812.4,357.05h1.34v9.78H812.4Zm3.33,2.65h1.14v1a3.23,3.23,0,0,1,1.07-.9,2.91,2.91,0,0,1,1.26-.27,2.06,2.06,0,0,1,2,1.06,3.67,3.67,0,0,1,.3,1.66v4.57h-1.22v-4.5a2.42,2.42,0,0,0-.2-1.05,1.16,1.16,0,0,0-1.15-.66,2.64,2.64,0,0,0-.7.08,1.86,1.86,0,0,0-.87.59,1.74,1.74,0,0,0-.39.73,4.88,4.88,0,0,0-.09,1.07v3.74h-1.2Zm10.14-.13a2.5,2.5,0,0,1,1.36.35,2.89,2.89,0,0,1,.73.7V357h1.15v9.82H828v-1a2.63,2.63,0,0,1-1,1,2.87,2.87,0,0,1-1.31.29,2.63,2.63,0,0,1-2.05-1,3.94,3.94,0,0,1-.87-2.67,4.6,4.6,0,0,1,.79-2.7,2.61,2.61,0,0,1,2.27-1.14Zm-1.8,3.78a3.54,3.54,0,0,0,.49,1.91,1.69,1.69,0,0,0,1.55.78,1.63,1.63,0,0,0,1.36-.72,3.36,3.36,0,0,0,.53-2.05,3,3,0,0,0-.55-2,1.68,1.68,0,0,0-1.35-.65,1.81,1.81,0,0,0-1.47.69,3.2,3.2,0,0,0-.56,2Zm6.83-6.3h1.22v1.36H830.9Zm0,2.68h1.22v7.1H830.9Zm5.53-.16a2.63,2.63,0,0,1,1.46.41,3.38,3.38,0,0,1,.69.68v-.9h1.1v6.49a4.84,4.84,0,0,1-.39,2.14,2.86,2.86,0,0,1-2.81,1.46,3.45,3.45,0,0,1-1.93-.52,2,2,0,0,1-.88-1.61h1.22a1.32,1.32,0,0,0,.35.73,1.71,1.71,0,0,0,1.27.4,1.74,1.74,0,0,0,1.79-1,5.3,5.3,0,0,0,.23-2,2.37,2.37,0,0,1-.86.81,3.05,3.05,0,0,1-3.35-.56,3.59,3.59,0,0,1-.87-2.72,4.13,4.13,0,0,1,.87-2.79,2.72,2.72,0,0,1,2.11-1Zm2.15,3.66a3,3,0,0,0-.54-2,1.75,1.75,0,0,0-1.39-.64,1.71,1.71,0,0,0-1.72,1.19,4.7,4.7,0,0,0-.25,1.65,3,3,0,0,0,.49,1.84,1.58,1.58,0,0,0,1.31.63,1.84,1.84,0,0,0,1.81-1.17,3.85,3.85,0,0,0,.29-1.54Zm5.87-3.69a3.3,3.3,0,0,1,1.46.35,2.75,2.75,0,0,1,1.08.93,3.19,3.19,0,0,1,.48,1.26,8.37,8.37,0,0,1,.1,1.57h-5.18a3.12,3.12,0,0,0,.5,1.74,1.7,1.7,0,0,0,1.48.66,1.89,1.89,0,0,0,1.48-.62,2,2,0,0,0,.44-.84h1.18a2.39,2.39,0,0,1-.31.88,3.3,3.3,0,0,1-.58.79,2.86,2.86,0,0,1-1.34.72,4.16,4.16,0,0,1-1,.1,3,3,0,0,1-2.24-1,3.78,3.78,0,0,1-.92-2.71,4.12,4.12,0,0,1,.93-2.79,3.06,3.06,0,0,1,2.42-1.07Zm1.89,3.15a3.1,3.1,0,0,0-.34-1.24,1.7,1.7,0,0,0-1.63-.87,1.8,1.8,0,0,0-1.37.6,2.25,2.25,0,0,0-.59,1.51Zm2.75-3h1.14v1a3.14,3.14,0,0,1,1.07-.9,2.91,2.91,0,0,1,1.26-.27,2.07,2.07,0,0,1,2.05,1.06,3.83,3.83,0,0,1,.29,1.66v4.57h-1.22v-4.5a2.43,2.43,0,0,0-.19-1.05,1.17,1.17,0,0,0-1.16-.66,2.7,2.7,0,0,0-.7.08,1.83,1.83,0,0,0-.86.59,1.74,1.74,0,0,0-.39.73,4.88,4.88,0,0,0-.09,1.07v3.74h-1.2Zm10.43-.21a3.21,3.21,0,0,1,2.32.92,3.59,3.59,0,0,1,.94,2.7A4.63,4.63,0,0,1,862,366a3,3,0,0,1-2.58,1.12,2.94,2.94,0,0,1-2.33-1,4,4,0,0,1-.85-2.67,4.28,4.28,0,0,1,.9-2.86,3,3,0,0,1,2.43-1.07Zm0,6.56a1.63,1.63,0,0,0,1.61-.9,4.43,4.43,0,0,0,.44-2,3.63,3.63,0,0,0-.31-1.62,1.79,1.79,0,0,0-1.73-1,1.7,1.7,0,0,0-1.58.84,3.88,3.88,0,0,0-.49,2,3.36,3.36,0,0,0,.49,1.89,1.73,1.73,0,0,0,1.57.76Zm6-6.35v4.73a2,2,0,0,0,.17.89,1.17,1.17,0,0,0,1.16.64,1.64,1.64,0,0,0,1.66-1.11,4.57,4.57,0,0,0,.24-1.65v-3.5h1.2v7.13h-1.13v-1.05a2.22,2.22,0,0,1-.57.68,2.43,2.43,0,0,1-1.63.56,2.09,2.09,0,0,1-2-1,3,3,0,0,1-.29-1.45V359.7Zm7.1,4.89a1.73,1.73,0,0,0,.3.92,2,2,0,0,0,1.61.58,2.41,2.41,0,0,0,1.19-.29.94.94,0,0,0,.52-.89.77.77,0,0,0-.41-.7,5.14,5.14,0,0,0-1-.34l-1-.24a4.59,4.59,0,0,1-1.37-.51,1.5,1.5,0,0,1-.78-1.34,2,2,0,0,1,.73-1.64,3,3,0,0,1,2-.63,2.79,2.79,0,0,1,2.36.95,2.1,2.1,0,0,1,.44,1.29H876a1.36,1.36,0,0,0-.29-.74,1.91,1.91,0,0,0-1.46-.47,1.82,1.82,0,0,0-1.06.26.82.82,0,0,0-.36.69.84.84,0,0,0,.47.74,2.85,2.85,0,0,0,.81.29l.8.19a6.57,6.57,0,0,1,1.77.61,1.63,1.63,0,0,1,.7,1.45,2.19,2.19,0,0,1-.74,1.64,3.12,3.12,0,0,1-2.22.69,3,3,0,0,1-2.29-.72,2.74,2.74,0,0,1-.71-1.79Zm10.19-6a2.23,2.23,0,0,1,.26-1.09,1.83,1.83,0,0,1,1.62-.61h.24l.27,0V358l-.27,0h-.16c-.37,0-.59.09-.66.28a5.59,5.59,0,0,0-.11,1.44h1.2v.95h-1.2v6.15h-1.19v-6.15h-1v-.95h1v-1.12Zm3.54-.2v-1.36h1.2v1.36Zm0,1.32h1.2v7.1h-1.2Zm3-2.68h1.2v9.78h-1.2Zm3,2.65h1.19v1a4,4,0,0,1,.77-.77,2.3,2.3,0,0,1,1.34-.4A2.14,2.14,0,0,1,897,360a2.25,2.25,0,0,1,.53.7,2.61,2.61,0,0,1,.94-.85,2.66,2.66,0,0,1,1.21-.27,2,2,0,0,1,2,1,3.46,3.46,0,0,1,.28,1.5v4.75h-1.25v-4.95a1.13,1.13,0,0,0-.36-1,1.36,1.36,0,0,0-.86-.27,1.76,1.76,0,0,0-1.22.47,2.08,2.08,0,0,0-.51,1.58v4.15h-1.22v-4.65a2.49,2.49,0,0,0-.17-1.06,1,1,0,0,0-1-.5,1.75,1.75,0,0,0-1.23.52,2.55,2.55,0,0,0-.56,1.91v3.78h-1.2Zm11.36,0h1.19v1a4,4,0,0,1,.77-.77,2.3,2.3,0,0,1,1.34-.4,2.1,2.1,0,0,1,1.37.42,2.12,2.12,0,0,1,.54.7,2.61,2.61,0,0,1,.94-.85,2.66,2.66,0,0,1,1.21-.27,2,2,0,0,1,2,1,3.46,3.46,0,0,1,.28,1.5v4.75H912v-4.95a1.13,1.13,0,0,0-.36-1,1.36,1.36,0,0,0-.86-.27,1.74,1.74,0,0,0-1.22.47,2.08,2.08,0,0,0-.51,1.58v4.15h-1.22v-4.65a2.49,2.49,0,0,0-.17-1.06,1,1,0,0,0-1-.5,1.79,1.79,0,0,0-1.24.52,2.59,2.59,0,0,0-.55,1.91v3.78h-1.2Zm15.18,2.81a.63.63,0,0,0,.55-.34,1,1,0,0,0,.08-.46,1,1,0,0,0-.43-.9,2.39,2.39,0,0,0-1.25-.27,1.59,1.59,0,0,0-1.33.51,1.65,1.65,0,0,0-.28.83h-1.12a2.09,2.09,0,0,1,.85-1.84,3.57,3.57,0,0,1,1.91-.51,3.85,3.85,0,0,1,2,.47,1.63,1.63,0,0,1,.78,1.5v4.1a.51.51,0,0,0,.08.3c0,.08.15.12.32.12h.18l.21,0v.88a2.17,2.17,0,0,1-.42.1,2.3,2.3,0,0,1-.4,0,1,1,0,0,1-.9-.44,1.6,1.6,0,0,1-.21-.66,3,3,0,0,1-1,.84,3.32,3.32,0,0,1-1.51.35,2.25,2.25,0,0,1-1.62-.6,2,2,0,0,1-.63-1.51,1.93,1.93,0,0,1,.62-1.54,3,3,0,0,1,1.62-.67Zm-2.9,2.42a1,1,0,0,0,.38.82,1.4,1.4,0,0,0,.9.3,2.77,2.77,0,0,0,1.22-.29,1.65,1.65,0,0,0,1-1.59v-1a2.1,2.1,0,0,1-.56.23,4.28,4.28,0,0,1-.68.13l-.73.1a2.57,2.57,0,0,0-1,.27,1.05,1.05,0,0,0-.55,1Zm6.64-7.88h1.15v5.68l3.07-3h1.53l-2.74,2.65,2.9,4.48h-1.54l-2.24-3.63-1,.95v2.68h-1.15Zm9.78,2.49a3.34,3.34,0,0,1,1.47.35,2.65,2.65,0,0,1,1.07.93,3.19,3.19,0,0,1,.48,1.26,8.17,8.17,0,0,1,.11,1.57h-5.19a3,3,0,0,0,.51,1.74,1.7,1.7,0,0,0,1.47.66,1.92,1.92,0,0,0,1.49-.62,2.25,2.25,0,0,0,.44-.84h1.18a2.59,2.59,0,0,1-.31.88,3.32,3.32,0,0,1-.59.79,2.86,2.86,0,0,1-1.34.72,4.13,4.13,0,0,1-1,.1,3,3,0,0,1-2.25-1,3.78,3.78,0,0,1-.92-2.71,4.12,4.12,0,0,1,.93-2.79,3.07,3.07,0,0,1,2.42-1.07Zm1.89,3.15a3.11,3.11,0,0,0-.33-1.24,1.72,1.72,0,0,0-1.63-.87,1.8,1.8,0,0,0-1.38.6,2.24,2.24,0,0,0-.58,1.51Zm2.79-3h1.13v1.23a3,3,0,0,1,.69-.88,1.78,1.78,0,0,1,1.26-.51h.11l.27,0v1.27l-.19,0h-.2a1.71,1.71,0,0,0-1.39.59,2,2,0,0,0-.49,1.34v4.1H937Z" transform="translate(-80.75 -138.36)"/><path class="t" d="M147.5,197.05H127.89l-4,12.82H109.06L129,153.11h17.72l19.86,56.76H151.37ZM144.4,187l-4.12-13.59-2.5-8.94h-.17l-2.32,8.86L131,187Z" transform="translate(-80.75 -138.36)"/><path class="t" d="M227.13,189.14v20.73H212.34V189.14l-20-36h15.31l8,15.56,4.22,9.46,4.29-9.46,8-15.56h15Z" transform="translate(-80.75 -138.36)"/><path class="t" d="M294.73,192.58H265.41a9.43,9.43,0,0,0,3,5.94,9.2,9.2,0,0,0,6.07,1.89,10,10,0,0,0,5.2-1.21,5.91,5.91,0,0,0,2.71-3.52l11.86,3.78a14.47,14.47,0,0,1-7,8.39,26.07,26.07,0,0,1-12.77,2.88q-11.28,0-17.25-5.85t-6-16.51q0-10.67,5.85-16.52t16.6-5.84q10.41,0,15.95,5.72t5.55,16A22.09,22.09,0,0,1,294.73,192.58Zm-29.41-7.91h16.17q-1-8.43-7.91-8.43T265.32,184.67Z" transform="translate(-80.75 -138.36)"/><path class="t" d="M347.53,201.18l-1.11,8.17a11.93,11.93,0,0,1-5.85,1.38q-9.29,0-11.1-6.63-3.87,6.63-15.3,6.63-6.45,0-9.89-2.75c-2.3-1.84-3.44-4.5-3.44-8a11.2,11.2,0,0,1,3.91-8.9q3.92-3.41,12.86-5.21l9.71-1.89v-1.55a6.45,6.45,0,0,0-1.63-4.64,5.86,5.86,0,0,0-4.47-1.72,8.58,8.58,0,0,0-5.33,1.55,7.6,7.6,0,0,0-2.67,5.07l-11.87-3.44a14.44,14.44,0,0,1,6.19-9.76c3.39-2.32,7.94-3.48,13.68-3.48q10.06,0,15.31,4.13t5.24,12.38v15.65q0,3.36,3.1,3.36A8.48,8.48,0,0,0,347.53,201.18Zm-22.61-1.59a5.16,5.16,0,0,0,2.4-4.43v-3.7l-7,1.64a10,10,0,0,0-3.91,1.67,3.48,3.48,0,0,0-1.17,2.8,3.42,3.42,0,0,0,1.12,2.75,4.67,4.67,0,0,0,3.1,1A9.28,9.28,0,0,0,324.92,199.59Z" transform="translate(-80.75 -138.36)"/><path class="t" d="M384.51,167,383,179.34a8.81,8.81,0,0,0-2.32-.91,12.34,12.34,0,0,0-3.09-.38,9.55,9.55,0,0,0-6.88,2.62c-1.84,1.75-2.75,4.26-2.75,7.53v21.67H353.29v-43H366.2l.6,9.29a15,15,0,0,1,4.86-7.53,12.78,12.78,0,0,1,8.21-2.62A9.64,9.64,0,0,1,384.51,167Z" transform="translate(-80.75 -138.36)"/><path class="t" d="M415.69,160.2q-2-1.68-2-5.29t2-5.37c1.34-1.12,3.51-1.68,6.49-1.68s5.15.56,6.49,1.68,2,2.91,2,5.37-.67,4.17-2,5.29-3.51,1.68-6.49,1.68S417,161.32,415.69,160.2Zm13.8,49.67H414.87v-43h14.62Z" transform="translate(-80.75 -138.36)"/><path class="t" d="M478.94,170q4,4,4,11.27v28.64H468.36v-24.6q0-4.38-1.59-6.23a5.61,5.61,0,0,0-4.51-1.85,7.05,7.05,0,0,0-5.59,2.45c-1.44,1.63-2.15,4.14-2.15,7.52v22.71H439.9v-43H453l.43,8.25a14.75,14.75,0,0,1,5.85-6.83A16.8,16.8,0,0,1,468.1,166Q474.9,166,478.94,170Z" transform="translate(-80.75 -138.36)"/><path class="t" d="M533.63,164.55v12H557V188h-23.4v21.85H518.84V153.11H563v11.44Z" transform="translate(-80.75 -138.36)"/><path class="t" d="M571.26,160.2q-2-1.68-2-5.29t2-5.37q2-1.68,6.49-1.68t6.5,1.68c1.34,1.12,2,2.91,2,5.37s-.68,4.17-2,5.29-3.52,1.68-6.5,1.68S572.61,161.32,571.26,160.2Zm13.8,49.67H570.44v-43h14.62Z" transform="translate(-80.75 -138.36)"/><path class="t" d="M609.92,195a7.44,7.44,0,0,0,.85,4.13,3.58,3.58,0,0,0,3.1,1.2,14.06,14.06,0,0,0,4.39-.77l-1,9a14.16,14.16,0,0,1-4,1.54,20.42,20.42,0,0,1-4.9.61q-6.89,0-10-3.23t-3.1-10.36v-48.5h14.63Z" transform="translate(-80.75 -138.36)"/><path class="t" d="M690.2,170q4.08,4,4.08,11.27v28.64H679.66V184.58q0-7.4-5.85-7.39a6.78,6.78,0,0,0-5.5,2.49c-1.38,1.66-2.06,4.07-2.06,7.23v23H651.62V184.58q0-7.4-5.84-7.39a6.85,6.85,0,0,0-5.42,2.49c-1.44,1.66-2.15,4.16-2.15,7.48v22.71H623.59v-43h13.07l.43,8.25a15.43,15.43,0,0,1,5.76-6.79,16,16,0,0,1,8.69-2.32,15.62,15.62,0,0,1,8.47,2.23,12.43,12.43,0,0,1,5.12,6.45,14.76,14.76,0,0,1,5.89-6.45,16.64,16.64,0,0,1,8.56-2.23A14.67,14.67,0,0,1,690.2,170Z" transform="translate(-80.75 -138.36)"/></svg>