<svg xmlns="http://www.w3.org/2000/svg" xmlns:xlink="http://www.w3.org/1999/xlink" viewBox="0 0 100 100"><defs><style>.a{fill:none;}.b{fill:#fff;}.c{clip-path:url(#a);}</style><clipPath id="a" transform="translate(0 0)"><rect class="a" x="37.28" y="66.18" width="66.72" height="6.31" transform="translate(-28.34 70.26) rotate(-45)"/></clipPath></defs><polygon class="b" points="59.41 33.21 31.16 38.01 49.45 60.07 59.41 33.21"/><circle class="b" cx="89" cy="15" r="11"/><g class="c"><path class="b" d="M45.46,91.18c.44.08.88.14,1.31.26.68.19,1.34.45,2,.63a4.46,4.46,0,0,0,1.26.13.88.88,0,0,0,.83-.83,4.53,4.53,0,0,0-.14-1.32c-.22-.86-.52-1.69-.74-2.55a2.6,2.6,0,0,1,.3-2.2,2.42,2.42,0,0,1,2.58-1c.61.1,1.2.31,1.8.47s1.17.38,1.77.48a1.73,1.73,0,0,0,1-.17,1.06,1.06,0,0,0,.47-1.2,9.9,9.9,0,0,0-.33-1.3c-.19-.69-.43-1.37-.6-2.07a2.6,2.6,0,0,1,.32-2.17,2.38,2.38,0,0,1,2.58-1c.76.14,1.49.4,2.24.61.43.11.86.26,1.3.34a1.16,1.16,0,0,0,1.47-1.45c-.13-.7-.38-1.37-.57-2.05A14.07,14.07,0,0,1,64,73.19a2.45,2.45,0,0,1,2.95-2.94c.71.12,1.39.38,2.09.57.48.13,1,.3,1.45.39a1.16,1.16,0,0,0,1.46-1.47c-.11-.64-.35-1.26-.52-1.89A13.43,13.43,0,0,1,71,66.11a2.43,2.43,0,0,1,2.91-2.86,20.66,20.66,0,0,1,2.15.57c.47.13.94.29,1.42.38,1,.19,1.68-.43,1.48-1.47-.13-.69-.39-1.36-.57-2A10.85,10.85,0,0,1,78,59.09a2.44,2.44,0,0,1,2.89-2.85,18.37,18.37,0,0,1,2,.53c.51.14,1,.33,1.54.43,1.08.19,1.72-.44,1.5-1.52-.13-.67-.38-1.32-.56-2A12.27,12.27,0,0,1,85,52.14a2.45,2.45,0,0,1,2.93-2.9,11.42,11.42,0,0,1,1.4.34c.51.15,1,.34,1.53.48a3.3,3.3,0,0,0,.93.16A1.07,1.07,0,0,0,93,49a5.09,5.09,0,0,0-.19-1c-.24-.84-.52-1.67-.74-2.52a2.6,2.6,0,0,1,.31-2.2,2.38,2.38,0,0,1,2.54-1c.73.13,1.43.38,2.15.58a14.72,14.72,0,0,0,1.45.38,1.15,1.15,0,0,0,1.45-1.45c-.12-.65-.35-1.28-.53-1.92A16,16,0,0,1,99,38.18a2.44,2.44,0,0,1,3-2.93,19.55,19.55,0,0,1,2.21.6c.43.12.85.26,1.29.34a1.18,1.18,0,0,0,1.5-1.52c-.12-.59-.34-1.15-.49-1.73a15.57,15.57,0,0,1-.49-2.1,2.34,2.34,0,0,1,1.51-2.47,2.76,2.76,0,0,1,1.77-.08c.66.17,1.3.38,2,.57.41.12.82.25,1.23.33,1.1.19,1.73-.44,1.52-1.53-.12-.59-.34-1.15-.49-1.74a14.65,14.65,0,0,1-.48-2.06,2.3,2.3,0,0,1,1-2.26,2.4,2.4,0,0,1,1.91-.36c.76.16,1.5.41,2.24.61a12.45,12.45,0,0,0,1.3.34,1.17,1.17,0,0,0,1.48-1.48c-.12-.6-.33-1.18-.49-1.77a14.89,14.89,0,0,1-.47-1.83,2.43,2.43,0,0,1,2.93-2.87,22.46,22.46,0,0,1,2.24.6c.43.12.85.27,1.29.35,1.06.19,1.68-.44,1.5-1.5-.07-.4-.2-.8-.31-1.2-.2-.68-.43-1.35-.6-2a2.63,2.63,0,0,1,.32-2.18,2.42,2.42,0,0,1,2.58-1c.75.13,1.49.4,2.24.61a12.35,12.35,0,0,0,1.33.34,1.15,1.15,0,0,0,1.45-1.42,9.9,9.9,0,0,0-.33-1.3c-.19-.67-.42-1.33-.58-2a2.62,2.62,0,0,1,.3-2.18,2.41,2.41,0,0,1,2.57-1c.71.13,1.41.38,2.11.57.46.12.9.27,1.36.37a1.35,1.35,0,0,0,1.31-.29l.92.92a2.23,2.23,0,0,1-1.31.7,4,4,0,0,1-1.81-.17c-.67-.2-1.33-.43-2-.62a5.3,5.3,0,0,0-1-.18,1,1,0,0,0-1.17,1.15,9.16,9.16,0,0,0,.32,1.54c.19.69.44,1.37.6,2.07a2.6,2.6,0,0,1-.54,2.46,2.4,2.4,0,0,1-2.35.75c-.76-.15-1.5-.41-2.25-.61a10.81,10.81,0,0,0-1.36-.34A1.14,1.14,0,0,0,128.3,10c.1.61.32,1.2.48,1.8s.37,1.19.47,1.8a2.44,2.44,0,0,1-2.92,2.91,23.26,23.26,0,0,1-2.28-.61,10.81,10.81,0,0,0-1.36-.34,1.13,1.13,0,0,0-1.4,1.41,12,12,0,0,0,.37,1.46c.19.72.46,1.42.58,2.15a2.44,2.44,0,0,1-2.95,2.93c-.76-.13-1.49-.41-2.24-.61a9.45,9.45,0,0,0-1.37-.34A1.14,1.14,0,0,0,114.29,24a12.47,12.47,0,0,0,.36,1.43c.2.72.46,1.44.59,2.17a2.44,2.44,0,0,1-2.93,2.93,19.28,19.28,0,0,1-2.11-.56c-.48-.13-1-.3-1.43-.38-1.06-.17-1.66.43-1.47,1.48a14.67,14.67,0,0,0,.43,1.61c.17.65.4,1.28.51,1.93a2.44,2.44,0,0,1-2.9,2.93c-.74-.12-1.46-.39-2.18-.58a13.57,13.57,0,0,0-1.49-.38,1.13,1.13,0,0,0-1.39,1.4c.1.58.3,1.14.45,1.71s.4,1.28.51,1.93a2.44,2.44,0,0,1-2.91,2.92,22.35,22.35,0,0,1-2.27-.61,13.67,13.67,0,0,0-1.33-.34c-1-.15-1.62.45-1.44,1.46.13.67.36,1.31.54,2a15.37,15.37,0,0,1,.41,1.62,2.44,2.44,0,0,1-2.92,2.91,23.08,23.08,0,0,1-2.27-.61,10.55,10.55,0,0,0-1.37-.34A1.13,1.13,0,0,0,86.28,52c.11.63.33,1.24.5,1.86a15.33,15.33,0,0,1,.45,1.74,2.45,2.45,0,0,1-3,2.94c-.76-.13-1.49-.41-2.24-.61a12.87,12.87,0,0,0-1.36-.34A1.14,1.14,0,0,0,79.28,59a15.3,15.3,0,0,0,.41,1.58,20.77,20.77,0,0,1,.54,2,2.44,2.44,0,0,1-2.92,2.93,20,20,0,0,1-2.15-.57,11.54,11.54,0,0,0-1.43-.37c-1-.16-1.63.43-1.44,1.45a18.81,18.81,0,0,0,.52,1.92,16,16,0,0,1,.42,1.65,2.45,2.45,0,0,1-2.93,2.93c-.73-.12-1.43-.39-2.15-.58a12,12,0,0,0-1.46-.37A1.13,1.13,0,0,0,65.28,73a17.22,17.22,0,0,0,.45,1.71c.17.65.4,1.3.51,2a2.39,2.39,0,0,1-1.36,2.66,2.71,2.71,0,0,1-1.92.14c-.83-.22-1.65-.49-2.48-.72a4.21,4.21,0,0,0-1.06-.19,1.05,1.05,0,0,0-1.16,1.16,4.21,4.21,0,0,0,.19,1.06c.22.83.51,1.65.72,2.48a2.6,2.6,0,0,1-.53,2.52,2.41,2.41,0,0,1-2.36.75c-.72-.14-1.41-.38-2.12-.57a12.38,12.38,0,0,0-1.45-.38A1.14,1.14,0,0,0,51.28,87c.11.62.33,1.22.49,1.83s.36,1.18.46,1.78a2.44,2.44,0,0,1-2.89,2.91,21.22,21.22,0,0,1-2.21-.6.44.44,0,0,1-.15-.08l-1.57-1.56.05-.11" transform="translate(0 0)"/></g><polygon class="b" points="9.23 75.23 8.38 91.74 23.83 97.66 34.22 84.79 25.2 70.93 9.23 75.23"/><rect class="b" width="20" height="20"/></svg>